Niagara-Light.ufo
<glyph name="quotedbl" format="1">
  <advance width="211"/>
  <unicode hex="0022"/>
  <outline>
    <contour>
      <point x="177" y="682" type="line"/>
      <point x="160" y="507" type="line"/>
      <point x="141" y="507" type="line"/>
      <point x="124" y="682" type="line"/>
      <point x="124" y="700" type="line"/>
      <point x="177" y="700" type="line"/>
    </contour>
    <contour>
      <point x="87" y="682" type="line"/>
      <point x="70" y="507" type="line"/>
      <point x="51" y="507" type="line"/>
      <point x="34" y="682" type="line"/>
      <point x="34" y="700" type="line"/>
      <point x="87" y="700" type="line"/>
    </contour>
  </outline>
</glyph>
<glyph name="percent" format="1">
  <advance width="477"/>
  <unicode hex="0025"/>
  <outline>
    <contour>
      <point x="203" y="381" type="line" smooth="yes"/>
      <point x="203" y="329"/>
      <point x="168" y="295"/>
      <point x="118" y="295" type="curve" smooth="yes"/>
      <point x="66" y="295"/>
      <point x="31" y="329"/>
      <point x="31" y="381" type="curve" smooth="yes"/>
      <point x="31" y="619" type="line" smooth="yes"/>
      <point x="31" y="671"/>
      <point x="66" y="705"/>
      <point x="118" y="705" type="curve" smooth="yes"/>
      <point x="168" y="705"/>
      <point x="203" y="671"/>
      <point x="203" y="619" type="curve" smooth="yes"/>
    </contour>
    <contour>
      <point x="377" y="700" type="line"/>
      <point x="117" y="0" type="line"/>
      <point x="100" y="0" type="line"/>
      <point x="360" y="700" type="line"/>
    </contour>
    <contour>
      <point x="446" y="81" type="line" smooth="yes"/>
      <point x="446" y="29"/>
      <point x="411" y="-5"/>
      <point x="361" y="-5" type="curve" smooth="yes"/>
      <point x="309" y="-5"/>
      <point x="274" y="29"/>
      <point x="274" y="81" type="curve" smooth="yes"/>
      <point x="274" y="319" type="line" smooth="yes"/>
      <point x="274" y="371"/>
      <point x="309" y="405"/>
      <point x="361" y="405" type="curve" smooth="yes"/>
      <point x="411" y="405"/>
      <point x="446" y="371"/>
      <point x="446" y="319" type="curve" smooth="yes"/>
    </contour>
    <contour>
      <point x="157" y="357" type="curve" smooth="yes"/>
      <point x="157" y="643" type="line" smooth="yes"/>
      <point x="157" y="673"/>
      <point x="143" y="692"/>
      <point x="118" y="692" type="curve" smooth="yes"/>
      <point x="92" y="692"/>
      <point x="77" y="674"/>
      <point x="77" y="643" type="curve" smooth="yes"/>
      <point x="77" y="357" type="line" smooth="yes"/>
      <point x="77" y="326"/>
      <point x="92" y="308"/>
      <point x="118" y="308" type="curve" smooth="yes"/>
      <point x="143" y="308"/>
      <point x="157" y="327"/>
    </contour>
    <contour>
      <point x="400" y="57" type="curve" smooth="yes"/>
      <point x="400" y="343" type="line" smooth="yes"/>
      <point x="400" y="373"/>
      <point x="386" y="392"/>
      <point x="361" y="392" type="curve" smooth="yes"/>
      <point x="335" y="392"/>
      <point x="320" y="374"/>
      <point x="320" y="343" type="curve" smooth="yes"/>
      <point x="320" y="57" type="line" smooth="yes"/>
      <point x="320" y="26"/>
      <point x="335" y="8"/>
      <point x="361" y="8" type="curve" smooth="yes"/>
      <point x="386" y="8"/>
      <point x="400" y="27"/>
    </contour>
  </outline>
</glyph>
<glyph name="ampersand" format="1">
  <advance width="294"/>
  <unicode hex="0026"/>
  <outline>
    <contour>
      <point x="282" y="364" type="line"/>
      <point x="254" y="364" type="line"/>
      <point x="254" y="99" type="line" smooth="yes"/>
      <point x="254" y="33"/>
      <point x="205" y="-5"/>
      <point x="145" y="-5" type="curve" smooth="yes"/>
      <point x="85" y="-5"/>
      <point x="37" y="33"/>
      <point x="37" y="99" type="curve" smooth="yes"/>
      <point x="37" y="273" type="line" smooth="yes"/>
      <point x="37" y="326"/>
      <point x="68" y="360"/>
      <point x="107" y="370" type="curve"/>
      <point x="67" y="382"/>
      <point x="37" y="415"/>
      <point x="37" y="469" type="curve" smooth="yes"/>
      <point x="37" y="601" type="line" smooth="yes"/>
      <point x="37" y="667"/>
      <point x="85" y="705"/>
      <point x="145" y="705" type="curve" smooth="yes"/>
      <point x="205" y="705"/>
      <point x="254" y="667"/>
      <point x="254" y="601" type="curve" smooth="yes"/>
      <point x="254" y="490" type="line"/>
      <point x="202" y="490" type="line"/>
      <point x="202" y="629" type="line" smooth="yes"/>
      <point x="202" y="668"/>
      <point x="180" y="692"/>
      <point x="145" y="692" type="curve" smooth="yes"/>
      <point x="110" y="692"/>
      <point x="89" y="668"/>
      <point x="89" y="629" type="curve" smooth="yes"/>
      <point x="89" y="440" type="line" smooth="yes"/>
      <point x="89" y="401"/>
      <point x="110" y="377"/>
      <point x="148" y="377" type="curve" smooth="yes"/>
      <point x="282" y="377" type="line"/>
    </contour>
    <contour>
      <point x="202" y="71" type="curve" smooth="yes"/>
      <point x="202" y="364" type="line"/>
      <point x="148" y="364" type="line" smooth="yes"/>
      <point x="110" y="364"/>
      <point x="89" y="340"/>
      <point x="89" y="301" type="curve" smooth="yes"/>
      <point x="89" y="71" type="line" smooth="yes"/>
      <point x="89" y="32"/>
      <point x="110" y="8"/>
      <point x="145" y="8" type="curve" smooth="yes"/>
      <point x="180" y="8"/>
      <point x="202" y="32"/>
    </contour>
  </outline>
</glyph>
<glyph name="quotesingle" format="1">
  <advance width="121"/>
  <unicode hex="0027"/>
  <outline>
    <contour>
      <point x="87" y="682" type="line"/>
      <point x="70" y="507" type="line"/>
      <point x="51" y="507" type="line"/>
      <point x="34" y="682" type="line"/>
      <point x="34" y="700" type="line"/>
      <point x="87" y="700" type="line"/>
    </contour>
  </outline>
</glyph>
<glyph name="parenleft" format="1">
  <advance width="174"/>
  <unicode hex="0028"/>
  <outline>
    <contour>
      <point x="153" y="0" type="line"/>
      <point x="138" y="0" type="line" smooth="yes"/>
      <point x="77" y="0"/>
      <point x="39" y="40"/>
      <point x="39" y="96" type="curve" smooth="yes"/>
      <point x="39" y="604" type="line" smooth="yes"/>
      <point x="39" y="660"/>
      <point x="77" y="700"/>
      <point x="138" y="700" type="curve" smooth="yes"/>
      <point x="153" y="700" type="line"/>
      <point x="153" y="687" type="line"/>
      <point x="139" y="687" type="line" smooth="yes"/>
      <point x="107" y="687"/>
      <point x="90" y="665"/>
      <point x="90" y="631" type="curve" smooth="yes"/>
      <point x="90" y="69" type="line" smooth="yes"/>
      <point x="90" y="35"/>
      <point x="107" y="13"/>
      <point x="139" y="13" type="curve" smooth="yes"/>
      <point x="153" y="13" type="line"/>
    </contour>
  </outline>
</glyph>
<glyph name="parenright" format="1">
  <advance width="174"/>
  <unicode hex="0029"/>
  <outline>
    <contour>
      <point x="135" y="96" type="line" smooth="yes"/>
      <point x="135" y="40"/>
      <point x="97" y="0"/>
      <point x="36" y="0" type="curve" smooth="yes"/>
      <point x="21" y="0" type="line"/>
      <point x="21" y="13" type="line"/>
      <point x="35" y="13" type="line" smooth="yes"/>
      <point x="67" y="13"/>
      <point x="84" y="35"/>
      <point x="84" y="69" type="curve" smooth="yes"/>
      <point x="84" y="631" type="line" smooth="yes"/>
      <point x="84" y="665"/>
      <point x="67" y="687"/>
      <point x="35" y="687" type="curve" smooth="yes"/>
      <point x="21" y="687" type="line"/>
      <point x="21" y="700" type="line"/>
      <point x="36" y="700" type="line" smooth="yes"/>
      <point x="97" y="700"/>
      <point x="135" y="660"/>
      <point x="135" y="604" type="curve" smooth="yes"/>
    </contour>
  </outline>
</glyph>
<glyph name="asterisk" format="1">
  <advance width="264"/>
  <unicode hex="002A"/>
  <outline>
    <contour>
      <point x="239" y="523" type="line"/>
      <point x="235" y="516" type="line"/>
      <point x="148" y="551" type="line"/>
      <point x="137" y="463" type="line"/>
      <point x="128" y="463" type="line"/>
      <point x="116" y="551" type="line"/>
      <point x="30" y="516" type="line"/>
      <point x="25" y="523" type="line"/>
      <point x="102" y="581" type="line"/>
      <point x="25" y="640" type="line"/>
      <point x="30" y="647" type="line"/>
      <point x="116" y="612" type="line"/>
      <point x="128" y="700" type="line"/>
      <point x="137" y="700" type="line"/>
      <point x="148" y="612" type="line"/>
      <point x="235" y="647" type="line"/>
      <point x="239" y="640" type="line"/>
      <point x="162" y="581" type="line"/>
    </contour>
  </outline>
</glyph>
<glyph name="comma" format="1">
  <advance width="117"/>
  <unicode hex="002C"/>
  <outline>
    <contour>
      <point x="90" y="82" type="line"/>
      <point x="47" y="-55" type="line"/>
      <point x="26" y="-55" type="line"/>
      <point x="39" y="100" type="line"/>
      <point x="90" y="100" type="line"/>
    </contour>
  </outline>
</glyph>
<glyph name="hyphen" format="1">
  <advance width="150"/>
  <unicode hex="002D"/>
  <unicode hex="2010"/>
  <unicode hex="2011"/>
  <outline>
    <contour>
      <point x="132" y="361" type="line"/>
      <point x="18" y="361" type="line"/>
      <point x="18" y="379" type="line"/>
      <point x="132" y="379" type="line"/>
    </contour>
  </outline>
</glyph>
<glyph name="zero" format="1">
  <advance width="295"/>
  <unicode hex="0030"/>
  <outline>
    <contour>
      <point x="258" y="101" type="line" smooth="yes"/>
      <point x="258" y="34"/>
      <point x="207" y="-5"/>
      <point x="148" y="-5" type="curve" smooth="yes"/>
      <point x="89" y="-5"/>
      <point x="37" y="34"/>
      <point x="37" y="101" type="curve" smooth="yes"/>
      <point x="37" y="599" type="line" smooth="yes"/>
      <point x="37" y="666"/>
      <point x="89" y="705"/>
      <point x="148" y="705" type="curve" smooth="yes"/>
      <point x="207" y="705"/>
      <point x="258" y="666"/>
      <point x="258" y="599" type="curve" smooth="yes"/>
    </contour>
    <contour>
      <point x="206" y="73" type="curve" smooth="yes"/>
      <point x="206" y="627" type="line" smooth="yes"/>
      <point x="206" y="666"/>
      <point x="183" y="692"/>
      <point x="148" y="692" type="curve" smooth="yes"/>
      <point x="113" y="692"/>
      <point x="89" y="666"/>
      <point x="89" y="627" type="curve" smooth="yes"/>
      <point x="89" y="73" type="line" smooth="yes"/>
      <point x="89" y="34"/>
      <point x="113" y="8"/>
      <point x="148" y="8" type="curve" smooth="yes"/>
      <point x="183" y="8"/>
      <point x="206" y="34"/>
    </contour>
  </outline>
</glyph>
<glyph name="two" format="1">
  <advance width="276"/>
  <unicode hex="0032"/>
  <outline>
    <contour>
      <point x="240" y="0" type="line"/>
      <point x="36" y="0" type="line"/>
      <point x="36" y="181" type="line" smooth="yes"/>
      <point x="36" y="224"/>
      <point x="48" y="258"/>
      <point x="68" y="288" type="curve" smooth="yes"/>
      <point x="157" y="425" type="line" smooth="yes"/>
      <point x="179" y="459"/>
      <point x="188" y="484"/>
      <point x="188" y="526" type="curve" smooth="yes"/>
      <point x="188" y="629" type="line" smooth="yes"/>
      <point x="188" y="668"/>
      <point x="170" y="692"/>
      <point x="138" y="692" type="curve" smooth="yes"/>
      <point x="106" y="692"/>
      <point x="88" y="668"/>
      <point x="88" y="629" type="curve" smooth="yes"/>
      <point x="88" y="490" type="line"/>
      <point x="36" y="490" type="line"/>
      <point x="36" y="601" type="line" smooth="yes"/>
      <point x="36" y="667"/>
      <point x="81" y="705"/>
      <point x="138" y="705" type="curve" smooth="yes"/>
      <point x="195" y="705"/>
      <point x="240" y="667"/>
      <point x="240" y="601" type="curve" smooth="yes"/>
      <point x="240" y="519" type="line" smooth="yes"/>
      <point x="240" y="477"/>
      <point x="229" y="445"/>
      <point x="208" y="412" type="curve" smooth="yes"/>
      <point x="119" y="274" type="line" smooth="yes"/>
      <point x="99" y="244"/>
      <point x="88" y="216"/>
      <point x="88" y="173" type="curve" smooth="yes"/>
      <point x="88" y="13" type="line"/>
      <point x="188" y="13" type="line"/>
      <point x="188" y="210" type="line"/>
      <point x="240" y="210" type="line"/>
    </contour>
  </outline>
</glyph>
<glyph name="three" format="1">
  <advance width="281"/>
  <unicode hex="0033"/>
  <outline>
    <contour>
      <point x="244" y="99" type="line" smooth="yes"/>
      <point x="244" y="31"/>
      <point x="197" y="-5"/>
      <point x="138" y="-5" type="curve" smooth="yes"/>
      <point x="78" y="-5"/>
      <point x="32" y="32"/>
      <point x="32" y="99" type="curve" smooth="yes"/>
      <point x="32" y="210" type="line"/>
      <point x="84" y="210" type="line"/>
      <point x="84" y="71" type="line" smooth="yes"/>
      <point x="84" y="31"/>
      <point x="103" y="8"/>
      <point x="138" y="8" type="curve" smooth="yes"/>
      <point x="173" y="8"/>
      <point x="192" y="31"/>
      <point x="192" y="71" type="curve" smooth="yes"/>
      <point x="192" y="299" type="line" smooth="yes"/>
      <point x="192" y="338"/>
      <point x="168" y="363"/>
      <point x="133" y="363" type="curve" smooth="yes"/>
      <point x="83" y="363" type="line"/>
      <point x="83" y="377" type="line"/>
      <point x="133" y="377" type="line" smooth="yes"/>
      <point x="168" y="377"/>
      <point x="192" y="402"/>
      <point x="192" y="441" type="curve" smooth="yes"/>
      <point x="192" y="629" type="line" smooth="yes"/>
      <point x="192" y="669"/>
      <point x="173" y="692"/>
      <point x="138" y="692" type="curve" smooth="yes"/>
      <point x="103" y="692"/>
      <point x="84" y="669"/>
      <point x="84" y="629" type="curve" smooth="yes"/>
      <point x="84" y="490" type="line"/>
      <point x="32" y="490" type="line"/>
      <point x="32" y="601" type="line" smooth="yes"/>
      <point x="32" y="669"/>
      <point x="79" y="705"/>
      <point x="138" y="705" type="curve" smooth="yes"/>
      <point x="197" y="705"/>
      <point x="244" y="669"/>
      <point x="244" y="601" type="curve" smooth="yes"/>
      <point x="244" y="469" type="line" smooth="yes"/>
      <point x="244" y="413"/>
      <point x="211" y="382"/>
      <point x="170" y="370" type="curve"/>
      <point x="211" y="358"/>
      <point x="244" y="327"/>
      <point x="244" y="271" type="curve" smooth="yes"/>
    </contour>
  </outline>
</glyph>
<glyph name="five" format="1">
  <advance width="284"/>
  <unicode hex="0035"/>
  <outline>
    <contour>
      <point x="249" y="99" type="line" smooth="yes"/>
      <point x="249" y="33"/>
      <point x="201" y="-5"/>
      <point x="142" y="-5" type="curve" smooth="yes"/>
      <point x="83" y="-5"/>
      <point x="35" y="33"/>
      <point x="35" y="99" type="curve" smooth="yes"/>
      <point x="35" y="210" type="line"/>
      <point x="87" y="210" type="line"/>
      <point x="87" y="71" type="line" smooth="yes"/>
      <point x="87" y="32"/>
      <point x="107" y="8"/>
      <point x="142" y="8" type="curve" smooth="yes"/>
      <point x="177" y="8"/>
      <point x="197" y="32"/>
      <point x="197" y="71" type="curve" smooth="yes"/>
      <point x="197" y="300" type="line" smooth="yes"/>
      <point x="197" y="340"/>
      <point x="177" y="364"/>
      <point x="142" y="364" type="curve" smooth="yes"/>
      <point x="38" y="364" type="line"/>
      <point x="38" y="700" type="line"/>
      <point x="240" y="700" type="line"/>
      <point x="240" y="490" type="line"/>
      <point x="188" y="490" type="line"/>
      <point x="188" y="687" type="line"/>
      <point x="90" y="687" type="line"/>
      <point x="90" y="377" type="line"/>
      <point x="142" y="377" type="line" smooth="yes"/>
      <point x="201" y="377"/>
      <point x="249" y="339"/>
      <point x="249" y="272" type="curve" smooth="yes"/>
    </contour>
  </outline>
</glyph>
<glyph name="six" format="1">
  <advance width="289"/>
  <unicode hex="0036"/>
  <outline>
    <contour>
      <point x="253" y="99" type="line" smooth="yes"/>
      <point x="253" y="33"/>
      <point x="204" y="-5"/>
      <point x="145" y="-5" type="curve" smooth="yes"/>
      <point x="85" y="-5"/>
      <point x="37" y="33"/>
      <point x="37" y="99" type="curve" smooth="yes"/>
      <point x="37" y="601" type="line" smooth="yes"/>
      <point x="37" y="667"/>
      <point x="85" y="705"/>
      <point x="145" y="705" type="curve" smooth="yes"/>
      <point x="204" y="705"/>
      <point x="253" y="667"/>
      <point x="253" y="601" type="curve" smooth="yes"/>
      <point x="253" y="490" type="line"/>
      <point x="201" y="490" type="line"/>
      <point x="201" y="629" type="line" smooth="yes"/>
      <point x="201" y="668"/>
      <point x="180" y="692"/>
      <point x="145" y="692" type="curve" smooth="yes"/>
      <point x="110" y="692"/>
      <point x="89" y="668"/>
      <point x="89" y="629" type="curve" smooth="yes"/>
      <point x="89" y="361" type="line"/>
      <point x="105" y="374"/>
      <point x="130" y="384"/>
      <point x="162" y="384" type="curve" smooth="yes"/>
      <point x="217" y="384"/>
      <point x="253" y="354"/>
      <point x="253" y="296" type="curve" smooth="yes"/>
    </contour>
    <contour>
      <point x="201" y="71" type="curve" smooth="yes"/>
      <point x="201" y="314" type="line" smooth="yes"/>
      <point x="201" y="348"/>
      <point x="181" y="369"/>
      <point x="150" y="369" type="curve" smooth="yes"/>
      <point x="125" y="369"/>
      <point x="106" y="360"/>
      <point x="89" y="346" type="curve"/>
      <point x="89" y="71" type="line" smooth="yes"/>
      <point x="89" y="32"/>
      <point x="110" y="8"/>
      <point x="145" y="8" type="curve" smooth="yes"/>
      <point x="180" y="8"/>
      <point x="201" y="32"/>
    </contour>
  </outline>
</glyph>
<glyph name="seven" format="1">
  <advance width="264"/>
  <unicode hex="0037"/>
  <outline>
    <contour>
      <point x="240" y="687" type="line"/>
      <point x="122" y="0" type="line"/>
      <point x="72" y="0" type="line"/>
      <point x="190" y="687" type="line"/>
      <point x="74" y="687" type="line"/>
      <point x="74" y="490" type="line"/>
      <point x="22" y="490" type="line"/>
      <point x="22" y="700" type="line"/>
      <point x="240" y="700" type="line"/>
    </contour>
  </outline>
</glyph>
<glyph name="eight" format="1">
  <advance width="295"/>
  <unicode hex="0038"/>
  <outline>
    <contour>
      <point x="258" y="101" type="line" smooth="yes"/>
      <point x="258" y="34"/>
      <point x="207" y="-5"/>
      <point x="148" y="-5" type="curve" smooth="yes"/>
      <point x="89" y="-5"/>
      <point x="37" y="34"/>
      <point x="37" y="101" type="curve" smooth="yes"/>
      <point x="37" y="269" type="line" smooth="yes"/>
      <point x="37" y="324"/>
      <point x="70" y="358"/>
      <point x="110" y="370" type="curve"/>
      <point x="70" y="382"/>
      <point x="37" y="416"/>
      <point x="37" y="471" type="curve" smooth="yes"/>
      <point x="37" y="599" type="line" smooth="yes"/>
      <point x="37" y="666"/>
      <point x="89" y="705"/>
      <point x="148" y="705" type="curve" smooth="yes"/>
      <point x="207" y="705"/>
      <point x="258" y="666"/>
      <point x="258" y="599" type="curve" smooth="yes"/>
      <point x="258" y="471" type="line" smooth="yes"/>
      <point x="258" y="416"/>
      <point x="226" y="382"/>
      <point x="185" y="370" type="curve"/>
      <point x="226" y="358"/>
      <point x="258" y="324"/>
      <point x="258" y="269" type="curve" smooth="yes"/>
    </contour>
    <contour>
      <point x="206" y="442" type="curve" smooth="yes"/>
      <point x="206" y="627" type="line" smooth="yes"/>
      <point x="206" y="666"/>
      <point x="183" y="692"/>
      <point x="148" y="692" type="curve" smooth="yes"/>
      <point x="113" y="692"/>
      <point x="89" y="666"/>
      <point x="89" y="627" type="curve" smooth="yes"/>
      <point x="89" y="442" type="line" smooth="yes"/>
      <point x="89" y="403"/>
      <point x="113" y="377"/>
      <point x="148" y="377" type="curve" smooth="yes"/>
      <point x="183" y="377"/>
      <point x="206" y="403"/>
    </contour>
    <contour>
      <point x="206" y="73" type="curve" smooth="yes"/>
      <point x="206" y="298" type="line" smooth="yes"/>
      <point x="206" y="337"/>
      <point x="183" y="363"/>
      <point x="148" y="363" type="curve" smooth="yes"/>
      <point x="113" y="363"/>
      <point x="89" y="337"/>
      <point x="89" y="298" type="curve" smooth="yes"/>
      <point x="89" y="73" type="line" smooth="yes"/>
      <point x="89" y="34"/>
      <point x="113" y="8"/>
      <point x="148" y="8" type="curve" smooth="yes"/>
      <point x="183" y="8"/>
      <point x="206" y="34"/>
    </contour>
  </outline>
</glyph>
<glyph name="nine" format="1">
  <advance width="289"/>
  <unicode hex="0039"/>
  <outline>
    <contour>
      <point x="252" y="99" type="line" smooth="yes"/>
      <point x="252" y="33"/>
      <point x="204" y="-5"/>
      <point x="144" y="-5" type="curve" smooth="yes"/>
      <point x="85" y="-5"/>
      <point x="36" y="33"/>
      <point x="36" y="99" type="curve" smooth="yes"/>
      <point x="36" y="210" type="line"/>
      <point x="88" y="210" type="line"/>
      <point x="88" y="71" type="line" smooth="yes"/>
      <point x="88" y="32"/>
      <point x="109" y="8"/>
      <point x="144" y="8" type="curve" smooth="yes"/>
      <point x="179" y="8"/>
      <point x="200" y="32"/>
      <point x="200" y="71" type="curve" smooth="yes"/>
      <point x="200" y="339" type="line"/>
      <point x="184" y="326"/>
      <point x="159" y="316"/>
      <point x="127" y="316" type="curve" smooth="yes"/>
      <point x="72" y="316"/>
      <point x="36" y="346"/>
      <point x="36" y="404" type="curve" smooth="yes"/>
      <point x="36" y="601" type="line" smooth="yes"/>
      <point x="36" y="667"/>
      <point x="85" y="705"/>
      <point x="144" y="705" type="curve" smooth="yes"/>
      <point x="204" y="705"/>
      <point x="252" y="667"/>
      <point x="252" y="601" type="curve" smooth="yes"/>
    </contour>
    <contour>
      <point x="200" y="354" type="curve"/>
      <point x="200" y="629" type="line" smooth="yes"/>
      <point x="200" y="668"/>
      <point x="179" y="692"/>
      <point x="144" y="692" type="curve" smooth="yes"/>
      <point x="109" y="692"/>
      <point x="88" y="668"/>
      <point x="88" y="629" type="curve" smooth="yes"/>
      <point x="88" y="386" type="line" smooth="yes"/>
      <point x="88" y="352"/>
      <point x="108" y="331"/>
      <point x="139" y="331" type="curve" smooth="yes"/>
      <point x="164" y="331"/>
      <point x="183" y="340"/>
    </contour>
  </outline>
</glyph>
<glyph name="colon" format="1">
  <advance width="117"/>
  <unicode hex="003A"/>
  <outline>
    <contour>
      <point x="84" y="279" type="line"/>
      <point x="33" y="279" type="line"/>
      <point x="33" y="379" type="line"/>
      <point x="84" y="379" type="line"/>
    </contour>
    <contour>
      <point x="84" y="0" type="line"/>
      <point x="33" y="0" type="line"/>
      <point x="33" y="100" type="line"/>
      <point x="84" y="100" type="line"/>
    </contour>
  </outline>
</glyph>
<glyph name="semicolon" format="1">
  <advance width="117"/>
  <unicode hex="003B"/>
  <outline>
    <contour>
      <point x="84" y="279" type="line"/>
      <point x="33" y="279" type="line"/>
      <point x="33" y="379" type="line"/>
      <point x="84" y="379" type="line"/>
    </contour>
    <contour>
      <point x="85" y="82" type="line"/>
      <point x="42" y="-55" type="line"/>
      <point x="21" y="-55" type="line"/>
      <point x="34" y="100" type="line"/>
      <point x="85" y="100" type="line"/>
    </contour>
  </outline>
</glyph>
<glyph name="less" format="1">
  <advance width="258"/>
  <unicode hex="003C"/>
  <outline>
    <contour>
      <point x="214" y="275" type="line"/>
      <point x="30" y="363" type="line"/>
      <point x="30" y="377" type="line"/>
      <point x="214" y="465" type="line"/>
      <point x="214" y="445" type="line"/>
      <point x="54" y="370" type="line"/>
      <point x="214" y="295" type="line"/>
    </contour>
  </outline>
</glyph>
<glyph name="equal" format="1">
  <advance width="270"/>
  <unicode hex="003D"/>
  <outline>
    <contour>
      <point x="233" y="408" type="line"/>
      <point x="37" y="408" type="line"/>
      <point x="37" y="425" type="line"/>
      <point x="233" y="425" type="line"/>
    </contour>
    <contour>
      <point x="233" y="315" type="line"/>
      <point x="37" y="315" type="line"/>
      <point x="37" y="332" type="line"/>
      <point x="233" y="332" type="line"/>
    </contour>
  </outline>
</glyph>
<glyph name="greater" format="1">
  <advance width="258"/>
  <unicode hex="003E"/>
  <outline>
    <contour>
      <point x="228" y="363" type="line"/>
      <point x="44" y="275" type="line"/>
      <point x="44" y="295" type="line"/>
      <point x="205" y="370" type="line"/>
      <point x="44" y="445" type="line"/>
      <point x="44" y="465" type="line"/>
      <point x="228" y="377" type="line"/>
    </contour>
  </outline>
</glyph>
<glyph name="question" format="1">
  <advance width="262"/>
  <unicode hex="003F"/>
  <outline>
    <contour>
      <point x="230" y="504" type="line" smooth="yes"/>
      <point x="230" y="462"/>
      <point x="222" y="431"/>
      <point x="202" y="401" type="curve" smooth="yes"/>
      <point x="177" y="364" type="line" smooth="yes"/>
      <point x="154" y="330"/>
      <point x="150" y="312"/>
      <point x="147" y="263" type="curve" smooth="yes"/>
      <point x="139" y="138" type="line"/>
      <point x="120" y="138" type="line"/>
      <point x="112" y="271" type="line" smooth="yes"/>
      <point x="111" y="293"/>
      <point x="110" y="311"/>
      <point x="110" y="322" type="curve" smooth="yes"/>
      <point x="110" y="342"/>
      <point x="112" y="357"/>
      <point x="126" y="377" type="curve" smooth="yes"/>
      <point x="152" y="416" type="line" smooth="yes"/>
      <point x="173" y="448"/>
      <point x="178" y="469"/>
      <point x="178" y="512" type="curve" smooth="yes"/>
      <point x="178" y="629" type="line" smooth="yes"/>
      <point x="178" y="668"/>
      <point x="161" y="692"/>
      <point x="129" y="692" type="curve" smooth="yes"/>
      <point x="97" y="692"/>
      <point x="79" y="668"/>
      <point x="79" y="629" type="curve" smooth="yes"/>
      <point x="79" y="490" type="line"/>
      <point x="27" y="490" type="line"/>
      <point x="27" y="601" type="line" smooth="yes"/>
      <point x="27" y="667"/>
      <point x="71" y="705"/>
      <point x="129" y="705" type="curve" smooth="yes"/>
      <point x="186" y="705"/>
      <point x="230" y="667"/>
      <point x="230" y="601" type="curve" smooth="yes"/>
    </contour>
    <contour>
      <point x="155" y="0" type="line"/>
      <point x="104" y="0" type="line"/>
      <point x="104" y="100" type="line"/>
      <point x="155" y="100" type="line"/>
    </contour>
  </outline>
</glyph>
<glyph name="B" format="1">
  <advance width="291"/>
  <unicode hex="0042"/>
  <outline>
    <contour>
      <point x="256" y="106" type="line" smooth="yes"/>
      <point x="256" y="39"/>
      <point x="205" y="0"/>
      <point x="146" y="0" type="curve" smooth="yes"/>
      <point x="22" y="0" type="line"/>
      <point x="22" y="13" type="line"/>
      <point x="47" y="13" type="line"/>
      <point x="47" y="687" type="line"/>
      <point x="22" y="687" type="line"/>
      <point x="22" y="700" type="line"/>
      <point x="146" y="700" type="line" smooth="yes"/>
      <point x="205" y="700"/>
      <point x="256" y="661"/>
      <point x="256" y="594" type="curve" smooth="yes"/>
      <point x="256" y="469" type="line" smooth="yes"/>
      <point x="256" y="414"/>
      <point x="224" y="382"/>
      <point x="183" y="370" type="curve"/>
      <point x="224" y="358"/>
      <point x="256" y="326"/>
      <point x="256" y="271" type="curve" smooth="yes"/>
    </contour>
    <contour>
      <point x="204" y="441" type="curve" smooth="yes"/>
      <point x="204" y="622" type="line" smooth="yes"/>
      <point x="204" y="661"/>
      <point x="181" y="687"/>
      <point x="146" y="687" type="curve" smooth="yes"/>
      <point x="99" y="687" type="line"/>
      <point x="99" y="376" type="line"/>
      <point x="146" y="376" type="line" smooth="yes"/>
      <point x="181" y="376"/>
      <point x="204" y="402"/>
    </contour>
    <contour>
      <point x="204" y="78" type="curve" smooth="yes"/>
      <point x="204" y="298" type="line" smooth="yes"/>
      <point x="204" y="337"/>
      <point x="181" y="363"/>
      <point x="146" y="363" type="curve" smooth="yes"/>
      <point x="99" y="363" type="line"/>
      <point x="99" y="13" type="line"/>
      <point x="146" y="13" type="line" smooth="yes"/>
      <point x="181" y="13"/>
      <point x="204" y="39"/>
    </contour>
  </outline>
</glyph>
<glyph name="C" format="1">
  <advance width="286"/>
  <unicode hex="0043"/>
  <outline>
    <contour>
      <point x="253" y="99" type="line" smooth="yes"/>
      <point x="253" y="33"/>
      <point x="205" y="-5"/>
      <point x="145" y="-5" type="curve" smooth="yes"/>
      <point x="85" y="-5"/>
      <point x="37" y="33"/>
      <point x="37" y="99" type="curve" smooth="yes"/>
      <point x="37" y="601" type="line" smooth="yes"/>
      <point x="37" y="667"/>
      <point x="85" y="705"/>
      <point x="145" y="705" type="curve" smooth="yes"/>
      <point x="205" y="705"/>
      <point x="253" y="667"/>
      <point x="253" y="601" type="curve" smooth="yes"/>
      <point x="253" y="490" type="line"/>
      <point x="201" y="490" type="line"/>
      <point x="201" y="629" type="line" smooth="yes"/>
      <point x="201" y="668"/>
      <point x="180" y="692"/>
      <point x="145" y="692" type="curve" smooth="yes"/>
      <point x="110" y="692"/>
      <point x="89" y="668"/>
      <point x="89" y="629" type="curve" smooth="yes"/>
      <point x="89" y="71" type="line" smooth="yes"/>
      <point x="89" y="32"/>
      <point x="110" y="8"/>
      <point x="145" y="8" type="curve" smooth="yes"/>
      <point x="180" y="8"/>
      <point x="201" y="32"/>
      <point x="201" y="71" type="curve" smooth="yes"/>
      <point x="201" y="210" type="line"/>
      <point x="253" y="210" type="line"/>
    </contour>
  </outline>
</glyph>
<glyph name="G" format="1">
  <advance width="292"/>
  <unicode hex="0047"/>
  <outline>
    <contour>
      <point x="255" y="99" type="line" smooth="yes"/>
      <point x="255" y="33"/>
      <point x="205" y="-5"/>
      <point x="146" y="-5" type="curve" smooth="yes"/>
      <point x="86" y="-5"/>
      <point x="37" y="33"/>
      <point x="37" y="99" type="curve" smooth="yes"/>
      <point x="37" y="601" type="line" smooth="yes"/>
      <point x="37" y="667"/>
      <point x="86" y="705"/>
      <point x="146" y="705" type="curve" smooth="yes"/>
      <point x="205" y="705"/>
      <point x="255" y="667"/>
      <point x="255" y="601" type="curve" smooth="yes"/>
      <point x="255" y="490" type="line"/>
      <point x="203" y="490" type="line"/>
      <point x="203" y="629" type="line" smooth="yes"/>
      <point x="203" y="668"/>
      <point x="181" y="692"/>
      <point x="146" y="692" type="curve" smooth="yes"/>
      <point x="111" y="692"/>
      <point x="89" y="668"/>
      <point x="89" y="629" type="curve" smooth="yes"/>
      <point x="89" y="71" type="line" smooth="yes"/>
      <point x="89" y="32"/>
      <point x="111" y="8"/>
      <point x="146" y="8" type="curve" smooth="yes"/>
      <point x="181" y="8"/>
      <point x="203" y="32"/>
      <point x="203" y="71" type="curve" smooth="yes"/>
      <point x="203" y="363" type="line"/>
      <point x="146" y="363" type="line"/>
      <point x="146" y="377" type="line"/>
      <point x="255" y="377" type="line"/>
    </contour>
  </outline>
</glyph>
<glyph name="J" format="1">
  <advance width="265"/>
  <unicode hex="004A"/>
  <outline>
    <contour>
      <point x="247" y="687" type="line"/>
      <point x="222" y="687" type="line"/>
      <point x="222" y="91" type="line" smooth="yes"/>
      <point x="222" y="31"/>
      <point x="180" y="-5"/>
      <point x="123" y="-5" type="curve" smooth="yes"/>
      <point x="66" y="-5"/>
      <point x="24" y="31"/>
      <point x="24" y="91" type="curve" smooth="yes"/>
      <point x="24" y="210" type="line"/>
      <point x="76" y="210" type="line"/>
      <point x="76" y="65" type="line" smooth="yes"/>
      <point x="76" y="31"/>
      <point x="92" y="8"/>
      <point x="123" y="8" type="curve" smooth="yes"/>
      <point x="154" y="8"/>
      <point x="170" y="31"/>
      <point x="170" y="65" type="curve" smooth="yes"/>
      <point x="170" y="687" type="line"/>
      <point x="145" y="687" type="line"/>
      <point x="145" y="700" type="line"/>
      <point x="247" y="700" type="line"/>
    </contour>
  </outline>
</glyph>
<glyph name="K" format="1">
  <advance width="290"/>
  <unicode hex="004B"/>
  <outline>
    <contour>
      <point x="281" y="0" type="line"/>
      <point x="206" y="0" type="line"/>
      <point x="99" y="350" type="line"/>
      <point x="99" y="13" type="line"/>
      <point x="124" y="13" type="line"/>
      <point x="124" y="0" type="line"/>
      <point x="22" y="0" type="line"/>
      <point x="22" y="13" type="line"/>
      <point x="47" y="13" type="line"/>
      <point x="47" y="687" type="line"/>
      <point x="22" y="687" type="line"/>
      <point x="22" y="700" type="line"/>
      <point x="124" y="700" type="line"/>
      <point x="124" y="687" type="line"/>
      <point x="99" y="687" type="line"/>
      <point x="99" y="372" type="line"/>
      <point x="223" y="687" type="line"/>
      <point x="197" y="687" type="line"/>
      <point x="197" y="700" type="line"/>
      <point x="268" y="700" type="line"/>
      <point x="268" y="687" type="line"/>
      <point x="243" y="687" type="line"/>
      <point x="134" y="412" type="line"/>
      <point x="256" y="13" type="line"/>
      <point x="281" y="13" type="line"/>
    </contour>
  </outline>
</glyph>
<glyph name="M" format="1">
  <advance width="364"/>
  <unicode hex="004D"/>
  <outline>
    <contour>
      <point x="342" y="0" type="line"/>
      <point x="242" y="0" type="line"/>
      <point x="242" y="13" type="line"/>
      <point x="267" y="13" type="line"/>
      <point x="267" y="578" type="line"/>
      <point x="188" y="0" type="line"/>
      <point x="151" y="0" type="line"/>
      <point x="67" y="578" type="line"/>
      <point x="67" y="13" type="line"/>
      <point x="92" y="13" type="line"/>
      <point x="92" y="0" type="line"/>
      <point x="22" y="0" type="line"/>
      <point x="22" y="13" type="line"/>
      <point x="47" y="13" type="line"/>
      <point x="47" y="687" type="line"/>
      <point x="22" y="687" type="line"/>
      <point x="22" y="700" type="line"/>
      <point x="103" y="700" type="line"/>
      <point x="185" y="108" type="line"/>
      <point x="265" y="700" type="line"/>
      <point x="342" y="700" type="line"/>
      <point x="342" y="687" type="line"/>
      <point x="317" y="687" type="line"/>
      <point x="317" y="13" type="line"/>
      <point x="342" y="13" type="line"/>
    </contour>
  </outline>
</glyph>
<glyph name="P" format="1">
  <advance width="281"/>
  <unicode hex="0050"/>
  <outline>
    <contour>
      <point x="254" y="408" type="line" smooth="yes"/>
      <point x="254" y="341"/>
      <point x="203" y="302"/>
      <point x="144" y="302" type="curve" smooth="yes"/>
      <point x="99" y="302" type="line"/>
      <point x="99" y="13" type="line"/>
      <point x="124" y="13" type="line"/>
      <point x="124" y="0" type="line"/>
      <point x="22" y="0" type="line"/>
      <point x="22" y="13" type="line"/>
      <point x="47" y="13" type="line"/>
      <point x="47" y="687" type="line"/>
      <point x="22" y="687" type="line"/>
      <point x="22" y="700" type="line"/>
      <point x="144" y="700" type="line" smooth="yes"/>
      <point x="203" y="700"/>
      <point x="254" y="661"/>
      <point x="254" y="594" type="curve" smooth="yes"/>
    </contour>
    <contour>
      <point x="202" y="380" type="curve" smooth="yes"/>
      <point x="202" y="622" type="line" smooth="yes"/>
      <point x="202" y="661"/>
      <point x="179" y="687"/>
      <point x="144" y="687" type="curve" smooth="yes"/>
      <point x="99" y="687" type="line"/>
      <point x="99" y="315" type="line"/>
      <point x="144" y="315" type="line" smooth="yes"/>
      <point x="179" y="315"/>
      <point x="202" y="341"/>
    </contour>
  </outline>
</glyph>
<glyph name="Q" format="1">
  <advance width="295"/>
  <unicode hex="0051"/>
  <outline>
    <contour>
      <point x="258" y="101" type="line" smooth="yes"/>
      <point x="258" y="37"/>
      <point x="212" y="-1"/>
      <point x="155" y="-5" type="curve"/>
      <point x="155" y="-90" type="line"/>
      <point x="140" y="-90" type="line"/>
      <point x="140" y="-5" type="line"/>
      <point x="84" y="-1"/>
      <point x="37" y="37"/>
      <point x="37" y="101" type="curve" smooth="yes"/>
      <point x="37" y="599" type="line" smooth="yes"/>
      <point x="37" y="666"/>
      <point x="89" y="705"/>
      <point x="148" y="705" type="curve" smooth="yes"/>
      <point x="207" y="705"/>
      <point x="258" y="666"/>
      <point x="258" y="599" type="curve" smooth="yes"/>
    </contour>
    <contour>
      <point x="206" y="73" type="curve" smooth="yes"/>
      <point x="206" y="627" type="line" smooth="yes"/>
      <point x="206" y="666"/>
      <point x="183" y="692"/>
      <point x="148" y="692" type="curve" smooth="yes"/>
      <point x="113" y="692"/>
      <point x="89" y="666"/>
      <point x="89" y="627" type="curve" smooth="yes"/>
      <point x="89" y="73" type="line" smooth="yes"/>
      <point x="89" y="36"/>
      <point x="109" y="13"/>
      <point x="140" y="9" type="curve"/>
      <point x="140" y="115" type="line"/>
      <point x="155" y="115" type="line"/>
      <point x="155" y="9" type="line"/>
      <point x="186" y="13"/>
      <point x="206" y="36"/>
    </contour>
  </outline>
</glyph>
<glyph name="R" format="1">
  <advance width="297"/>
  <unicode hex="0052"/>
  <outline>
    <contour>
      <point x="279" y="0" type="line"/>
      <point x="257" y="0" type="line" smooth="yes"/>
      <point x="221" y="0"/>
      <point x="202" y="17"/>
      <point x="202" y="57" type="curve" smooth="yes"/>
      <point x="202" y="298" type="line" smooth="yes"/>
      <point x="202" y="337"/>
      <point x="179" y="363"/>
      <point x="144" y="363" type="curve" smooth="yes"/>
      <point x="99" y="363" type="line"/>
      <point x="99" y="13" type="line"/>
      <point x="124" y="13" type="line"/>
      <point x="124" y="0" type="line"/>
      <point x="22" y="0" type="line"/>
      <point x="22" y="13" type="line"/>
      <point x="47" y="13" type="line"/>
      <point x="47" y="687" type="line"/>
      <point x="22" y="687" type="line"/>
      <point x="22" y="700" type="line"/>
      <point x="144" y="700" type="line" smooth="yes"/>
      <point x="203" y="700"/>
      <point x="254" y="661"/>
      <point x="254" y="594" type="curve" smooth="yes"/>
      <point x="254" y="469" type="line" smooth="yes"/>
      <point x="254" y="414"/>
      <point x="222" y="382"/>
      <point x="181" y="370" type="curve"/>
      <point x="222" y="358"/>
      <point x="254" y="326"/>
      <point x="254" y="271" type="curve" smooth="yes"/>
      <point x="254" y="43" type="line" smooth="yes"/>
      <point x="254" y="23"/>
      <point x="261" y="13"/>
      <point x="277" y="13" type="curve" smooth="yes"/>
      <point x="279" y="13" type="line"/>
    </contour>
    <contour>
      <point x="202" y="441" type="curve" smooth="yes"/>
      <point x="202" y="622" type="line" smooth="yes"/>
      <point x="202" y="661"/>
      <point x="179" y="687"/>
      <point x="144" y="687" type="curve" smooth="yes"/>
      <point x="99" y="687" type="line"/>
      <point x="99" y="376" type="line"/>
      <point x="144" y="376" type="line" smooth="yes"/>
      <point x="179" y="376"/>
      <point x="202" y="402"/>
    </contour>
  </outline>
</glyph>
<glyph name="S" format="1">
  <advance width="275"/>
  <unicode hex="0053"/>
  <outline>
    <contour>
      <point x="241" y="99" type="line" smooth="yes"/>
      <point x="241" y="33"/>
      <point x="197" y="-5"/>
      <point x="138" y="-5" type="curve" smooth="yes"/>
      <point x="78" y="-5"/>
      <point x="34" y="33"/>
      <point x="34" y="99" type="curve" smooth="yes"/>
      <point x="34" y="210" type="line"/>
      <point x="86" y="210" type="line"/>
      <point x="86" y="71" type="line" smooth="yes"/>
      <point x="86" y="32"/>
      <point x="103" y="8"/>
      <point x="138" y="8" type="curve" smooth="yes"/>
      <point x="172" y="8"/>
      <point x="189" y="32"/>
      <point x="189" y="71" type="curve" smooth="yes"/>
      <point x="189" y="174" type="line" smooth="yes"/>
      <point x="189" y="217"/>
      <point x="179" y="244"/>
      <point x="158" y="275" type="curve" smooth="yes"/>
      <point x="66" y="412" type="line" smooth="yes"/>
      <point x="45" y="444"/>
      <point x="34" y="477"/>
      <point x="34" y="520" type="curve" smooth="yes"/>
      <point x="34" y="601" type="line" smooth="yes"/>
      <point x="34" y="667"/>
      <point x="78" y="705"/>
      <point x="138" y="705" type="curve" smooth="yes"/>
      <point x="197" y="705"/>
      <point x="241" y="667"/>
      <point x="241" y="601" type="curve" smooth="yes"/>
      <point x="241" y="490" type="line"/>
      <point x="189" y="490" type="line"/>
      <point x="189" y="629" type="line" smooth="yes"/>
      <point x="189" y="668"/>
      <point x="172" y="692"/>
      <point x="138" y="692" type="curve" smooth="yes"/>
      <point x="103" y="692"/>
      <point x="86" y="668"/>
      <point x="86" y="629" type="curve" smooth="yes"/>
      <point x="86" y="530" type="line" smooth="yes"/>
      <point x="86" y="488"/>
      <point x="96" y="461"/>
      <point x="117" y="429" type="curve" smooth="yes"/>
      <point x="209" y="292" type="line" smooth="yes"/>
      <point x="230" y="260"/>
      <point x="241" y="227"/>
      <point x="241" y="185" type="curve" smooth="yes"/>
    </contour>
  </outline>
</glyph>
<glyph name="T" format="1">
  <advance width="310"/>
  <unicode hex="0054"/>
  <outline>
    <contour>
      <point x="287" y="490" type="line"/>
      <point x="237" y="490" type="line"/>
      <point x="237" y="687" type="line"/>
      <point x="181" y="687" type="line"/>
      <point x="181" y="13" type="line"/>
      <point x="206" y="13" type="line"/>
      <point x="206" y="0" type="line"/>
      <point x="104" y="0" type="line"/>
      <point x="104" y="13" type="line"/>
      <point x="129" y="13" type="line"/>
      <point x="129" y="687" type="line"/>
      <point x="73" y="687" type="line"/>
      <point x="73" y="490" type="line"/>
      <point x="23" y="490" type="line"/>
      <point x="23" y="700" type="line"/>
      <point x="287" y="700" type="line"/>
    </contour>
  </outline>
</glyph>
<glyph name="U" format="1">
  <advance width="304"/>
  <unicode hex="0055"/>
  <outline>
    <contour>
      <point x="286" y="687" type="line"/>
      <point x="261" y="687" type="line"/>
      <point x="261" y="101" type="line" smooth="yes"/>
      <point x="261" y="34"/>
      <point x="213" y="-5"/>
      <point x="153" y="-5" type="curve" smooth="yes"/>
      <point x="89" y="-5"/>
      <point x="43" y="34"/>
      <point x="43" y="101" type="curve" smooth="yes"/>
      <point x="43" y="687" type="line"/>
      <point x="18" y="687" type="line"/>
      <point x="18" y="700" type="line"/>
      <point x="120" y="700" type="line"/>
      <point x="120" y="687" type="line"/>
      <point x="95" y="687" type="line"/>
      <point x="95" y="73" type="line" smooth="yes"/>
      <point x="95" y="34"/>
      <point x="114" y="8"/>
      <point x="153" y="8" type="curve" smooth="yes"/>
      <point x="189" y="8"/>
      <point x="209" y="34"/>
      <point x="209" y="73" type="curve" smooth="yes"/>
      <point x="209" y="687" type="line"/>
      <point x="184" y="687" type="line"/>
      <point x="184" y="700" type="line"/>
      <point x="286" y="700" type="line"/>
    </contour>
  </outline>
</glyph>
<glyph name="V" format="1">
  <advance width="275"/>
  <unicode hex="0056"/>
  <outline>
    <contour>
      <point x="265" y="687" type="line"/>
      <point x="240" y="687" type="line"/>
      <point x="161" y="-1" type="line"/>
      <point x="112" y="-1" type="line"/>
      <point x="35" y="687" type="line"/>
      <point x="10" y="687" type="line"/>
      <point x="10" y="700" type="line"/>
      <point x="113" y="700" type="line"/>
      <point x="113" y="687" type="line"/>
      <point x="88" y="687" type="line"/>
      <point x="153" y="67" type="line"/>
      <point x="220" y="687" type="line"/>
      <point x="195" y="687" type="line"/>
      <point x="195" y="700" type="line"/>
      <point x="265" y="700" type="line"/>
    </contour>
  </outline>
</glyph>
<glyph name="Z" format="1">
  <advance width="272"/>
  <unicode hex="005A"/>
  <outline>
    <contour>
      <point x="247" y="687" type="line"/>
      <point x="76" y="13" type="line"/>
      <point x="191" y="13" type="line"/>
      <point x="191" y="210" type="line"/>
      <point x="241" y="210" type="line"/>
      <point x="241" y="0" type="line"/>
      <point x="25" y="0" type="line"/>
      <point x="25" y="13" type="line"/>
      <point x="195" y="687" type="line"/>
      <point x="81" y="687" type="line"/>
      <point x="81" y="490" type="line"/>
      <point x="31" y="490" type="line"/>
      <point x="31" y="700" type="line"/>
      <point x="247" y="700" type="line"/>
    </contour>
  </outline>
</glyph>
<glyph name="bracketright" format="1">
  <advance width="174"/>
  <unicode hex="005D"/>
  <outline>
    <contour>
      <point x="131" y="0" type="line"/>
      <point x="21" y="0" type="line"/>
      <point x="21" y="13" type="line"/>
      <point x="80" y="13" type="line"/>
      <point x="80" y="687" type="line"/>
      <point x="21" y="687" type="line"/>
      <point x="21" y="700" type="line"/>
      <point x="131" y="700" type="line"/>
    </contour>
  </outline>
</glyph>
<glyph name="underscore" format="1">
  <advance width="250"/>
  <unicode hex="005F"/>
  <outline>
    <contour>
      <point x="250" y="-90" type="line"/>
      <point x="0" y="-90" type="line"/>
      <point x="0" y="-74" type="line"/>
      <point x="250" y="-74" type="line"/>
    </contour>
  </outline>
</glyph>
<glyph name="grave" format="1">
  <advance width="300"/>
  <unicode hex="0060"/>
  <outline>
    <contour>
      <point x="191" y="550" type="line"/>
      <point x="175" y="550" type="line"/>
      <point x="88" y="670" type="line"/>
      <point x="88" y="677" type="line"/>
      <point x="144" y="677" type="line"/>
    </contour>
  </outline>
</glyph>
<glyph name="a" format="1">
  <advance width="254"/>
  <unicode hex="0061"/>
  <outline>
    <contour>
      <point x="243" y="0" type="line"/>
      <point x="168" y="0" type="line"/>
      <point x="168" y="16" type="line"/>
      <point x="152" y="3"/>
      <point x="129" y="-5"/>
      <point x="103" y="-5" type="curve" smooth="yes"/>
      <point x="51" y="-5"/>
      <point x="28" y="23"/>
      <point x="28" y="78" type="curve" smooth="yes"/>
      <point x="28" y="205" type="line" smooth="yes"/>
      <point x="28" y="268"/>
      <point x="67" y="297"/>
      <point x="129" y="297" type="curve" smooth="yes"/>
      <point x="168" y="297" type="line"/>
      <point x="168" y="457" type="line" smooth="yes"/>
      <point x="168" y="489"/>
      <point x="155" y="512"/>
      <point x="125" y="512" type="curve" smooth="yes"/>
      <point x="94" y="512"/>
      <point x="81" y="489"/>
      <point x="81" y="457" type="curve" smooth="yes"/>
      <point x="81" y="361" type="line"/>
      <point x="31" y="361" type="line"/>
      <point x="31" y="429" type="line" smooth="yes"/>
      <point x="31" y="486"/>
      <point x="63" y="525"/>
      <point x="125" y="525" type="curve" smooth="yes"/>
      <point x="186" y="525"/>
      <point x="218" y="486"/>
      <point x="218" y="429" type="curve" smooth="yes"/>
      <point x="218" y="13" type="line"/>
      <point x="243" y="13" type="line"/>
    </contour>
    <contour>
      <point x="168" y="32" type="curve"/>
      <point x="168" y="283" type="line"/>
      <point x="127" y="283" type="line" smooth="yes"/>
      <point x="95" y="283"/>
      <point x="78" y="263"/>
      <point x="78" y="228" type="curve" smooth="yes"/>
      <point x="78" y="60" type="line" smooth="yes"/>
      <point x="78" y="29"/>
      <point x="89" y="10"/>
      <point x="117" y="10" type="curve" smooth="yes"/>
      <point x="135" y="10"/>
      <point x="152" y="19"/>
    </contour>
  </outline>
</glyph>
<glyph name="d" format="1">
  <advance width="264"/>
  <unicode hex="0064"/>
  <outline>
    <contour>
      <point x="250" y="0" type="line"/>
      <point x="175" y="0" type="line"/>
      <point x="175" y="16" type="line"/>
      <point x="158" y="3"/>
      <point x="136" y="-5"/>
      <point x="108" y="-5" type="curve" smooth="yes"/>
      <point x="56" y="-5"/>
      <point x="32" y="23"/>
      <point x="32" y="78" type="curve" smooth="yes"/>
      <point x="32" y="442" type="line" smooth="yes"/>
      <point x="32" y="497"/>
      <point x="56" y="525"/>
      <point x="108" y="525" type="curve" smooth="yes"/>
      <point x="136" y="525"/>
      <point x="158" y="517"/>
      <point x="175" y="504" type="curve"/>
      <point x="175" y="687" type="line"/>
      <point x="150" y="687" type="line"/>
      <point x="150" y="700" type="line"/>
      <point x="225" y="700" type="line"/>
      <point x="225" y="13" type="line"/>
      <point x="250" y="13" type="line"/>
    </contour>
    <contour>
      <point x="175" y="32" type="curve"/>
      <point x="175" y="488" type="line"/>
      <point x="159" y="501"/>
      <point x="141" y="510"/>
      <point x="122" y="510" type="curve" smooth="yes"/>
      <point x="94" y="510"/>
      <point x="82" y="491"/>
      <point x="82" y="460" type="curve" smooth="yes"/>
      <point x="82" y="60" type="line" smooth="yes"/>
      <point x="82" y="29"/>
      <point x="94" y="10"/>
      <point x="122" y="10" type="curve" smooth="yes"/>
      <point x="141" y="10"/>
      <point x="159" y="19"/>
    </contour>
  </outline>
</glyph>
<glyph name="f" format="1">
  <advance width="150"/>
  <unicode hex="0066"/>
  <outline>
    <contour>
      <point x="152" y="687" type="line"/>
      <point x="135" y="687" type="line" smooth="yes"/>
      <point x="108" y="687"/>
      <point x="94" y="667"/>
      <point x="94" y="641" type="curve" smooth="yes"/>
      <point x="94" y="520" type="line"/>
      <point x="134" y="520" type="line"/>
      <point x="134" y="507" type="line"/>
      <point x="94" y="507" type="line"/>
      <point x="94" y="13" type="line"/>
      <point x="119" y="13" type="line"/>
      <point x="119" y="0" type="line"/>
      <point x="19" y="0" type="line"/>
      <point x="19" y="13" type="line"/>
      <point x="44" y="13" type="line"/>
      <point x="44" y="507" type="line"/>
      <point x="19" y="507" type="line"/>
      <point x="19" y="520" type="line"/>
      <point x="44" y="520" type="line"/>
      <point x="44" y="617" type="line" smooth="yes"/>
      <point x="44" y="665"/>
      <point x="77" y="700"/>
      <point x="130" y="700" type="curve" smooth="yes"/>
      <point x="152" y="700" type="line"/>
    </contour>
  </outline>
</glyph>
<glyph name="g" format="1">
  <advance width="264"/>
  <unicode hex="0067"/>
  <outline>
    <contour>
      <point x="250" y="507" type="line"/>
      <point x="225" y="507" type="line"/>
      <point x="225" y="-49" type="line" smooth="yes"/>
      <point x="225" y="-105"/>
      <point x="191" y="-145"/>
      <point x="129" y="-145" type="curve" smooth="yes"/>
      <point x="70" y="-145"/>
      <point x="32" y="-105"/>
      <point x="32" y="-49" type="curve" smooth="yes"/>
      <point x="32" y="-31" type="line"/>
      <point x="82" y="-31" type="line"/>
      <point x="82" y="-77" type="line" smooth="yes"/>
      <point x="82" y="-109"/>
      <point x="98" y="-132"/>
      <point x="129" y="-132" type="curve" smooth="yes"/>
      <point x="160" y="-132"/>
      <point x="175" y="-109"/>
      <point x="175" y="-77" type="curve" smooth="yes"/>
      <point x="175" y="26" type="line"/>
      <point x="158" y="13"/>
      <point x="136" y="5"/>
      <point x="108" y="5" type="curve" smooth="yes"/>
      <point x="56" y="5"/>
      <point x="32" y="33"/>
      <point x="32" y="88" type="curve" smooth="yes"/>
      <point x="32" y="442" type="line" smooth="yes"/>
      <point x="32" y="497"/>
      <point x="56" y="525"/>
      <point x="108" y="525" type="curve" smooth="yes"/>
      <point x="136" y="525"/>
      <point x="158" y="517"/>
      <point x="175" y="504" type="curve"/>
      <point x="175" y="520" type="line"/>
      <point x="250" y="520" type="line"/>
    </contour>
    <contour>
      <point x="175" y="42" type="curve"/>
      <point x="175" y="488" type="line"/>
      <point x="159" y="501"/>
      <point x="141" y="510"/>
      <point x="122" y="510" type="curve" smooth="yes"/>
      <point x="94" y="510"/>
      <point x="82" y="491"/>
      <point x="82" y="460" type="curve" smooth="yes"/>
      <point x="82" y="70" type="line" smooth="yes"/>
      <point x="82" y="39"/>
      <point x="94" y="20"/>
      <point x="122" y="20" type="curve" smooth="yes"/>
      <point x="141" y="20"/>
      <point x="159" y="29"/>
    </contour>
  </outline>
</glyph>
<glyph name="h" format="1">
  <advance width="268"/>
  <unicode hex="0068"/>
  <outline>
    <contour>
      <point x="257" y="0" type="line"/>
      <point x="182" y="0" type="line"/>
      <point x="182" y="460" type="line" smooth="yes"/>
      <point x="182" y="491"/>
      <point x="170" y="510"/>
      <point x="142" y="510" type="curve" smooth="yes"/>
      <point x="124" y="510"/>
      <point x="105" y="501"/>
      <point x="89" y="488" type="curve"/>
      <point x="89" y="13" type="line"/>
      <point x="114" y="13" type="line"/>
      <point x="114" y="0" type="line"/>
      <point x="14" y="0" type="line"/>
      <point x="14" y="13" type="line"/>
      <point x="39" y="13" type="line"/>
      <point x="39" y="687" type="line"/>
      <point x="14" y="687" type="line"/>
      <point x="14" y="700" type="line"/>
      <point x="89" y="700" type="line"/>
      <point x="89" y="504" type="line"/>
      <point x="106" y="517"/>
      <point x="127" y="525"/>
      <point x="156" y="525" type="curve" smooth="yes"/>
      <point x="208" y="525"/>
      <point x="232" y="497"/>
      <point x="232" y="442" type="curve" smooth="yes"/>
      <point x="232" y="13" type="line"/>
      <point x="257" y="13" type="line"/>
    </contour>
  </outline>
</glyph>
<glyph name="j" format="1">
  <advance width="132"/>
  <unicode hex="006A"/>
  <outline>
    <contour>
      <point x="92" y="600" type="line"/>
      <point x="41" y="600" type="line"/>
      <point x="41" y="700" type="line"/>
      <point x="92" y="700" type="line"/>
    </contour>
    <contour>
      <point x="92" y="-57" type="line" smooth="yes"/>
      <point x="92" y="-105"/>
      <point x="59" y="-140"/>
      <point x="6" y="-140" type="curve" smooth="yes"/>
      <point x="-16" y="-140" type="line"/>
      <point x="-16" y="-127" type="line"/>
      <point x="1" y="-127" type="line" smooth="yes"/>
      <point x="28" y="-127"/>
      <point x="42" y="-107"/>
      <point x="42" y="-81" type="curve" smooth="yes"/>
      <point x="42" y="507" type="line"/>
      <point x="17" y="507" type="line"/>
      <point x="17" y="520" type="line"/>
      <point x="92" y="520" type="line"/>
    </contour>
  </outline>
</glyph>
<glyph name="k" format="1">
  <advance width="258"/>
  <unicode hex="006B"/>
  <outline>
    <contour>
      <point x="255" y="0" type="line"/>
      <point x="180" y="0" type="line"/>
      <point x="89" y="261" type="line"/>
      <point x="89" y="13" type="line"/>
      <point x="114" y="13" type="line"/>
      <point x="114" y="0" type="line"/>
      <point x="14" y="0" type="line"/>
      <point x="14" y="13" type="line"/>
      <point x="39" y="13" type="line"/>
      <point x="39" y="687" type="line"/>
      <point x="14" y="687" type="line"/>
      <point x="14" y="700" type="line"/>
      <point x="89" y="700" type="line"/>
      <point x="89" y="276" type="line"/>
      <point x="197" y="507" type="line"/>
      <point x="173" y="507" type="line"/>
      <point x="173" y="520" type="line"/>
      <point x="239" y="520" type="line"/>
      <point x="239" y="507" type="line"/>
      <point x="216" y="507" type="line"/>
      <point x="123" y="308" type="line"/>
      <point x="228" y="13" type="line"/>
      <point x="255" y="13" type="line"/>
    </contour>
  </outline>
</glyph>
<glyph name="l" format="1">
  <advance width="134"/>
  <unicode hex="006C"/>
  <outline>
    <contour>
      <point x="117" y="0" type="line"/>
      <point x="17" y="0" type="line"/>
      <point x="17" y="13" type="line"/>
      <point x="42" y="13" type="line"/>
      <point x="42" y="687" type="line"/>
      <point x="17" y="687" type="line"/>
      <point x="17" y="700" type="line"/>
      <point x="92" y="700" type="line"/>
      <point x="92" y="13" type="line"/>
      <point x="117" y="13" type="line"/>
    </contour>
  </outline>
</glyph>
<glyph name="n" format="1">
  <advance width="270"/>
  <unicode hex="006E"/>
  <outline>
    <contour>
      <point x="259" y="0" type="line"/>
      <point x="184" y="0" type="line"/>
      <point x="184" y="460" type="line" smooth="yes"/>
      <point x="184" y="491"/>
      <point x="172" y="510"/>
      <point x="144" y="510" type="curve" smooth="yes"/>
      <point x="126" y="510"/>
      <point x="107" y="501"/>
      <point x="91" y="488" type="curve"/>
      <point x="91" y="13" type="line"/>
      <point x="116" y="13" type="line"/>
      <point x="116" y="0" type="line"/>
      <point x="16" y="0" type="line"/>
      <point x="16" y="13" type="line"/>
      <point x="41" y="13" type="line"/>
      <point x="41" y="507" type="line"/>
      <point x="16" y="507" type="line"/>
      <point x="16" y="520" type="line"/>
      <point x="91" y="520" type="line"/>
      <point x="91" y="504" type="line"/>
      <point x="108" y="517"/>
      <point x="129" y="525"/>
      <point x="158" y="525" type="curve" smooth="yes"/>
      <point x="210" y="525"/>
      <point x="234" y="497"/>
      <point x="234" y="442" type="curve" smooth="yes"/>
      <point x="234" y="13" type="line"/>
      <point x="259" y="13" type="line"/>
    </contour>
  </outline>
</glyph>
<glyph name="o" format="1">
  <advance width="260"/>
  <unicode hex="006F"/>
  <outline>
    <contour>
      <point x="229" y="91" type="line" smooth="yes"/>
      <point x="229" y="35"/>
      <point x="192" y="-5"/>
      <point x="130" y="-5" type="curve" smooth="yes"/>
      <point x="68" y="-5"/>
      <point x="31" y="35"/>
      <point x="31" y="91" type="curve" smooth="yes"/>
      <point x="31" y="429" type="line" smooth="yes"/>
      <point x="31" y="485"/>
      <point x="68" y="525"/>
      <point x="130" y="525" type="curve" smooth="yes"/>
      <point x="192" y="525"/>
      <point x="229" y="485"/>
      <point x="229" y="429" type="curve" smooth="yes"/>
    </contour>
    <contour>
      <point x="179" y="63" type="curve" smooth="yes"/>
      <point x="179" y="457" type="line" smooth="yes"/>
      <point x="179" y="489"/>
      <point x="162" y="512"/>
      <point x="130" y="512" type="curve" smooth="yes"/>
      <point x="98" y="512"/>
      <point x="81" y="489"/>
      <point x="81" y="457" type="curve" smooth="yes"/>
      <point x="81" y="63" type="line" smooth="yes"/>
      <point x="81" y="31"/>
      <point x="98" y="8"/>
      <point x="130" y="8" type="curve" smooth="yes"/>
      <point x="162" y="8"/>
      <point x="179" y="31"/>
    </contour>
  </outline>
</glyph>
<glyph name="r" format="1">
  <advance width="233"/>
  <unicode hex="0072"/>
  <outline>
    <contour>
      <point x="218" y="361" type="line"/>
      <point x="168" y="361" type="line"/>
      <point x="168" y="460" type="line" smooth="yes"/>
      <point x="168" y="491"/>
      <point x="164" y="510"/>
      <point x="136" y="510" type="curve" smooth="yes"/>
      <point x="121" y="510"/>
      <point x="107" y="501"/>
      <point x="91" y="488" type="curve"/>
      <point x="91" y="13" type="line"/>
      <point x="116" y="13" type="line"/>
      <point x="116" y="0" type="line"/>
      <point x="16" y="0" type="line"/>
      <point x="16" y="13" type="line"/>
      <point x="41" y="13" type="line"/>
      <point x="41" y="507" type="line"/>
      <point x="16" y="507" type="line"/>
      <point x="16" y="520" type="line"/>
      <point x="91" y="520" type="line"/>
      <point x="91" y="504" type="line"/>
      <point x="108" y="517"/>
      <point x="126" y="525"/>
      <point x="152" y="525" type="curve" smooth="yes"/>
      <point x="202" y="525"/>
      <point x="218" y="497"/>
      <point x="218" y="442" type="curve" smooth="yes"/>
    </contour>
  </outline>
</glyph>
<glyph name="s" format="1">
  <advance width="246"/>
  <unicode hex="0073"/>
  <outline>
    <contour>
      <point x="219" y="91" type="line" smooth="yes"/>
      <point x="219" y="35"/>
      <point x="185" y="-5"/>
      <point x="124" y="-5" type="curve" smooth="yes"/>
      <point x="62" y="-5"/>
      <point x="27" y="35"/>
      <point x="27" y="91" type="curve" smooth="yes"/>
      <point x="27" y="159" type="line"/>
      <point x="77" y="159" type="line"/>
      <point x="77" y="63" type="line" smooth="yes"/>
      <point x="77" y="29"/>
      <point x="92" y="8"/>
      <point x="124" y="8" type="curve" smooth="yes"/>
      <point x="155" y="8"/>
      <point x="169" y="30"/>
      <point x="169" y="63" type="curve" smooth="yes"/>
      <point x="169" y="118" type="line" smooth="yes"/>
      <point x="169" y="169"/>
      <point x="162" y="183"/>
      <point x="137" y="210" type="curve" smooth="yes"/>
      <point x="62" y="291" type="line" smooth="yes"/>
      <point x="33" y="322"/>
      <point x="27" y="349"/>
      <point x="27" y="394" type="curve" smooth="yes"/>
      <point x="27" y="429" type="line" smooth="yes"/>
      <point x="27" y="485"/>
      <point x="62" y="525"/>
      <point x="123" y="525" type="curve" smooth="yes"/>
      <point x="185" y="525"/>
      <point x="218" y="485"/>
      <point x="218" y="429" type="curve" smooth="yes"/>
      <point x="218" y="361" type="line"/>
      <point x="168" y="361" type="line"/>
      <point x="168" y="457" type="line" smooth="yes"/>
      <point x="168" y="489"/>
      <point x="155" y="512"/>
      <point x="123" y="512" type="curve" smooth="yes"/>
      <point x="91" y="512"/>
      <point x="77" y="490"/>
      <point x="77" y="457" type="curve" smooth="yes"/>
      <point x="77" y="409" type="line" smooth="yes"/>
      <point x="77" y="357"/>
      <point x="84" y="344"/>
      <point x="109" y="317" type="curve" smooth="yes"/>
      <point x="184" y="236" type="line" smooth="yes"/>
      <point x="213" y="204"/>
      <point x="219" y="178"/>
      <point x="219" y="133" type="curve" smooth="yes"/>
    </contour>
  </outline>
</glyph>
<glyph name="u" format="1">
  <advance width="268"/>
  <unicode hex="0075"/>
  <outline>
    <contour>
      <point x="254" y="0" type="line"/>
      <point x="179" y="0" type="line"/>
      <point x="179" y="16" type="line"/>
      <point x="162" y="3"/>
      <point x="140" y="-5"/>
      <point x="112" y="-5" type="curve" smooth="yes"/>
      <point x="60" y="-5"/>
      <point x="36" y="23"/>
      <point x="36" y="78" type="curve" smooth="yes"/>
      <point x="36" y="507" type="line"/>
      <point x="11" y="507" type="line"/>
      <point x="11" y="520" type="line"/>
      <point x="86" y="520" type="line"/>
      <point x="86" y="60" type="line" smooth="yes"/>
      <point x="86" y="29"/>
      <point x="98" y="10"/>
      <point x="126" y="10" type="curve" smooth="yes"/>
      <point x="145" y="10"/>
      <point x="163" y="19"/>
      <point x="179" y="32" type="curve"/>
      <point x="179" y="507" type="line"/>
      <point x="154" y="507" type="line"/>
      <point x="154" y="520" type="line"/>
      <point x="229" y="520" type="line"/>
      <point x="229" y="13" type="line"/>
      <point x="254" y="13" type="line"/>
    </contour>
  </outline>
</glyph>
<glyph name="y" format="1">
  <advance width="265"/>
  <unicode hex="0079"/>
  <outline>
    <contour>
      <point x="229" y="-49" type="line" smooth="yes"/>
      <point x="229" y="-105"/>
      <point x="195" y="-145"/>
      <point x="133" y="-145" type="curve" smooth="yes"/>
      <point x="74" y="-145"/>
      <point x="36" y="-105"/>
      <point x="36" y="-49" type="curve" smooth="yes"/>
      <point x="36" y="-31" type="line"/>
      <point x="86" y="-31" type="line"/>
      <point x="86" y="-77" type="line" smooth="yes"/>
      <point x="86" y="-109"/>
      <point x="102" y="-132"/>
      <point x="133" y="-132" type="curve" smooth="yes"/>
      <point x="164" y="-132"/>
      <point x="179" y="-109"/>
      <point x="179" y="-77" type="curve" smooth="yes"/>
      <point x="179" y="26" type="line"/>
      <point x="162" y="13"/>
      <point x="140" y="5"/>
      <point x="112" y="5" type="curve" smooth="yes"/>
      <point x="60" y="5"/>
      <point x="36" y="33"/>
      <point x="36" y="88" type="curve" smooth="yes"/>
      <point x="36" y="507" type="line"/>
      <point x="11" y="507" type="line"/>
      <point x="11" y="520" type="line"/>
      <point x="86" y="520" type="line"/>
      <point x="86" y="70" type="line" smooth="yes"/>
      <point x="86" y="39"/>
      <point x="98" y="20"/>
      <point x="126" y="20" type="curve" smooth="yes"/>
      <point x="145" y="20"/>
      <point x="163" y="29"/>
      <point x="179" y="42" type="curve"/>
      <point x="179" y="507" type="line"/>
      <point x="154" y="507" type="line"/>
      <point x="154" y="520" type="line"/>
      <point x="229" y="520" type="line"/>
    </contour>
  </outline>
</glyph>
<glyph name="z" format="1">
  <advance width="243"/>
  <unicode hex="007A"/>
  <outline>
    <contour>
      <point x="221" y="507" type="line"/>
      <point x="73" y="13" type="line"/>
      <point x="171" y="13" type="line"/>
      <point x="171" y="159" type="line"/>
      <point x="220" y="159" type="line"/>
      <point x="220" y="0" type="line"/>
      <point x="22" y="0" type="line"/>
      <point x="22" y="13" type="line"/>
      <point x="170" y="507" type="line"/>
      <point x="75" y="507" type="line"/>
      <point x="75" y="361" type="line"/>
      <point x="27" y="361" type="line"/>
      <point x="27" y="520" type="line"/>
      <point x="221" y="520" type="line"/>
    </contour>
  </outline>
</glyph>
<glyph name="braceleft" format="1">
  <advance width="208"/>
  <unicode hex="007B"/>
  <outline>
    <contour>
      <point x="187" y="0" type="line"/>
      <point x="172" y="0" type="line" smooth="yes"/>
      <point x="111" y="0"/>
      <point x="73" y="40"/>
      <point x="73" y="96" type="curve" smooth="yes"/>
      <point x="73" y="309" type="line" smooth="yes"/>
      <point x="73" y="344"/>
      <point x="53" y="363"/>
      <point x="26" y="363" type="curve" smooth="yes"/>
      <point x="11" y="363" type="line"/>
      <point x="11" y="377" type="line"/>
      <point x="26" y="377" type="line" smooth="yes"/>
      <point x="53" y="377"/>
      <point x="73" y="395"/>
      <point x="73" y="433" type="curve" smooth="yes"/>
      <point x="73" y="604" type="line" smooth="yes"/>
      <point x="73" y="660"/>
      <point x="111" y="700"/>
      <point x="172" y="700" type="curve" smooth="yes"/>
      <point x="187" y="700" type="line"/>
      <point x="187" y="687" type="line"/>
      <point x="173" y="687" type="line" smooth="yes"/>
      <point x="141" y="687"/>
      <point x="124" y="665"/>
      <point x="124" y="631" type="curve" smooth="yes"/>
      <point x="124" y="460" type="line" smooth="yes"/>
      <point x="124" y="412"/>
      <point x="97" y="381"/>
      <point x="61" y="370" type="curve"/>
      <point x="96" y="358"/>
      <point x="124" y="331"/>
      <point x="124" y="280" type="curve" smooth="yes"/>
      <point x="124" y="69" type="line" smooth="yes"/>
      <point x="124" y="35"/>
      <point x="141" y="13"/>
      <point x="173" y="13" type="curve" smooth="yes"/>
      <point x="187" y="13" type="line"/>
    </contour>
  </outline>
</glyph>
<glyph name="braceright" format="1">
  <advance width="208"/>
  <unicode hex="007D"/>
  <outline>
    <contour>
      <point x="197" y="363" type="line"/>
      <point x="182" y="363" type="line" smooth="yes"/>
      <point x="155" y="363"/>
      <point x="135" y="344"/>
      <point x="135" y="309" type="curve" smooth="yes"/>
      <point x="135" y="96" type="line" smooth="yes"/>
      <point x="135" y="40"/>
      <point x="97" y="0"/>
      <point x="36" y="0" type="curve" smooth="yes"/>
      <point x="21" y="0" type="line"/>
      <point x="21" y="13" type="line"/>
      <point x="35" y="13" type="line" smooth="yes"/>
      <point x="67" y="13"/>
      <point x="84" y="35"/>
      <point x="84" y="69" type="curve" smooth="yes"/>
      <point x="84" y="280" type="line" smooth="yes"/>
      <point x="84" y="331"/>
      <point x="112" y="358"/>
      <point x="147" y="370" type="curve"/>
      <point x="111" y="381"/>
      <point x="84" y="412"/>
      <point x="84" y="460" type="curve" smooth="yes"/>
      <point x="84" y="631" type="line" smooth="yes"/>
      <point x="84" y="665"/>
      <point x="67" y="687"/>
      <point x="35" y="687" type="curve" smooth="yes"/>
      <point x="21" y="687" type="line"/>
      <point x="21" y="700" type="line"/>
      <point x="36" y="700" type="line" smooth="yes"/>
      <point x="97" y="700"/>
      <point x="135" y="660"/>
      <point x="135" y="604" type="curve" smooth="yes"/>
      <point x="135" y="433" type="line" smooth="yes"/>
      <point x="135" y="395"/>
      <point x="155" y="377"/>
      <point x="182" y="377" type="curve" smooth="yes"/>
      <point x="197" y="377" type="line"/>
    </contour>
  </outline>
</glyph>
<glyph name="exclamdown" format="1">
  <advance width="133"/>
  <unicode hex="00A1"/>
  <outline>
    <contour>
      <point x="92" y="600" type="line"/>
      <point x="41" y="600" type="line"/>
      <point x="41" y="700" type="line"/>
      <point x="92" y="700" type="line"/>
    </contour>
    <contour>
      <point x="92" y="0" type="line"/>
      <point x="41" y="0" type="line"/>
      <point x="41" y="290" type="line"/>
      <point x="57" y="562" type="line"/>
      <point x="76" y="562" type="line"/>
      <point x="92" y="290" type="line"/>
    </contour>
  </outline>
</glyph>
<glyph name="cent" format="1">
  <advance width="258"/>
  <unicode hex="00A2"/>
  <outline>
    <contour>
      <point x="229" y="171" type="line" smooth="yes"/>
      <point x="229" y="118"/>
      <point x="196" y="80"/>
      <point x="139" y="76" type="curve"/>
      <point x="139" y="-10" type="line"/>
      <point x="121" y="-10" type="line"/>
      <point x="121" y="75" type="line"/>
      <point x="65" y="80"/>
      <point x="31" y="118"/>
      <point x="31" y="171" type="curve" smooth="yes"/>
      <point x="31" y="529" type="line" smooth="yes"/>
      <point x="31" y="582"/>
      <point x="65" y="620"/>
      <point x="121" y="624" type="curve"/>
      <point x="121" y="710" type="line"/>
      <point x="139" y="710" type="line"/>
      <point x="139" y="624" type="line"/>
      <point x="196" y="620"/>
      <point x="229" y="582"/>
      <point x="229" y="529" type="curve" smooth="yes"/>
      <point x="229" y="461" type="line"/>
      <point x="179" y="461" type="line"/>
      <point x="179" y="557" type="line" smooth="yes"/>
      <point x="179" y="589"/>
      <point x="162" y="612"/>
      <point x="130" y="612" type="curve" smooth="yes"/>
      <point x="98" y="612"/>
      <point x="81" y="589"/>
      <point x="81" y="557" type="curve" smooth="yes"/>
      <point x="81" y="143" type="line" smooth="yes"/>
      <point x="81" y="111"/>
      <point x="98" y="88"/>
      <point x="130" y="88" type="curve" smooth="yes"/>
      <point x="162" y="88"/>
      <point x="179" y="111"/>
      <point x="179" y="143" type="curve" smooth="yes"/>
      <point x="179" y="239" type="line"/>
      <point x="229" y="239" type="line"/>
    </contour>
  </outline>
</glyph>
<glyph name="sterling" format="1">
  <advance width="289"/>
  <unicode hex="00A3"/>
  <outline>
    <contour>
      <point x="253" y="0" type="line"/>
      <point x="20" y="0" type="line"/>
      <point x="20" y="13" type="line"/>
      <point x="45" y="13" type="line"/>
      <point x="45" y="363" type="line"/>
      <point x="20" y="363" type="line"/>
      <point x="20" y="377" type="line"/>
      <point x="45" y="377" type="line"/>
      <point x="45" y="604" type="line" smooth="yes"/>
      <point x="45" y="667"/>
      <point x="89" y="705"/>
      <point x="149" y="705" type="curve" smooth="yes"/>
      <point x="208" y="705"/>
      <point x="253" y="667"/>
      <point x="253" y="604" type="curve" smooth="yes"/>
      <point x="253" y="490" type="line"/>
      <point x="201" y="490" type="line"/>
      <point x="201" y="633" type="line" smooth="yes"/>
      <point x="201" y="669"/>
      <point x="181" y="692"/>
      <point x="149" y="692" type="curve" smooth="yes"/>
      <point x="117" y="692"/>
      <point x="97" y="669"/>
      <point x="97" y="633" type="curve" smooth="yes"/>
      <point x="97" y="377" type="line"/>
      <point x="191" y="377" type="line"/>
      <point x="191" y="363" type="line"/>
      <point x="97" y="363" type="line"/>
      <point x="97" y="13" type="line"/>
      <point x="201" y="13" type="line"/>
      <point x="201" y="210" type="line"/>
      <point x="253" y="210" type="line"/>
    </contour>
  </outline>
</glyph>
<glyph name="yen" format="1">
  <advance width="277"/>
  <unicode hex="00A5"/>
  <outline>
    <contour>
      <point x="271" y="687" type="line"/>
      <point x="246" y="687" type="line"/>
      <point x="164" y="293" type="line"/>
      <point x="164" y="245" type="line"/>
      <point x="232" y="245" type="line"/>
      <point x="232" y="232" type="line"/>
      <point x="164" y="232" type="line"/>
      <point x="164" y="194" type="line"/>
      <point x="232" y="194" type="line"/>
      <point x="232" y="181" type="line"/>
      <point x="164" y="181" type="line"/>
      <point x="164" y="13" type="line"/>
      <point x="189" y="13" type="line"/>
      <point x="189" y="0" type="line"/>
      <point x="87" y="0" type="line"/>
      <point x="87" y="13" type="line"/>
      <point x="112" y="13" type="line"/>
      <point x="112" y="181" type="line"/>
      <point x="43" y="181" type="line"/>
      <point x="43" y="194" type="line"/>
      <point x="112" y="194" type="line"/>
      <point x="112" y="232" type="line"/>
      <point x="43" y="232" type="line"/>
      <point x="43" y="245" type="line"/>
      <point x="112" y="245" type="line"/>
      <point x="112" y="288" type="line"/>
      <point x="31" y="687" type="line"/>
      <point x="6" y="687" type="line"/>
      <point x="6" y="700" type="line"/>
      <point x="109" y="700" type="line"/>
      <point x="109" y="687" type="line"/>
      <point x="84" y="687" type="line"/>
      <point x="153" y="328" type="line"/>
      <point x="226" y="687" type="line"/>
      <point x="201" y="687" type="line"/>
      <point x="201" y="700" type="line"/>
      <point x="271" y="700" type="line"/>
    </contour>
  </outline>
</glyph>
<glyph name="section" format="1">
  <advance width="284"/>
  <unicode hex="00A7"/>
  <outline>
    <contour>
      <point x="263" y="333" type="curve" smooth="yes"/>
      <point x="263" y="290"/>
      <point x="241" y="261"/>
      <point x="201" y="234" type="curve"/>
      <point x="234" y="205"/>
      <point x="245" y="177"/>
      <point x="245" y="134" type="curve" smooth="yes"/>
      <point x="245" y="99" type="line" smooth="yes"/>
      <point x="245" y="33"/>
      <point x="202" y="-5"/>
      <point x="143" y="-5" type="curve" smooth="yes"/>
      <point x="83" y="-5"/>
      <point x="38" y="33"/>
      <point x="38" y="99" type="curve" smooth="yes"/>
      <point x="38" y="210" type="line"/>
      <point x="90" y="210" type="line"/>
      <point x="90" y="71" type="line" smooth="yes"/>
      <point x="90" y="32"/>
      <point x="107" y="8"/>
      <point x="143" y="8" type="curve" smooth="yes"/>
      <point x="177" y="8"/>
      <point x="193" y="32"/>
      <point x="193" y="71" type="curve" smooth="yes"/>
      <point x="193" y="123" type="line" smooth="yes"/>
      <point x="193" y="164"/>
      <point x="185" y="184"/>
      <point x="151" y="212" type="curve" smooth="yes"/>
      <point x="71" y="276" type="line" smooth="yes"/>
      <point x="40" y="300"/>
      <point x="21" y="327"/>
      <point x="21" y="367" type="curve" smooth="yes"/>
      <point x="21" y="410"/>
      <point x="43" y="438"/>
      <point x="84" y="466" type="curve"/>
      <point x="51" y="494"/>
      <point x="38" y="523"/>
      <point x="38" y="566" type="curve" smooth="yes"/>
      <point x="38" y="601" type="line" smooth="yes"/>
      <point x="38" y="667"/>
      <point x="83" y="705"/>
      <point x="143" y="705" type="curve" smooth="yes"/>
      <point x="202" y="705"/>
      <point x="245" y="667"/>
      <point x="245" y="601" type="curve" smooth="yes"/>
      <point x="245" y="490" type="line"/>
      <point x="193" y="490" type="line"/>
      <point x="193" y="629" type="line" smooth="yes"/>
      <point x="193" y="668"/>
      <point x="177" y="692"/>
      <point x="143" y="692" type="curve" smooth="yes"/>
      <point x="107" y="692"/>
      <point x="90" y="668"/>
      <point x="90" y="629" type="curve" smooth="yes"/>
      <point x="90" y="573" type="line" smooth="yes"/>
      <point x="90" y="529"/>
      <point x="101" y="513"/>
      <point x="125" y="494" type="curve" smooth="yes"/>
      <point x="214" y="423" type="line" smooth="yes"/>
      <point x="244" y="399"/>
      <point x="263" y="373"/>
    </contour>
    <contour>
      <point x="222" y="312" type="curve" smooth="yes"/>
      <point x="222" y="343"/>
      <point x="209" y="364"/>
      <point x="182" y="386" type="curve" smooth="yes"/>
      <point x="94" y="456" type="line"/>
      <point x="72" y="437"/>
      <point x="62" y="415"/>
      <point x="62" y="388" type="curve" smooth="yes"/>
      <point x="62" y="356"/>
      <point x="75" y="335"/>
      <point x="100" y="315" type="curve" smooth="yes"/>
      <point x="190" y="243" type="line"/>
      <point x="214" y="263"/>
      <point x="222" y="284"/>
    </contour>
  </outline>
</glyph>
<glyph name="dieresis" format="1">
  <advance width="300"/>
  <unicode hex="00A8"/>
  <outline>
    <contour>
      <point x="222" y="558" type="line"/>
      <point x="176" y="558" type="line"/>
      <point x="176" y="651" type="line"/>
      <point x="222" y="651" type="line"/>
    </contour>
    <contour>
      <point x="124" y="558" type="line"/>
      <point x="78" y="558" type="line"/>
      <point x="78" y="651" type="line"/>
      <point x="124" y="651" type="line"/>
    </contour>
  </outline>
</glyph>
<glyph name="copyright" format="1">
  <advance width="368"/>
  <unicode hex="00A9"/>
  <outline>
    <contour>
      <point x="336" y="134" type="line" smooth="yes"/>
      <point x="336" y="58"/>
      <point x="274" y="-5"/>
      <point x="184" y="-5" type="curve" smooth="yes"/>
      <point x="94" y="-5"/>
      <point x="32" y="58"/>
      <point x="32" y="134" type="curve" smooth="yes"/>
      <point x="32" y="566" type="line" smooth="yes"/>
      <point x="32" y="642"/>
      <point x="94" y="705"/>
      <point x="184" y="705" type="curve" smooth="yes"/>
      <point x="274" y="705"/>
      <point x="336" y="642"/>
      <point x="336" y="566" type="curve" smooth="yes"/>
    </contour>
    <contour>
      <point x="319" y="132" type="curve" smooth="yes"/>
      <point x="319" y="568" type="line" smooth="yes"/>
      <point x="319" y="636"/>
      <point x="264" y="691"/>
      <point x="184" y="691" type="curve" smooth="yes"/>
      <point x="104" y="691"/>
      <point x="49" y="636"/>
      <point x="49" y="568" type="curve" smooth="yes"/>
      <point x="49" y="132" type="line" smooth="yes"/>
      <point x="49" y="64"/>
      <point x="104" y="9"/>
      <point x="184" y="9" type="curve" smooth="yes"/>
      <point x="264" y="9"/>
      <point x="319" y="64"/>
    </contour>
    <contour>
      <point x="258" y="176" type="line" smooth="yes"/>
      <point x="258" y="130"/>
      <point x="224" y="104"/>
      <point x="183" y="104" type="curve" smooth="yes"/>
      <point x="141" y="104"/>
      <point x="106" y="130"/>
      <point x="106" y="176" type="curve" smooth="yes"/>
      <point x="106" y="528" type="line" smooth="yes"/>
      <point x="106" y="574"/>
      <point x="141" y="600"/>
      <point x="183" y="600" type="curve" smooth="yes"/>
      <point x="224" y="600"/>
      <point x="258" y="574"/>
      <point x="258" y="528" type="curve" smooth="yes"/>
      <point x="258" y="450" type="line"/>
      <point x="220" y="450" type="line"/>
      <point x="220" y="547" type="line" smooth="yes"/>
      <point x="220" y="574"/>
      <point x="207" y="590"/>
      <point x="183" y="590" type="curve" smooth="yes"/>
      <point x="159" y="590"/>
      <point x="144" y="574"/>
      <point x="144" y="547" type="curve" smooth="yes"/>
      <point x="144" y="157" type="line" smooth="yes"/>
      <point x="144" y="130"/>
      <point x="159" y="114"/>
      <point x="183" y="114" type="curve" smooth="yes"/>
      <point x="207" y="114"/>
      <point x="220" y="130"/>
      <point x="220" y="157" type="curve" smooth="yes"/>
      <point x="220" y="254" type="line"/>
      <point x="258" y="254" type="line"/>
    </contour>
  </outline>
</glyph>
<glyph name="guillemotleft" format="1">
  <advance width="265"/>
  <unicode hex="00AB"/>
  <outline>
    <contour>
      <point x="239" y="141" type="line"/>
      <point x="221" y="141" type="line"/>
      <point x="125" y="322" type="line"/>
      <point x="125" y="338" type="line"/>
      <point x="221" y="520" type="line"/>
      <point x="239" y="520" type="line"/>
      <point x="180" y="330" type="line"/>
    </contour>
    <contour>
      <point x="138" y="141" type="line"/>
      <point x="120" y="141" type="line"/>
      <point x="24" y="322" type="line"/>
      <point x="24" y="338" type="line"/>
      <point x="120" y="520" type="line"/>
      <point x="138" y="520" type="line"/>
      <point x="79" y="330" type="line"/>
    </contour>
  </outline>
</glyph>
<glyph name="degree" format="1">
  <advance width="251"/>
  <unicode hex="00B0"/>
  <outline>
    <contour>
      <point x="219" y="389" type="line" smooth="yes"/>
      <point x="219" y="333"/>
      <point x="180" y="295"/>
      <point x="126" y="295" type="curve" smooth="yes"/>
      <point x="70" y="295"/>
      <point x="32" y="333"/>
      <point x="32" y="389" type="curve" smooth="yes"/>
      <point x="32" y="611" type="line" smooth="yes"/>
      <point x="32" y="667"/>
      <point x="70" y="705"/>
      <point x="126" y="705" type="curve" smooth="yes"/>
      <point x="180" y="705"/>
      <point x="219" y="667"/>
      <point x="219" y="611" type="curve" smooth="yes"/>
    </contour>
    <contour>
      <point x="169" y="360" type="curve" smooth="yes"/>
      <point x="169" y="640" type="line" smooth="yes"/>
      <point x="169" y="671"/>
      <point x="153" y="692"/>
      <point x="126" y="692" type="curve" smooth="yes"/>
      <point x="98" y="692"/>
      <point x="82" y="671"/>
      <point x="82" y="640" type="curve" smooth="yes"/>
      <point x="82" y="360" type="line" smooth="yes"/>
      <point x="82" y="329"/>
      <point x="98" y="308"/>
      <point x="126" y="308" type="curve" smooth="yes"/>
      <point x="153" y="308"/>
      <point x="169" y="329"/>
    </contour>
  </outline>
</glyph>
<glyph name="acute" format="1">
  <advance width="300"/>
  <unicode hex="00B4"/>
  <outline>
    <contour>
      <point x="212" y="670" type="line"/>
      <point x="125" y="550" type="line"/>
      <point x="109" y="550" type="line"/>
      <point x="156" y="677" type="line"/>
      <point x="212" y="677" type="line"/>
    </contour>
  </outline>
</glyph>
<glyph name="periodcentered" format="1">
  <advance width="117"/>
  <unicode hex="00B7"/>
  <outline>
    <contour>
      <point x="84" y="321" type="line"/>
      <point x="33" y="321" type="line"/>
      <point x="33" y="421" type="line"/>
      <point x="84" y="421" type="line"/>
    </contour>
  </outline>
</glyph>
<glyph name="cedilla" format="1">
  <advance width="300"/>
  <unicode hex="00B8"/>
  <outline>
    <contour>
      <point x="202" y="-75" type="curve" smooth="yes"/>
      <point x="202" y="-107"/>
      <point x="175" y="-120"/>
      <point x="141" y="-120" type="curve" smooth="yes"/>
      <point x="102" y="-120" type="line"/>
      <point x="102" y="-109" type="line"/>
      <point x="123" y="-109" type="line" smooth="yes"/>
      <point x="150" y="-109"/>
      <point x="158" y="-96"/>
      <point x="158" y="-75" type="curve" smooth="yes"/>
      <point x="158" y="-52"/>
      <point x="150" y="-41"/>
      <point x="123" y="-41" type="curve" smooth="yes"/>
      <point x="118" y="-41" type="line"/>
      <point x="118" y="-31" type="line"/>
      <point x="136" y="0" type="line"/>
      <point x="153" y="0" type="line"/>
      <point x="136" y="-28" type="line"/>
      <point x="145" y="-28" type="line" smooth="yes"/>
      <point x="179" y="-28"/>
      <point x="202" y="-42"/>
    </contour>
  </outline>
</glyph>
<glyph name="ordmasculine" format="1">
  <advance width="232"/>
  <unicode hex="00BA"/>
  <outline>
    <contour>
      <point x="196" y="372" type="line" smooth="yes"/>
      <point x="196" y="327"/>
      <point x="165" y="294"/>
      <point x="115" y="294" type="curve" smooth="yes"/>
      <point x="65" y="294"/>
      <point x="35" y="327"/>
      <point x="35" y="372" type="curve" smooth="yes"/>
      <point x="35" y="628" type="line" smooth="yes"/>
      <point x="35" y="672"/>
      <point x="65" y="705"/>
      <point x="115" y="705" type="curve" smooth="yes"/>
      <point x="165" y="705"/>
      <point x="196" y="672"/>
      <point x="196" y="628" type="curve" smooth="yes"/>
    </contour>
    <contour>
      <point x="153" y="349" type="curve" smooth="yes"/>
      <point x="153" y="651" type="line" smooth="yes"/>
      <point x="153" y="676"/>
      <point x="140" y="695"/>
      <point x="115" y="695" type="curve" smooth="yes"/>
      <point x="91" y="695"/>
      <point x="78" y="676"/>
      <point x="78" y="651" type="curve" smooth="yes"/>
      <point x="78" y="349" type="line" smooth="yes"/>
      <point x="78" y="323"/>
      <point x="91" y="305"/>
      <point x="115" y="305" type="curve" smooth="yes"/>
      <point x="140" y="305"/>
      <point x="153" y="323"/>
    </contour>
  </outline>
</glyph>
<glyph name="guillemotright" format="1">
  <advance width="265"/>
  <unicode hex="00BB"/>
  <outline>
    <contour>
      <point x="251" y="322" type="line"/>
      <point x="155" y="141" type="line"/>
      <point x="137" y="141" type="line"/>
      <point x="196" y="330" type="line"/>
      <point x="137" y="520" type="line"/>
      <point x="155" y="520" type="line"/>
      <point x="251" y="338" type="line"/>
    </contour>
    <contour>
      <point x="150" y="322" type="line"/>
      <point x="54" y="141" type="line"/>
      <point x="36" y="141" type="line"/>
      <point x="95" y="330" type="line"/>
      <point x="36" y="520" type="line"/>
      <point x="54" y="520" type="line"/>
      <point x="150" y="338" type="line"/>
    </contour>
  </outline>
</glyph>
<glyph name="questiondown" format="1">
  <advance width="262"/>
  <unicode hex="00BF"/>
  <outline>
    <contour>
      <point x="158" y="600" type="line"/>
      <point x="107" y="600" type="line"/>
      <point x="107" y="700" type="line"/>
      <point x="158" y="700" type="line"/>
    </contour>
    <contour>
      <point x="235" y="99" type="line" smooth="yes"/>
      <point x="235" y="33"/>
      <point x="191" y="-5"/>
      <point x="133" y="-5" type="curve" smooth="yes"/>
      <point x="76" y="-5"/>
      <point x="32" y="33"/>
      <point x="32" y="99" type="curve" smooth="yes"/>
      <point x="32" y="196" type="line" smooth="yes"/>
      <point x="32" y="238"/>
      <point x="40" y="269"/>
      <point x="60" y="299" type="curve" smooth="yes"/>
      <point x="85" y="336" type="line" smooth="yes"/>
      <point x="108" y="370"/>
      <point x="112" y="388"/>
      <point x="115" y="437" type="curve" smooth="yes"/>
      <point x="123" y="562" type="line"/>
      <point x="142" y="562" type="line"/>
      <point x="150" y="429" type="line" smooth="yes"/>
      <point x="151" y="407"/>
      <point x="152" y="389"/>
      <point x="152" y="378" type="curve" smooth="yes"/>
      <point x="152" y="358"/>
      <point x="150" y="343"/>
      <point x="136" y="323" type="curve" smooth="yes"/>
      <point x="110" y="284" type="line" smooth="yes"/>
      <point x="89" y="252"/>
      <point x="84" y="231"/>
      <point x="84" y="188" type="curve" smooth="yes"/>
      <point x="84" y="71" type="line" smooth="yes"/>
      <point x="84" y="32"/>
      <point x="101" y="8"/>
      <point x="133" y="8" type="curve" smooth="yes"/>
      <point x="165" y="8"/>
      <point x="183" y="32"/>
      <point x="183" y="71" type="curve" smooth="yes"/>
      <point x="183" y="210" type="line"/>
      <point x="235" y="210" type="line"/>
    </contour>
  </outline>
</glyph>
<glyph name="Aring" format="1">
  <advance width="272"/>
  <unicode hex="00C5"/>
  <outline>
    <contour>
      <point x="262" y="0" type="line"/>
      <point x="159" y="0" type="line"/>
      <point x="159" y="13" type="line"/>
      <point x="184" y="13" type="line"/>
      <point x="162" y="221" type="line"/>
      <point x="77" y="221" type="line"/>
      <point x="55" y="13" type="line"/>
      <point x="80" y="13" type="line"/>
      <point x="80" y="0" type="line"/>
      <point x="10" y="0" type="line"/>
      <point x="10" y="13" type="line"/>
      <point x="35" y="13" type="line"/>
      <point x="113" y="701" type="line"/>
      <point x="162" y="701" type="line"/>
      <point x="237" y="13" type="line"/>
      <point x="262" y="13" type="line"/>
    </contour>
    <contour>
      <point x="161" y="234" type="line"/>
      <point x="121" y="628" type="line"/>
      <point x="79" y="234" type="line"/>
    </contour>
    <contour>
      <point x="216" y="789" type="curve" smooth="yes"/>
      <point x="216" y="749"/>
      <point x="188" y="725"/>
      <point x="138" y="725" type="curve" smooth="yes"/>
      <point x="88" y="725"/>
      <point x="60" y="749"/>
      <point x="60" y="789" type="curve" smooth="yes"/>
      <point x="60" y="827"/>
      <point x="87" y="852"/>
      <point x="138" y="852" type="curve" smooth="yes"/>
      <point x="189" y="852"/>
      <point x="216" y="827"/>
    </contour>
    <contour>
      <point x="170" y="774" type="curve" smooth="yes"/>
      <point x="170" y="803" type="line" smooth="yes"/>
      <point x="170" y="826"/>
      <point x="158" y="840"/>
      <point x="138" y="840" type="curve" smooth="yes"/>
      <point x="118" y="840"/>
      <point x="106" y="826"/>
      <point x="106" y="803" type="curve" smooth="yes"/>
      <point x="106" y="774" type="line" smooth="yes"/>
      <point x="106" y="751"/>
      <point x="118" y="737"/>
      <point x="138" y="737" type="curve" smooth="yes"/>
      <point x="158" y="737"/>
      <point x="170" y="751"/>
    </contour>
  </outline>
</glyph>
<glyph name="Ccedilla" format="1">
  <advance width="286"/>
  <unicode hex="00C7"/>
  <outline>
    <contour>
      <point x="253" y="99" type="line" smooth="yes"/>
      <point x="253" y="34"/>
      <point x="206" y="-4"/>
      <point x="147" y="-5" type="curve"/>
      <point x="133" y="-28" type="line"/>
      <point x="142" y="-28" type="line" smooth="yes"/>
      <point x="176" y="-28"/>
      <point x="199" y="-42"/>
      <point x="199" y="-75" type="curve" smooth="yes"/>
      <point x="199" y="-107"/>
      <point x="172" y="-120"/>
      <point x="138" y="-120" type="curve" smooth="yes"/>
      <point x="99" y="-120" type="line"/>
      <point x="99" y="-109" type="line"/>
      <point x="120" y="-109" type="line" smooth="yes"/>
      <point x="147" y="-109"/>
      <point x="155" y="-96"/>
      <point x="155" y="-75" type="curve" smooth="yes"/>
      <point x="155" y="-52"/>
      <point x="147" y="-41"/>
      <point x="120" y="-41" type="curve" smooth="yes"/>
      <point x="115" y="-41" type="line"/>
      <point x="115" y="-31" type="line"/>
      <point x="131" y="-4" type="line"/>
      <point x="78" y="1"/>
      <point x="37" y="38"/>
      <point x="37" y="99" type="curve" smooth="yes"/>
      <point x="37" y="601" type="line" smooth="yes"/>
      <point x="37" y="667"/>
      <point x="85" y="705"/>
      <point x="145" y="705" type="curve" smooth="yes"/>
      <point x="205" y="705"/>
      <point x="253" y="667"/>
      <point x="253" y="601" type="curve" smooth="yes"/>
      <point x="253" y="490" type="line"/>
      <point x="201" y="490" type="line"/>
      <point x="201" y="629" type="line" smooth="yes"/>
      <point x="201" y="668"/>
      <point x="180" y="692"/>
      <point x="145" y="692" type="curve" smooth="yes"/>
      <point x="110" y="692"/>
      <point x="89" y="668"/>
      <point x="89" y="629" type="curve" smooth="yes"/>
      <point x="89" y="71" type="line" smooth="yes"/>
      <point x="89" y="32"/>
      <point x="110" y="8"/>
      <point x="145" y="8" type="curve" smooth="yes"/>
      <point x="180" y="8"/>
      <point x="201" y="32"/>
      <point x="201" y="71" type="curve" smooth="yes"/>
      <point x="201" y="210" type="line"/>
      <point x="253" y="210" type="line"/>
    </contour>
  </outline>
</glyph>
<glyph name="Oslash" format="1">
  <advance width="295"/>
  <unicode hex="00D8"/>
  <outline>
    <contour>
      <point x="258" y="101" type="line" smooth="yes"/>
      <point x="258" y="34"/>
      <point x="207" y="-5"/>
      <point x="148" y="-5" type="curve" smooth="yes"/>
      <point x="125" y="-5"/>
      <point x="103" y="1"/>
      <point x="84" y="12" type="curve"/>
      <point x="69" y="-60" type="line"/>
      <point x="51" y="-60" type="line"/>
      <point x="69" y="24" type="line"/>
      <point x="49" y="42"/>
      <point x="37" y="68"/>
      <point x="37" y="101" type="curve" smooth="yes"/>
      <point x="37" y="599" type="line" smooth="yes"/>
      <point x="37" y="666"/>
      <point x="89" y="705"/>
      <point x="148" y="705" type="curve" smooth="yes"/>
      <point x="171" y="705"/>
      <point x="193" y="699"/>
      <point x="211" y="688" type="curve"/>
      <point x="226" y="760" type="line"/>
      <point x="244" y="760" type="line"/>
      <point x="226" y="676" type="line"/>
      <point x="246" y="658"/>
      <point x="258" y="632"/>
      <point x="258" y="599" type="curve" smooth="yes"/>
    </contour>
    <contour>
      <point x="203" y="651" type="line"/>
      <point x="195" y="676"/>
      <point x="175" y="692"/>
      <point x="148" y="692" type="curve" smooth="yes"/>
      <point x="113" y="692"/>
      <point x="89" y="666"/>
      <point x="89" y="627" type="curve" smooth="yes"/>
      <point x="89" y="118" type="line"/>
    </contour>
    <contour>
      <point x="206" y="73" type="curve" smooth="yes"/>
      <point x="206" y="582" type="line"/>
      <point x="92" y="49" type="line"/>
      <point x="100" y="24"/>
      <point x="121" y="8"/>
      <point x="148" y="8" type="curve" smooth="yes"/>
      <point x="183" y="8"/>
      <point x="206" y="34"/>
    </contour>
  </outline>
</glyph>
<glyph name="Thorn" format="1">
  <advance width="281"/>
  <unicode hex="00DE"/>
  <outline>
    <contour>
      <point x="254" y="272" type="line" smooth="yes"/>
      <point x="254" y="205"/>
      <point x="203" y="166"/>
      <point x="143" y="166" type="curve" smooth="yes"/>
      <point x="99" y="166" type="line"/>
      <point x="99" y="13" type="line"/>
      <point x="124" y="13" type="line"/>
      <point x="124" y="0" type="line"/>
      <point x="22" y="0" type="line"/>
      <point x="22" y="13" type="line"/>
      <point x="47" y="13" type="line"/>
      <point x="47" y="687" type="line"/>
      <point x="22" y="687" type="line"/>
      <point x="22" y="700" type="line"/>
      <point x="124" y="700" type="line"/>
      <point x="124" y="687" type="line"/>
      <point x="99" y="687" type="line"/>
      <point x="99" y="564" type="line"/>
      <point x="143" y="564" type="line" smooth="yes"/>
      <point x="203" y="564"/>
      <point x="254" y="525"/>
      <point x="254" y="458" type="curve" smooth="yes"/>
    </contour>
    <contour>
      <point x="202" y="244" type="curve" smooth="yes"/>
      <point x="202" y="486" type="line" smooth="yes"/>
      <point x="202" y="525"/>
      <point x="179" y="551"/>
      <point x="144" y="551" type="curve" smooth="yes"/>
      <point x="99" y="551" type="line"/>
      <point x="99" y="179" type="line"/>
      <point x="144" y="179" type="line" smooth="yes"/>
      <point x="179" y="179"/>
      <point x="202" y="205"/>
    </contour>
  </outline>
</glyph>
<glyph name="germandbls" format="1">
  <advance width="265"/>
  <unicode hex="00DF"/>
  <outline>
    <contour>
      <point x="234" y="96" type="line" smooth="yes"/>
      <point x="234" y="40"/>
      <point x="196" y="0"/>
      <point x="136" y="0" type="curve" smooth="yes"/>
      <point x="119" y="0" type="line"/>
      <point x="119" y="13" type="line"/>
      <point x="136" y="13" type="line" smooth="yes"/>
      <point x="166" y="13"/>
      <point x="184" y="36"/>
      <point x="184" y="68" type="curve" smooth="yes"/>
      <point x="184" y="299" type="line" smooth="yes"/>
      <point x="184" y="338"/>
      <point x="160" y="363"/>
      <point x="126" y="363" type="curve" smooth="yes"/>
      <point x="119" y="363" type="line"/>
      <point x="119" y="376" type="line"/>
      <point x="126" y="376" type="line" smooth="yes"/>
      <point x="160" y="376"/>
      <point x="184" y="400"/>
      <point x="184" y="441" type="curve" smooth="yes"/>
      <point x="184" y="637" type="line" smooth="yes"/>
      <point x="184" y="669"/>
      <point x="168" y="692"/>
      <point x="137" y="692" type="curve" smooth="yes"/>
      <point x="106" y="692"/>
      <point x="90" y="669"/>
      <point x="90" y="637" type="curve" smooth="yes"/>
      <point x="90" y="0" type="line"/>
      <point x="15" y="0" type="line"/>
      <point x="15" y="13" type="line"/>
      <point x="40" y="13" type="line"/>
      <point x="40" y="609" type="line" smooth="yes"/>
      <point x="40" y="665"/>
      <point x="77" y="705"/>
      <point x="137" y="705" type="curve" smooth="yes"/>
      <point x="197" y="705"/>
      <point x="234" y="665"/>
      <point x="234" y="609" type="curve" smooth="yes"/>
      <point x="234" y="469" type="line" smooth="yes"/>
      <point x="234" y="414"/>
      <point x="202" y="382"/>
      <point x="161" y="370" type="curve"/>
      <point x="202" y="358"/>
      <point x="234" y="326"/>
      <point x="234" y="271" type="curve" smooth="yes"/>
    </contour>
  </outline>
</glyph>
<glyph name="ae" format="1">
  <advance width="397"/>
  <unicode hex="00E6"/>
  <outline>
    <contour>
      <point x="366" y="91" type="line" smooth="yes"/>
      <point x="366" y="35"/>
      <point x="328" y="-5"/>
      <point x="267" y="-5" type="curve" smooth="yes"/>
      <point x="232" y="-5"/>
      <point x="207" y="10"/>
      <point x="193" y="31" type="curve"/>
      <point x="178" y="10"/>
      <point x="158" y="-5"/>
      <point x="123" y="-5" type="curve" smooth="yes"/>
      <point x="61" y="-5"/>
      <point x="28" y="34"/>
      <point x="28" y="91" type="curve" smooth="yes"/>
      <point x="28" y="205" type="line" smooth="yes"/>
      <point x="28" y="268"/>
      <point x="67" y="297"/>
      <point x="129" y="297" type="curve" smooth="yes"/>
      <point x="168" y="297" type="line"/>
      <point x="168" y="457" type="line" smooth="yes"/>
      <point x="168" y="489"/>
      <point x="155" y="512"/>
      <point x="125" y="512" type="curve" smooth="yes"/>
      <point x="94" y="512"/>
      <point x="81" y="489"/>
      <point x="81" y="457" type="curve" smooth="yes"/>
      <point x="81" y="361" type="line"/>
      <point x="31" y="361" type="line"/>
      <point x="31" y="429" type="line" smooth="yes"/>
      <point x="31" y="486"/>
      <point x="63" y="525"/>
      <point x="125" y="525" type="curve" smooth="yes"/>
      <point x="159" y="525"/>
      <point x="177" y="512"/>
      <point x="193" y="492" type="curve"/>
      <point x="208" y="511"/>
      <point x="232" y="525"/>
      <point x="267" y="525" type="curve" smooth="yes"/>
      <point x="328" y="525"/>
      <point x="366" y="485"/>
      <point x="366" y="429" type="curve" smooth="yes"/>
      <point x="366" y="254" type="line"/>
      <point x="218" y="254" type="line"/>
      <point x="218" y="63" type="line" smooth="yes"/>
      <point x="218" y="31"/>
      <point x="235" y="8"/>
      <point x="267" y="8" type="curve" smooth="yes"/>
      <point x="298" y="8"/>
      <point x="316" y="31"/>
      <point x="316" y="63" type="curve" smooth="yes"/>
      <point x="316" y="159" type="line"/>
      <point x="366" y="159" type="line"/>
    </contour>
    <contour>
      <point x="316" y="268" type="line"/>
      <point x="316" y="457" type="line" smooth="yes"/>
      <point x="316" y="489"/>
      <point x="298" y="512"/>
      <point x="267" y="512" type="curve" smooth="yes"/>
      <point x="235" y="512"/>
      <point x="218" y="489"/>
      <point x="218" y="457" type="curve" smooth="yes"/>
      <point x="218" y="268" type="line"/>
    </contour>
    <contour>
      <point x="168" y="63" type="curve" smooth="yes"/>
      <point x="168" y="283" type="line"/>
      <point x="127" y="283" type="line" smooth="yes"/>
      <point x="95" y="283"/>
      <point x="78" y="263"/>
      <point x="78" y="228" type="curve" smooth="yes"/>
      <point x="78" y="63" type="line" smooth="yes"/>
      <point x="78" y="31"/>
      <point x="92" y="8"/>
      <point x="123" y="8" type="curve" smooth="yes"/>
      <point x="153" y="8"/>
      <point x="168" y="31"/>
    </contour>
  </outline>
</glyph>
<glyph name="eth" format="1">
  <advance width="260"/>
  <unicode hex="00F0"/>
  <outline>
    <contour>
      <point x="253" y="652" type="line"/>
      <point x="227" y="637" type="line"/>
      <point x="228" y="631"/>
      <point x="229" y="624"/>
      <point x="229" y="617" type="curve" smooth="yes"/>
      <point x="229" y="91" type="line" smooth="yes"/>
      <point x="229" y="35"/>
      <point x="192" y="-5"/>
      <point x="130" y="-5" type="curve" smooth="yes"/>
      <point x="68" y="-5"/>
      <point x="31" y="35"/>
      <point x="31" y="91" type="curve" smooth="yes"/>
      <point x="31" y="437" type="line" smooth="yes"/>
      <point x="31" y="494"/>
      <point x="62" y="525"/>
      <point x="116" y="525" type="curve" smooth="yes"/>
      <point x="142" y="525"/>
      <point x="163" y="518"/>
      <point x="179" y="508" type="curve"/>
      <point x="179" y="613" type="line"/>
      <point x="118" y="581" type="line"/>
      <point x="118" y="596" type="line"/>
      <point x="179" y="628" type="line"/>
      <point x="179" y="641" type="line" smooth="yes"/>
      <point x="179" y="667"/>
      <point x="165" y="687"/>
      <point x="138" y="687" type="curve" smooth="yes"/>
      <point x="119" y="687" type="line"/>
      <point x="119" y="700" type="line"/>
      <point x="143" y="700" type="line" smooth="yes"/>
      <point x="182" y="700"/>
      <point x="210" y="680"/>
      <point x="221" y="651" type="curve"/>
      <point x="253" y="667" type="line"/>
    </contour>
    <contour>
      <point x="179" y="63" type="curve" smooth="yes"/>
      <point x="179" y="494" type="line"/>
      <point x="164" y="504"/>
      <point x="147" y="510"/>
      <point x="128" y="510" type="curve" smooth="yes"/>
      <point x="97" y="510"/>
      <point x="81" y="489"/>
      <point x="81" y="455" type="curve" smooth="yes"/>
      <point x="81" y="63" type="line" smooth="yes"/>
      <point x="81" y="31"/>
      <point x="98" y="8"/>
      <point x="130" y="8" type="curve" smooth="yes"/>
      <point x="162" y="8"/>
      <point x="179" y="31"/>
    </contour>
  </outline>
</glyph>
<glyph name="oslash" format="1">
  <advance width="260"/>
  <unicode hex="00F8"/>
  <outline>
    <contour>
      <point x="229" y="91" type="line" smooth="yes"/>
      <point x="229" y="35"/>
      <point x="192" y="-5"/>
      <point x="130" y="-5" type="curve" smooth="yes"/>
      <point x="112" y="-5"/>
      <point x="95" y="-1"/>
      <point x="82" y="5" type="curve"/>
      <point x="67" y="-60" type="line"/>
      <point x="50" y="-60" type="line"/>
      <point x="66" y="14" type="line"/>
      <point x="43" y="31"/>
      <point x="31" y="59"/>
      <point x="31" y="91" type="curve" smooth="yes"/>
      <point x="31" y="429" type="line" smooth="yes"/>
      <point x="31" y="485"/>
      <point x="68" y="525"/>
      <point x="130" y="525" type="curve" smooth="yes"/>
      <point x="148" y="525"/>
      <point x="165" y="521"/>
      <point x="178" y="515" type="curve"/>
      <point x="193" y="580" type="line"/>
      <point x="211" y="580" type="line"/>
      <point x="194" y="505" type="line"/>
      <point x="217" y="488"/>
      <point x="229" y="461"/>
      <point x="229" y="429" type="curve" smooth="yes"/>
    </contour>
    <contour>
      <point x="172" y="488" type="line"/>
      <point x="165" y="503"/>
      <point x="150" y="512"/>
      <point x="130" y="512" type="curve" smooth="yes"/>
      <point x="98" y="512"/>
      <point x="81" y="489"/>
      <point x="81" y="457" type="curve" smooth="yes"/>
      <point x="81" y="79" type="line"/>
    </contour>
    <contour>
      <point x="179" y="63" type="curve" smooth="yes"/>
      <point x="179" y="437" type="line"/>
      <point x="88" y="32" type="line"/>
      <point x="95" y="17"/>
      <point x="110" y="8"/>
      <point x="130" y="8" type="curve" smooth="yes"/>
      <point x="162" y="8"/>
      <point x="179" y="31"/>
    </contour>
  </outline>
</glyph>
<glyph name="thorn" format="1">
  <advance width="261"/>
  <unicode hex="00FE"/>
  <outline>
    <contour>
      <point x="229" y="78" type="line" smooth="yes"/>
      <point x="229" y="23"/>
      <point x="205" y="-5"/>
      <point x="153" y="-5" type="curve" smooth="yes"/>
      <point x="124" y="-5"/>
      <point x="103" y="3"/>
      <point x="86" y="16" type="curve"/>
      <point x="86" y="-127" type="line"/>
      <point x="111" y="-127" type="line"/>
      <point x="111" y="-140" type="line"/>
      <point x="11" y="-140" type="line"/>
      <point x="11" y="-127" type="line"/>
      <point x="36" y="-127" type="line"/>
      <point x="36" y="687" type="line"/>
      <point x="11" y="687" type="line"/>
      <point x="11" y="700" type="line"/>
      <point x="86" y="700" type="line"/>
      <point x="86" y="504" type="line"/>
      <point x="103" y="517"/>
      <point x="124" y="525"/>
      <point x="153" y="525" type="curve" smooth="yes"/>
      <point x="205" y="525"/>
      <point x="229" y="497"/>
      <point x="229" y="442" type="curve" smooth="yes"/>
    </contour>
    <contour>
      <point x="179" y="60" type="curve" smooth="yes"/>
      <point x="179" y="460" type="line" smooth="yes"/>
      <point x="179" y="491"/>
      <point x="167" y="510"/>
      <point x="139" y="510" type="curve" smooth="yes"/>
      <point x="121" y="510"/>
      <point x="102" y="501"/>
      <point x="86" y="488" type="curve"/>
      <point x="86" y="32" type="line"/>
      <point x="102" y="19"/>
      <point x="121" y="10"/>
      <point x="139" y="10" type="curve" smooth="yes"/>
      <point x="167" y="10"/>
      <point x="179" y="29"/>
    </contour>
  </outline>
</glyph>
<glyph name="Lslash" format="1">
  <advance width="267"/>
  <unicode hex="0141"/>
  <outline>
    <contour>
      <point x="242" y="0" type="line"/>
      <point x="22" y="0" type="line"/>
      <point x="22" y="13" type="line"/>
      <point x="47" y="13" type="line"/>
      <point x="47" y="332" type="line"/>
      <point x="22" y="317" type="line"/>
      <point x="22" y="333" type="line"/>
      <point x="47" y="348" type="line"/>
      <point x="47" y="687" type="line"/>
      <point x="22" y="687" type="line"/>
      <point x="22" y="700" type="line"/>
      <point x="124" y="700" type="line"/>
      <point x="124" y="687" type="line"/>
      <point x="99" y="687" type="line"/>
      <point x="99" y="380" type="line"/>
      <point x="159" y="416" type="line"/>
      <point x="159" y="401" type="line"/>
      <point x="99" y="364" type="line"/>
      <point x="99" y="13" type="line"/>
      <point x="190" y="13" type="line"/>
      <point x="190" y="210" type="line"/>
      <point x="242" y="210" type="line"/>
    </contour>
  </outline>
</glyph>
<glyph name="lslash" format="1">
  <advance width="134"/>
  <unicode hex="0142"/>
  <outline>
    <contour>
      <point x="117" y="0" type="line"/>
      <point x="17" y="0" type="line"/>
      <point x="17" y="13" type="line"/>
      <point x="42" y="13" type="line"/>
      <point x="42" y="337" type="line"/>
      <point x="17" y="322" type="line"/>
      <point x="17" y="339" type="line"/>
      <point x="42" y="354" type="line"/>
      <point x="42" y="687" type="line"/>
      <point x="17" y="687" type="line"/>
      <point x="17" y="700" type="line"/>
      <point x="92" y="700" type="line"/>
      <point x="92" y="384" type="line"/>
      <point x="117" y="399" type="line"/>
      <point x="117" y="384" type="line"/>
      <point x="92" y="369" type="line"/>
      <point x="92" y="13" type="line"/>
      <point x="117" y="13" type="line"/>
    </contour>
  </outline>
</glyph>
<glyph name="OE" format="1">
  <advance width="436"/>
  <unicode hex="0152"/>
  <outline>
    <contour>
      <point x="403" y="0" type="line"/>
      <point x="148" y="0" type="line" smooth="yes"/>
      <point x="89" y="0"/>
      <point x="37" y="39"/>
      <point x="37" y="106" type="curve" smooth="yes"/>
      <point x="37" y="594" type="line" smooth="yes"/>
      <point x="37" y="661"/>
      <point x="89" y="700"/>
      <point x="148" y="700" type="curve" smooth="yes"/>
      <point x="403" y="700" type="line"/>
      <point x="403" y="490" type="line"/>
      <point x="351" y="490" type="line"/>
      <point x="351" y="687" type="line"/>
      <point x="253" y="687" type="line"/>
      <point x="253" y="377" type="line"/>
      <point x="347" y="377" type="line"/>
      <point x="347" y="363" type="line"/>
      <point x="253" y="363" type="line"/>
      <point x="253" y="13" type="line"/>
      <point x="351" y="13" type="line"/>
      <point x="351" y="210" type="line"/>
      <point x="403" y="210" type="line"/>
    </contour>
    <contour>
      <point x="201" y="13" type="line"/>
      <point x="201" y="687" type="line"/>
      <point x="148" y="687" type="line" smooth="yes"/>
      <point x="113" y="687"/>
      <point x="89" y="661"/>
      <point x="89" y="622" type="curve" smooth="yes"/>
      <point x="89" y="78" type="line" smooth="yes"/>
      <point x="89" y="39"/>
      <point x="113" y="13"/>
      <point x="148" y="13" type="curve" smooth="yes"/>
    </contour>
  </outline>
</glyph>
<glyph name="oe" format="1">
  <advance width="408"/>
  <unicode hex="0153"/>
  <outline>
    <contour>
      <point x="377" y="91" type="line" smooth="yes"/>
      <point x="377" y="35"/>
      <point x="340" y="-5"/>
      <point x="278" y="-5" type="curve" smooth="yes"/>
      <point x="242" y="-5"/>
      <point x="219" y="11"/>
      <point x="204" y="30" type="curve"/>
      <point x="189" y="10"/>
      <point x="168" y="-5"/>
      <point x="130" y="-5" type="curve" smooth="yes"/>
      <point x="68" y="-5"/>
      <point x="31" y="35"/>
      <point x="31" y="91" type="curve" smooth="yes"/>
      <point x="31" y="429" type="line" smooth="yes"/>
      <point x="31" y="485"/>
      <point x="68" y="525"/>
      <point x="130" y="525" type="curve" smooth="yes"/>
      <point x="166" y="525"/>
      <point x="188" y="511"/>
      <point x="204" y="492" type="curve"/>
      <point x="219" y="511"/>
      <point x="242" y="525"/>
      <point x="278" y="525" type="curve" smooth="yes"/>
      <point x="340" y="525"/>
      <point x="377" y="485"/>
      <point x="377" y="429" type="curve" smooth="yes"/>
      <point x="377" y="254" type="line"/>
      <point x="229" y="254" type="line"/>
      <point x="229" y="63" type="line" smooth="yes"/>
      <point x="229" y="31"/>
      <point x="246" y="8"/>
      <point x="278" y="8" type="curve" smooth="yes"/>
      <point x="310" y="8"/>
      <point x="327" y="31"/>
      <point x="327" y="63" type="curve" smooth="yes"/>
      <point x="327" y="159" type="line"/>
      <point x="377" y="159" type="line"/>
    </contour>
    <contour>
      <point x="327" y="268" type="line"/>
      <point x="327" y="457" type="line" smooth="yes"/>
      <point x="327" y="489"/>
      <point x="310" y="512"/>
      <point x="278" y="512" type="curve" smooth="yes"/>
      <point x="246" y="512"/>
      <point x="229" y="489"/>
      <point x="229" y="457" type="curve" smooth="yes"/>
      <point x="229" y="268" type="line"/>
    </contour>
    <contour>
      <point x="179" y="63" type="curve" smooth="yes"/>
      <point x="179" y="457" type="line" smooth="yes"/>
      <point x="179" y="489"/>
      <point x="162" y="512"/>
      <point x="130" y="512" type="curve" smooth="yes"/>
      <point x="98" y="512"/>
      <point x="81" y="489"/>
      <point x="81" y="457" type="curve" smooth="yes"/>
      <point x="81" y="63" type="line" smooth="yes"/>
      <point x="81" y="31"/>
      <point x="98" y="8"/>
      <point x="130" y="8" type="curve" smooth="yes"/>
      <point x="162" y="8"/>
      <point x="179" y="31"/>
    </contour>
  </outline>
</glyph>
<glyph name="florin" format="1">
  <advance width="161"/>
  <unicode hex="0192"/>
  <outline>
    <contour>
      <point x="152" y="687" type="line"/>
      <point x="137" y="687" type="line" smooth="yes"/>
      <point x="111" y="687"/>
      <point x="97" y="667"/>
      <point x="97" y="641" type="curve" smooth="yes"/>
      <point x="97" y="520" type="line"/>
      <point x="137" y="520" type="line"/>
      <point x="137" y="507" type="line"/>
      <point x="97" y="507" type="line"/>
      <point x="97" y="-57" type="line" smooth="yes"/>
      <point x="97" y="-105"/>
      <point x="63" y="-140"/>
      <point x="9" y="-140" type="curve" smooth="yes"/>
      <point x="-11" y="-140" type="line"/>
      <point x="-11" y="-127" type="line"/>
      <point x="2" y="-127" type="line" smooth="yes"/>
      <point x="31" y="-127"/>
      <point x="45" y="-107"/>
      <point x="45" y="-81" type="curve" smooth="yes"/>
      <point x="45" y="507" type="line"/>
      <point x="20" y="507" type="line"/>
      <point x="20" y="520" type="line"/>
      <point x="45" y="520" type="line"/>
      <point x="45" y="617" type="line" smooth="yes"/>
      <point x="45" y="665"/>
      <point x="79" y="700"/>
      <point x="133" y="700" type="curve" smooth="yes"/>
      <point x="152" y="700" type="line"/>
    </contour>
  </outline>
</glyph>
<glyph name="caron" format="1">
  <advance width="300"/>
  <unicode hex="02C7"/>
  <outline>
    <contour>
      <point x="232" y="677" type="line"/>
      <point x="161" y="550" type="line"/>
      <point x="138" y="550" type="line"/>
      <point x="67" y="677" type="line"/>
      <point x="83" y="677" type="line"/>
      <point x="150" y="606" type="line"/>
      <point x="217" y="677" type="line"/>
    </contour>
  </outline>
</glyph>
<glyph name="breve" format="1">
  <advance width="300"/>
  <unicode hex="02D8"/>
  <outline>
    <contour>
      <point x="230" y="628" type="line" smooth="yes"/>
      <point x="230" y="588"/>
      <point x="203" y="560"/>
      <point x="150" y="560" type="curve" smooth="yes"/>
      <point x="97" y="560"/>
      <point x="70" y="588"/>
      <point x="70" y="628" type="curve" smooth="yes"/>
      <point x="70" y="639" type="line"/>
      <point x="117" y="639" type="line"/>
      <point x="117" y="611" type="line" smooth="yes"/>
      <point x="117" y="588"/>
      <point x="128" y="573"/>
      <point x="150" y="573" type="curve" smooth="yes"/>
      <point x="172" y="573"/>
      <point x="183" y="588"/>
      <point x="183" y="611" type="curve" smooth="yes"/>
      <point x="183" y="639" type="line"/>
      <point x="230" y="639" type="line"/>
    </contour>
  </outline>
</glyph>
<glyph name="dotaccent" format="1">
  <advance width="300"/>
  <unicode hex="02D9"/>
  <outline>
    <contour>
      <point x="173" y="558" type="line"/>
      <point x="127" y="558" type="line"/>
      <point x="127" y="651" type="line"/>
      <point x="173" y="651" type="line"/>
    </contour>
  </outline>
</glyph>
<glyph name="ring" format="1">
  <advance width="300"/>
  <unicode hex="02DA"/>
  <outline>
    <contour>
      <point x="228" y="614" type="curve" smooth="yes"/>
      <point x="228" y="574"/>
      <point x="200" y="550"/>
      <point x="150" y="550" type="curve" smooth="yes"/>
      <point x="100" y="550"/>
      <point x="72" y="574"/>
      <point x="72" y="614" type="curve" smooth="yes"/>
      <point x="72" y="652"/>
      <point x="99" y="677"/>
      <point x="150" y="677" type="curve" smooth="yes"/>
      <point x="201" y="677"/>
      <point x="228" y="652"/>
    </contour>
    <contour>
      <point x="182" y="599" type="curve" smooth="yes"/>
      <point x="182" y="628" type="line" smooth="yes"/>
      <point x="182" y="651"/>
      <point x="170" y="665"/>
      <point x="150" y="665" type="curve" smooth="yes"/>
      <point x="130" y="665"/>
      <point x="118" y="651"/>
      <point x="118" y="628" type="curve" smooth="yes"/>
      <point x="118" y="599" type="line" smooth="yes"/>
      <point x="118" y="576"/>
      <point x="130" y="562"/>
      <point x="150" y="562" type="curve" smooth="yes"/>
      <point x="170" y="562"/>
      <point x="182" y="576"/>
    </contour>
  </outline>
</glyph>
<glyph name="ogonek" format="1">
  <advance width="300"/>
  <unicode hex="02DB"/>
  <outline>
    <contour>
      <point x="219" y="-109" type="line"/>
      <point x="204" y="-109" type="line" smooth="yes"/>
      <point x="151" y="-109"/>
      <point x="123" y="-77"/>
      <point x="123" y="-30" type="curve" smooth="yes"/>
      <point x="123" y="0" type="line"/>
      <point x="168" y="0" type="line"/>
      <point x="168" y="-47" type="line" smooth="yes"/>
      <point x="168" y="-75"/>
      <point x="182" y="-95"/>
      <point x="209" y="-95" type="curve" smooth="yes"/>
      <point x="219" y="-95" type="line"/>
    </contour>
  </outline>
</glyph>
<glyph name="tilde" format="1">
  <advance width="300"/>
  <unicode hex="02DC"/>
  <outline>
    <contour>
      <point x="242" y="630" type="line"/>
      <point x="238" y="611" type="line" smooth="yes"/>
      <point x="230" y="574"/>
      <point x="208" y="561"/>
      <point x="173" y="570" type="curve" smooth="yes"/>
      <point x="114" y="585" type="line" smooth="yes"/>
      <point x="89" y="591"/>
      <point x="79" y="582"/>
      <point x="71" y="563" type="curve"/>
      <point x="58" y="567" type="line"/>
      <point x="62" y="586" type="line" smooth="yes"/>
      <point x="70" y="623"/>
      <point x="92" y="636"/>
      <point x="127" y="627" type="curve" smooth="yes"/>
      <point x="186" y="612" type="line" smooth="yes"/>
      <point x="211" y="606"/>
      <point x="221" y="615"/>
      <point x="229" y="634" type="curve"/>
    </contour>
  </outline>
</glyph>
<glyph name="hungarumlaut" format="1">
  <advance width="300"/>
  <unicode hex="02DD"/>
  <outline>
    <contour>
      <point x="241" y="670" type="line"/>
      <point x="154" y="550" type="line"/>
      <point x="138" y="550" type="line"/>
      <point x="185" y="677" type="line"/>
      <point x="241" y="677" type="line"/>
    </contour>
    <contour>
      <point x="154" y="670" type="line"/>
      <point x="67" y="550" type="line"/>
      <point x="51" y="550" type="line"/>
      <point x="98" y="677" type="line"/>
      <point x="154" y="677" type="line"/>
    </contour>
  </outline>
</glyph>
<glyph name="endash" format="1">
  <advance width="200"/>
  <unicode hex="2013"/>
  <outline>
    <contour>
      <point x="182" y="362" type="line"/>
      <point x="18" y="362" type="line"/>
      <point x="18" y="378" type="line"/>
      <point x="182" y="378" type="line"/>
    </contour>
  </outline>
</glyph>
<glyph name="quoteleft" format="1">
  <advance width="121"/>
  <unicode hex="2018"/>
  <unicode hex="02BB"/>
  <outline>
    <contour>
      <point x="92" y="701" type="line"/>
      <point x="80" y="508" type="line"/>
      <point x="27" y="508" type="line"/>
      <point x="27" y="527" type="line"/>
      <point x="72" y="701" type="line"/>
    </contour>
  </outline>
</glyph>
<glyph name="quoteright" format="1">
  <advance width="121"/>
  <unicode hex="2019"/>
  <unicode hex="02BC"/>
  <outline>
    <contour>
      <point x="94" y="681" type="line"/>
      <point x="49" y="507" type="line"/>
      <point x="29" y="507" type="line"/>
      <point x="41" y="700" type="line"/>
      <point x="94" y="700" type="line"/>
    </contour>
  </outline>
</glyph>
<glyph name="quotesinglbase" format="1">
  <advance width="121"/>
  <unicode hex="201A"/>
  <outline>
    <contour>
      <point x="92" y="81" type="line"/>
      <point x="47" y="-93" type="line"/>
      <point x="27" y="-93" type="line"/>
      <point x="39" y="100" type="line"/>
      <point x="92" y="100" type="line"/>
    </contour>
  </outline>
</glyph>
<glyph name="quotedblleft" format="1">
  <advance width="211"/>
  <unicode hex="201C"/>
  <outline>
    <contour>
      <point x="182" y="701" type="line"/>
      <point x="170" y="508" type="line"/>
      <point x="117" y="508" type="line"/>
      <point x="117" y="527" type="line"/>
      <point x="162" y="701" type="line"/>
    </contour>
    <contour>
      <point x="92" y="701" type="line"/>
      <point x="80" y="508" type="line"/>
      <point x="27" y="508" type="line"/>
      <point x="27" y="527" type="line"/>
      <point x="72" y="701" type="line"/>
    </contour>
  </outline>
</glyph>
<glyph name="quotedblright" format="1">
  <advance width="211"/>
  <unicode hex="201D"/>
  <outline>
    <contour>
      <point x="184" y="681" type="line"/>
      <point x="139" y="507" type="line"/>
      <point x="119" y="507" type="line"/>
      <point x="131" y="700" type="line"/>
      <point x="184" y="700" type="line"/>
    </contour>
    <contour>
      <point x="94" y="681" type="line"/>
      <point x="49" y="507" type="line"/>
      <point x="29" y="507" type="line"/>
      <point x="41" y="700" type="line"/>
      <point x="94" y="700" type="line"/>
    </contour>
  </outline>
</glyph>
<glyph name="quotedblbase" format="1">
  <advance width="211"/>
  <unicode hex="201E"/>
  <outline>
    <contour>
      <point x="182" y="81" type="line"/>
      <point x="137" y="-93" type="line"/>
      <point x="117" y="-93" type="line"/>
      <point x="129" y="100" type="line"/>
      <point x="182" y="100" type="line"/>
    </contour>
    <contour>
      <point x="92" y="81" type="line"/>
      <point x="47" y="-93" type="line"/>
      <point x="27" y="-93" type="line"/>
      <point x="39" y="100" type="line"/>
      <point x="92" y="100" type="line"/>
    </contour>
  </outline>
</glyph>
<glyph name="dagger" format="1">
  <advance width="242"/>
  <unicode hex="2020"/>
  <outline>
    <contour>
      <point x="227" y="490" type="line"/>
      <point x="146" y="490" type="line"/>
      <point x="146" y="272" type="line"/>
      <point x="130" y="0" type="line"/>
      <point x="112" y="0" type="line"/>
      <point x="96" y="272" type="line"/>
      <point x="96" y="490" type="line"/>
      <point x="15" y="490" type="line"/>
      <point x="15" y="503" type="line"/>
      <point x="96" y="503" type="line"/>
      <point x="96" y="687" type="line"/>
      <point x="71" y="687" type="line"/>
      <point x="71" y="700" type="line"/>
      <point x="171" y="700" type="line"/>
      <point x="171" y="687" type="line"/>
      <point x="146" y="687" type="line"/>
      <point x="146" y="503" type="line"/>
      <point x="227" y="503" type="line"/>
    </contour>
  </outline>
</glyph>
<glyph name="ellipsis" format="1">
  <advance width="351"/>
  <unicode hex="2026"/>
  <outline>
    <contour>
      <point x="318" y="0" type="line"/>
      <point x="267" y="0" type="line"/>
      <point x="267" y="100" type="line"/>
      <point x="318" y="100" type="line"/>
    </contour>
    <contour>
      <point x="201" y="0" type="line"/>
      <point x="150" y="0" type="line"/>
      <point x="150" y="100" type="line"/>
      <point x="201" y="100" type="line"/>
    </contour>
    <contour>
      <point x="84" y="0" type="line"/>
      <point x="33" y="0" type="line"/>
      <point x="33" y="100" type="line"/>
      <point x="84" y="100" type="line"/>
    </contour>
  </outline>
</glyph>
<glyph name="perthousand" format="1">
  <advance width="691"/>
  <unicode hex="2030"/>
  <outline>
    <contour>
      <point x="660" y="81" type="line" smooth="yes"/>
      <point x="660" y="29"/>
      <point x="625" y="-5"/>
      <point x="575" y="-5" type="curve" smooth="yes"/>
      <point x="523" y="-5"/>
      <point x="488" y="29"/>
      <point x="488" y="81" type="curve" smooth="yes"/>
      <point x="488" y="319" type="line" smooth="yes"/>
      <point x="488" y="371"/>
      <point x="523" y="405"/>
      <point x="575" y="405" type="curve" smooth="yes"/>
      <point x="625" y="405"/>
      <point x="660" y="371"/>
      <point x="660" y="319" type="curve" smooth="yes"/>
    </contour>
    <contour>
      <point x="203" y="381" type="line" smooth="yes"/>
      <point x="203" y="329"/>
      <point x="168" y="295"/>
      <point x="118" y="295" type="curve" smooth="yes"/>
      <point x="66" y="295"/>
      <point x="31" y="329"/>
      <point x="31" y="381" type="curve" smooth="yes"/>
      <point x="31" y="619" type="line" smooth="yes"/>
      <point x="31" y="671"/>
      <point x="66" y="705"/>
      <point x="118" y="705" type="curve" smooth="yes"/>
      <point x="168" y="705"/>
      <point x="203" y="671"/>
      <point x="203" y="619" type="curve" smooth="yes"/>
    </contour>
    <contour>
      <point x="377" y="700" type="line"/>
      <point x="117" y="0" type="line"/>
      <point x="100" y="0" type="line"/>
      <point x="360" y="700" type="line"/>
    </contour>
    <contour>
      <point x="446" y="81" type="line" smooth="yes"/>
      <point x="446" y="29"/>
      <point x="411" y="-5"/>
      <point x="361" y="-5" type="curve" smooth="yes"/>
      <point x="309" y="-5"/>
      <point x="274" y="29"/>
      <point x="274" y="81" type="curve" smooth="yes"/>
      <point x="274" y="319" type="line" smooth="yes"/>
      <point x="274" y="371"/>
      <point x="309" y="405"/>
      <point x="361" y="405" type="curve" smooth="yes"/>
      <point x="411" y="405"/>
      <point x="446" y="371"/>
      <point x="446" y="319" type="curve" smooth="yes"/>
    </contour>
    <contour>
      <point x="614" y="57" type="curve" smooth="yes"/>
      <point x="614" y="343" type="line" smooth="yes"/>
      <point x="614" y="373"/>
      <point x="600" y="392"/>
      <point x="575" y="392" type="curve" smooth="yes"/>
      <point x="549" y="392"/>
      <point x="534" y="374"/>
      <point x="534" y="343" type="curve" smooth="yes"/>
      <point x="534" y="57" type="line" smooth="yes"/>
      <point x="534" y="26"/>
      <point x="549" y="8"/>
      <point x="575" y="8" type="curve" smooth="yes"/>
      <point x="600" y="8"/>
      <point x="614" y="27"/>
    </contour>
    <contour>
      <point x="157" y="357" type="curve" smooth="yes"/>
      <point x="157" y="643" type="line" smooth="yes"/>
      <point x="157" y="673"/>
      <point x="143" y="692"/>
      <point x="118" y="692" type="curve" smooth="yes"/>
      <point x="92" y="692"/>
      <point x="77" y="674"/>
      <point x="77" y="643" type="curve" smooth="yes"/>
      <point x="77" y="357" type="line" smooth="yes"/>
      <point x="77" y="326"/>
      <point x="92" y="308"/>
      <point x="118" y="308" type="curve" smooth="yes"/>
      <point x="143" y="308"/>
      <point x="157" y="327"/>
    </contour>
    <contour>
      <point x="400" y="57" type="curve" smooth="yes"/>
      <point x="400" y="343" type="line" smooth="yes"/>
      <point x="400" y="373"/>
      <point x="386" y="392"/>
      <point x="361" y="392" type="curve" smooth="yes"/>
      <point x="335" y="392"/>
      <point x="320" y="374"/>
      <point x="320" y="343" type="curve" smooth="yes"/>
      <point x="320" y="57" type="line" smooth="yes"/>
      <point x="320" y="26"/>
      <point x="335" y="8"/>
      <point x="361" y="8" type="curve" smooth="yes"/>
      <point x="386" y="8"/>
      <point x="400" y="27"/>
    </contour>
  </outline>
</glyph>
<glyph name="guilsinglright" format="1">
  <advance width="174"/>
  <unicode hex="203A"/>
  <outline>
    <contour>
      <point x="150" y="322" type="line"/>
      <point x="54" y="141" type="line"/>
      <point x="36" y="141" type="line"/>
      <point x="95" y="330" type="line"/>
      <point x="36" y="520" type="line"/>
      <point x="54" y="520" type="line"/>
      <point x="150" y="338" type="line"/>
    </contour>
  </outline>
</glyph>
<glyph name="fraction" format="1">
  <advance width="153"/>
  <unicode hex="2044"/>
  <outline>
    <contour>
      <point x="137" y="700" type="line"/>
      <point x="33" y="0" type="line"/>
      <point x="16" y="0" type="line"/>
      <point x="120" y="700" type="line"/>
    </contour>
  </outline>
</glyph>
<glyph name="Euro" format="1">
  <advance width="291"/>
  <unicode hex="20AC"/>
  <outline>
    <contour>
      <point x="94" y="322" type="line"/>
      <point x="94" y="71" type="line" smooth="yes"/>
      <point x="94" y="32"/>
      <point x="115" y="8"/>
      <point x="150" y="8" type="curve" smooth="yes"/>
      <point x="185" y="8"/>
      <point x="206" y="32"/>
      <point x="206" y="71" type="curve" smooth="yes"/>
      <point x="206" y="210" type="line"/>
      <point x="258" y="210" type="line"/>
      <point x="258" y="99" type="line" smooth="yes"/>
      <point x="258" y="33"/>
      <point x="210" y="-5"/>
      <point x="150" y="-5" type="curve" smooth="yes"/>
      <point x="90" y="-5"/>
      <point x="42" y="33"/>
      <point x="42" y="99" type="curve" smooth="yes"/>
      <point x="42" y="322" type="line"/>
      <point x="12" y="322" type="line"/>
      <point x="12" y="335" type="line"/>
      <point x="42" y="335" type="line"/>
      <point x="42" y="373" type="line"/>
      <point x="12" y="373" type="line"/>
      <point x="12" y="386" type="line"/>
      <point x="42" y="386" type="line"/>
      <point x="42" y="601" type="line" smooth="yes"/>
      <point x="42" y="667"/>
      <point x="90" y="705"/>
      <point x="150" y="705" type="curve" smooth="yes"/>
      <point x="210" y="705"/>
      <point x="258" y="667"/>
      <point x="258" y="601" type="curve" smooth="yes"/>
      <point x="258" y="490" type="line"/>
      <point x="206" y="490" type="line"/>
      <point x="206" y="629" type="line" smooth="yes"/>
      <point x="206" y="668"/>
      <point x="185" y="692"/>
      <point x="150" y="692" type="curve" smooth="yes"/>
      <point x="115" y="692"/>
      <point x="94" y="668"/>
      <point x="94" y="629" type="curve" smooth="yes"/>
      <point x="94" y="386" type="line"/>
      <point x="195" y="386" type="line"/>
      <point x="195" y="373" type="line"/>
      <point x="94" y="373" type="line"/>
      <point x="94" y="335" type="line"/>
      <point x="195" y="335" type="line"/>
      <point x="195" y="322" type="line"/>
    </contour>
  </outline>
</glyph>
<glyph name="trademark" format="1">
  <advance width="480"/>
  <unicode hex="2122"/>
  <outline>
    <contour>
      <point x="463" y="290" type="line"/>
      <point x="391" y="290" type="line"/>
      <point x="391" y="300" type="line"/>
      <point x="408" y="300" type="line"/>
      <point x="408" y="615" type="line"/>
      <point x="353" y="290" type="line"/>
      <point x="327" y="290" type="line"/>
      <point x="269" y="615" type="line"/>
      <point x="269" y="300" type="line"/>
      <point x="286" y="300" type="line"/>
      <point x="286" y="290" type="line"/>
      <point x="236" y="290" type="line"/>
      <point x="236" y="300" type="line"/>
      <point x="254" y="300" type="line"/>
      <point x="254" y="690" type="line"/>
      <point x="236" y="690" type="line"/>
      <point x="236" y="700" type="line"/>
      <point x="292" y="700" type="line"/>
      <point x="350" y="355" type="line"/>
      <point x="407" y="700" type="line"/>
      <point x="463" y="700" type="line"/>
      <point x="463" y="690" type="line"/>
      <point x="445" y="690" type="line"/>
      <point x="445" y="300" type="line"/>
      <point x="463" y="300" type="line"/>
    </contour>
    <contour>
      <point x="207" y="553" type="line"/>
      <point x="170" y="553" type="line"/>
      <point x="170" y="690" type="line"/>
      <point x="132" y="690" type="line"/>
      <point x="132" y="300" type="line"/>
      <point x="149" y="300" type="line"/>
      <point x="149" y="290" type="line"/>
      <point x="76" y="290" type="line"/>
      <point x="76" y="300" type="line"/>
      <point x="93" y="300" type="line"/>
      <point x="93" y="690" type="line"/>
      <point x="58" y="690" type="line"/>
      <point x="58" y="553" type="line"/>
      <point x="21" y="553" type="line"/>
      <point x="21" y="700" type="line"/>
      <point x="207" y="700" type="line"/>
    </contour>
  </outline>
</glyph>
<glyph name="radical" format="1">
  <advance width="258"/>
  <unicode hex="221A"/>
  <outline>
    <contour>
      <point x="247" y="700" type="line"/>
      <point x="152" y="-1" type="line"/>
      <point x="110" y="-1" type="line"/>
      <point x="32" y="286" type="line"/>
      <point x="8" y="286" type="line"/>
      <point x="8" y="299" type="line"/>
      <point x="82" y="299" type="line"/>
      <point x="142" y="62" type="line"/>
      <point x="227" y="700" type="line"/>
    </contour>
  </outline>
</glyph>
<glyph name="f_f_i" format="1">
  <advance width="423"/>
  <unicode hex="FB03"/>
  <outline>
    <contour>
      <point x="409" y="0" type="line"/>
      <point x="309" y="0" type="line"/>
      <point x="309" y="13" type="line"/>
      <point x="334" y="13" type="line"/>
      <point x="334" y="507" type="line"/>
      <point x="238" y="507" type="line"/>
      <point x="238" y="13" type="line"/>
      <point x="263" y="13" type="line"/>
      <point x="263" y="0" type="line"/>
      <point x="163" y="0" type="line"/>
      <point x="163" y="13" type="line"/>
      <point x="188" y="13" type="line"/>
      <point x="188" y="507" type="line"/>
      <point x="91" y="507" type="line"/>
      <point x="91" y="13" type="line"/>
      <point x="116" y="13" type="line"/>
      <point x="116" y="0" type="line"/>
      <point x="16" y="0" type="line"/>
      <point x="16" y="13" type="line"/>
      <point x="41" y="13" type="line"/>
      <point x="41" y="507" type="line"/>
      <point x="16" y="507" type="line"/>
      <point x="16" y="520" type="line"/>
      <point x="41" y="520" type="line"/>
      <point x="41" y="617" type="line" smooth="yes"/>
      <point x="41" y="665"/>
      <point x="74" y="700"/>
      <point x="127" y="700" type="curve" smooth="yes"/>
      <point x="149" y="700" type="line"/>
      <point x="149" y="687" type="line"/>
      <point x="132" y="687" type="line" smooth="yes"/>
      <point x="105" y="687"/>
      <point x="91" y="667"/>
      <point x="91" y="641" type="curve" smooth="yes"/>
      <point x="91" y="520" type="line"/>
      <point x="188" y="520" type="line"/>
      <point x="188" y="617" type="line" smooth="yes"/>
      <point x="188" y="665"/>
      <point x="221" y="700"/>
      <point x="274" y="700" type="curve" smooth="yes"/>
      <point x="384" y="700" type="line"/>
      <point x="384" y="600" type="line"/>
      <point x="333" y="600" type="line"/>
      <point x="333" y="687" type="line"/>
      <point x="279" y="687" type="line" smooth="yes"/>
      <point x="252" y="687"/>
      <point x="238" y="667"/>
      <point x="238" y="641" type="curve" smooth="yes"/>
      <point x="238" y="520" type="line"/>
      <point x="384" y="520" type="line"/>
      <point x="384" y="13" type="line"/>
      <point x="409" y="13" type="line"/>
    </contour>
  </outline>
</glyph>
<glyph name="B.sc" format="1">
  <advance width="260"/>
  <outline>
    <contour>
      <point x="229" y="96" type="line" smooth="yes"/>
      <point x="229" y="40"/>
      <point x="193" y="0"/>
      <point x="130" y="0" type="curve" smooth="yes"/>
      <point x="16" y="0" type="line"/>
      <point x="16" y="13" type="line"/>
      <point x="41" y="13" type="line"/>
      <point x="41" y="507" type="line"/>
      <point x="16" y="507" type="line"/>
      <point x="16" y="520" type="line"/>
      <point x="129" y="520" type="line" smooth="yes"/>
      <point x="192" y="520"/>
      <point x="228" y="480"/>
      <point x="228" y="424" type="curve" smooth="yes"/>
      <point x="228" y="358" type="line" smooth="yes"/>
      <point x="228" y="314"/>
      <point x="205" y="283"/>
      <point x="164" y="270" type="curve"/>
      <point x="206" y="258"/>
      <point x="229" y="225"/>
      <point x="229" y="182" type="curve" smooth="yes"/>
    </contour>
    <contour>
      <point x="178" y="332" type="curve" smooth="yes"/>
      <point x="178" y="452" type="line" smooth="yes"/>
      <point x="178" y="484"/>
      <point x="162" y="507"/>
      <point x="129" y="507" type="curve" smooth="yes"/>
      <point x="91" y="507" type="line"/>
      <point x="91" y="277" type="line"/>
      <point x="127" y="277" type="line" smooth="yes"/>
      <point x="161" y="277"/>
      <point x="178" y="298"/>
    </contour>
    <contour>
      <point x="179" y="68" type="curve" smooth="yes"/>
      <point x="179" y="208" type="line" smooth="yes"/>
      <point x="179" y="242"/>
      <point x="162" y="263"/>
      <point x="129" y="263" type="curve" smooth="yes"/>
      <point x="91" y="263" type="line"/>
      <point x="91" y="13" type="line"/>
      <point x="130" y="13" type="line" smooth="yes"/>
      <point x="163" y="13"/>
      <point x="179" y="36"/>
    </contour>
  </outline>
</glyph>
<glyph name="Ccedilla.sc" format="1">
  <advance width="258"/>
  <outline>
    <contour>
      <point x="229" y="91" type="line" smooth="yes"/>
      <point x="229" y="35"/>
      <point x="192" y="-5"/>
      <point x="131" y="-5" type="curve"/>
      <point x="117" y="-28" type="line"/>
      <point x="126" y="-28" type="line" smooth="yes"/>
      <point x="160" y="-28"/>
      <point x="183" y="-42"/>
      <point x="183" y="-75" type="curve" smooth="yes"/>
      <point x="183" y="-107"/>
      <point x="156" y="-120"/>
      <point x="122" y="-120" type="curve" smooth="yes"/>
      <point x="83" y="-120" type="line"/>
      <point x="83" y="-109" type="line"/>
      <point x="104" y="-109" type="line" smooth="yes"/>
      <point x="131" y="-109"/>
      <point x="139" y="-96"/>
      <point x="139" y="-75" type="curve" smooth="yes"/>
      <point x="139" y="-52"/>
      <point x="131" y="-41"/>
      <point x="104" y="-41" type="curve" smooth="yes"/>
      <point x="99" y="-41" type="line"/>
      <point x="99" y="-31" type="line"/>
      <point x="115" y="-4" type="line"/>
      <point x="62" y="2"/>
      <point x="31" y="40"/>
      <point x="31" y="91" type="curve" smooth="yes"/>
      <point x="31" y="429" type="line" smooth="yes"/>
      <point x="31" y="485"/>
      <point x="68" y="525"/>
      <point x="130" y="525" type="curve" smooth="yes"/>
      <point x="192" y="525"/>
      <point x="229" y="485"/>
      <point x="229" y="429" type="curve" smooth="yes"/>
      <point x="229" y="361" type="line"/>
      <point x="179" y="361" type="line"/>
      <point x="179" y="457" type="line" smooth="yes"/>
      <point x="179" y="489"/>
      <point x="162" y="512"/>
      <point x="130" y="512" type="curve" smooth="yes"/>
      <point x="98" y="512"/>
      <point x="81" y="489"/>
      <point x="81" y="457" type="curve" smooth="yes"/>
      <point x="81" y="63" type="line" smooth="yes"/>
      <point x="81" y="31"/>
      <point x="98" y="8"/>
      <point x="130" y="8" type="curve" smooth="yes"/>
      <point x="162" y="8"/>
      <point x="179" y="31"/>
      <point x="179" y="63" type="curve" smooth="yes"/>
      <point x="179" y="159" type="line"/>
      <point x="229" y="159" type="line"/>
    </contour>
  </outline>
</glyph>
<glyph name="E.sc" format="1">
  <advance width="253"/>
  <outline>
    <contour>
      <point x="225" y="0" type="line"/>
      <point x="16" y="0" type="line"/>
      <point x="16" y="13" type="line"/>
      <point x="41" y="13" type="line"/>
      <point x="41" y="507" type="line"/>
      <point x="16" y="507" type="line"/>
      <point x="16" y="520" type="line"/>
      <point x="225" y="520" type="line"/>
      <point x="225" y="361" type="line"/>
      <point x="175" y="361" type="line"/>
      <point x="175" y="507" type="line"/>
      <point x="91" y="507" type="line"/>
      <point x="91" y="277" type="line"/>
      <point x="169" y="277" type="line"/>
      <point x="169" y="263" type="line"/>
      <point x="91" y="263" type="line"/>
      <point x="91" y="13" type="line"/>
      <point x="175" y="13" type="line"/>
      <point x="175" y="159" type="line"/>
      <point x="225" y="159" type="line"/>
    </contour>
  </outline>
</glyph>
<glyph name="Eth.sc" format="1">
  <advance width="265"/>
  <outline>
    <contour>
      <point x="234" y="96" type="line" smooth="yes"/>
      <point x="234" y="40"/>
      <point x="196" y="0"/>
      <point x="135" y="0" type="curve" smooth="yes"/>
      <point x="16" y="0" type="line"/>
      <point x="16" y="13" type="line"/>
      <point x="41" y="13" type="line"/>
      <point x="41" y="263" type="line"/>
      <point x="16" y="263" type="line"/>
      <point x="16" y="277" type="line"/>
      <point x="41" y="277" type="line"/>
      <point x="41" y="507" type="line"/>
      <point x="16" y="507" type="line"/>
      <point x="16" y="520" type="line"/>
      <point x="135" y="520" type="line" smooth="yes"/>
      <point x="196" y="520"/>
      <point x="234" y="480"/>
      <point x="234" y="424" type="curve" smooth="yes"/>
    </contour>
    <contour>
      <point x="184" y="68" type="curve" smooth="yes"/>
      <point x="184" y="452" type="line" smooth="yes"/>
      <point x="184" y="484"/>
      <point x="166" y="507"/>
      <point x="135" y="507" type="curve" smooth="yes"/>
      <point x="91" y="507" type="line"/>
      <point x="91" y="277" type="line"/>
      <point x="118" y="277" type="line"/>
      <point x="118" y="263" type="line"/>
      <point x="91" y="263" type="line"/>
      <point x="91" y="13" type="line"/>
      <point x="135" y="13" type="line" smooth="yes"/>
      <point x="166" y="13"/>
      <point x="184" y="36"/>
    </contour>
  </outline>
</glyph>
<glyph name="Euro.sc" format="1">
  <advance width="263"/>
  <outline>
    <contour>
      <point x="86" y="243" type="line"/>
      <point x="184" y="243" type="line"/>
      <point x="184" y="230" type="line"/>
      <point x="86" y="230" type="line"/>
      <point x="86" y="63" type="line" smooth="yes"/>
      <point x="86" y="31"/>
      <point x="103" y="8"/>
      <point x="135" y="8" type="curve" smooth="yes"/>
      <point x="167" y="8"/>
      <point x="184" y="31"/>
      <point x="184" y="63" type="curve" smooth="yes"/>
      <point x="184" y="159" type="line"/>
      <point x="234" y="159" type="line"/>
      <point x="234" y="91" type="line" smooth="yes"/>
      <point x="234" y="35"/>
      <point x="197" y="-5"/>
      <point x="135" y="-5" type="curve" smooth="yes"/>
      <point x="73" y="-5"/>
      <point x="36" y="35"/>
      <point x="36" y="91" type="curve" smooth="yes"/>
      <point x="36" y="230" type="line"/>
      <point x="6" y="230" type="line"/>
      <point x="6" y="243" type="line"/>
      <point x="36" y="243" type="line"/>
      <point x="36" y="281" type="line"/>
      <point x="6" y="281" type="line"/>
      <point x="6" y="294" type="line"/>
      <point x="36" y="294" type="line"/>
      <point x="36" y="429" type="line" smooth="yes"/>
      <point x="36" y="485"/>
      <point x="73" y="525"/>
      <point x="135" y="525" type="curve" smooth="yes"/>
      <point x="197" y="525"/>
      <point x="234" y="485"/>
      <point x="234" y="429" type="curve" smooth="yes"/>
      <point x="234" y="361" type="line"/>
      <point x="184" y="361" type="line"/>
      <point x="184" y="457" type="line" smooth="yes"/>
      <point x="184" y="489"/>
      <point x="167" y="512"/>
      <point x="135" y="512" type="curve" smooth="yes"/>
      <point x="103" y="512"/>
      <point x="86" y="489"/>
      <point x="86" y="457" type="curve" smooth="yes"/>
      <point x="86" y="294" type="line"/>
      <point x="184" y="294" type="line"/>
      <point x="184" y="281" type="line"/>
      <point x="86" y="281" type="line"/>
    </contour>
  </outline>
</glyph>
<glyph name="F.sc" format="1">
  <advance width="240"/>
  <outline>
    <contour>
      <point x="220" y="361" type="line"/>
      <point x="170" y="361" type="line"/>
      <point x="170" y="507" type="line"/>
      <point x="91" y="507" type="line"/>
      <point x="91" y="277" type="line"/>
      <point x="164" y="277" type="line"/>
      <point x="164" y="263" type="line"/>
      <point x="91" y="263" type="line"/>
      <point x="91" y="13" type="line"/>
      <point x="116" y="13" type="line"/>
      <point x="116" y="0" type="line"/>
      <point x="16" y="0" type="line"/>
      <point x="16" y="13" type="line"/>
      <point x="41" y="13" type="line"/>
      <point x="41" y="507" type="line"/>
      <point x="16" y="507" type="line"/>
      <point x="16" y="520" type="line"/>
      <point x="220" y="520" type="line"/>
    </contour>
  </outline>
</glyph>
<glyph name="I.sc" format="1">
  <advance width="138"/>
  <outline>
    <contour>
      <point x="119" y="0" type="line"/>
      <point x="19" y="0" type="line"/>
      <point x="19" y="13" type="line"/>
      <point x="44" y="13" type="line"/>
      <point x="44" y="507" type="line"/>
      <point x="19" y="507" type="line"/>
      <point x="19" y="520" type="line"/>
      <point x="119" y="520" type="line"/>
      <point x="119" y="507" type="line"/>
      <point x="94" y="507" type="line"/>
      <point x="94" y="13" type="line"/>
      <point x="119" y="13" type="line"/>
    </contour>
  </outline>
</glyph>
<glyph name="J.sc" format="1">
  <advance width="240"/>
  <outline>
    <contour>
      <point x="226" y="507" type="line"/>
      <point x="201" y="507" type="line"/>
      <point x="201" y="89" type="line" smooth="yes"/>
      <point x="201" y="33"/>
      <point x="164" y="-5"/>
      <point x="109" y="-5" type="curve" smooth="yes"/>
      <point x="53" y="-5"/>
      <point x="17" y="33"/>
      <point x="17" y="89" type="curve" smooth="yes"/>
      <point x="17" y="159" type="line"/>
      <point x="67" y="159" type="line"/>
      <point x="67" y="58" type="line" smooth="yes"/>
      <point x="67" y="26"/>
      <point x="81" y="8"/>
      <point x="109" y="8" type="curve" smooth="yes"/>
      <point x="136" y="8"/>
      <point x="151" y="26"/>
      <point x="151" y="58" type="curve" smooth="yes"/>
      <point x="151" y="507" type="line"/>
      <point x="126" y="507" type="line"/>
      <point x="126" y="520" type="line"/>
      <point x="226" y="520" type="line"/>
    </contour>
  </outline>
</glyph>
<glyph name="K.sc" format="1">
  <advance width="257"/>
  <outline>
    <contour>
      <point x="255" y="0" type="line"/>
      <point x="180" y="0" type="line"/>
      <point x="91" y="259" type="line"/>
      <point x="91" y="13" type="line"/>
      <point x="116" y="13" type="line"/>
      <point x="116" y="0" type="line"/>
      <point x="16" y="0" type="line"/>
      <point x="16" y="13" type="line"/>
      <point x="41" y="13" type="line"/>
      <point x="41" y="507" type="line"/>
      <point x="16" y="507" type="line"/>
      <point x="16" y="520" type="line"/>
      <point x="116" y="520" type="line"/>
      <point x="116" y="507" type="line"/>
      <point x="91" y="507" type="line"/>
      <point x="91" y="280" type="line"/>
      <point x="197" y="507" type="line"/>
      <point x="172" y="507" type="line"/>
      <point x="172" y="520" type="line"/>
      <point x="241" y="520" type="line"/>
      <point x="241" y="507" type="line"/>
      <point x="216" y="507" type="line"/>
      <point x="126" y="311" type="line"/>
      <point x="229" y="13" type="line"/>
      <point x="255" y="13" type="line"/>
    </contour>
  </outline>
</glyph>
<glyph name="L.sc" format="1">
  <advance width="240"/>
  <outline>
    <contour>
      <point x="220" y="0" type="line"/>
      <point x="16" y="0" type="line"/>
      <point x="16" y="13" type="line"/>
      <point x="41" y="13" type="line"/>
      <point x="41" y="507" type="line"/>
      <point x="16" y="507" type="line"/>
      <point x="16" y="520" type="line"/>
      <point x="116" y="520" type="line"/>
      <point x="116" y="507" type="line"/>
      <point x="91" y="507" type="line"/>
      <point x="91" y="13" type="line"/>
      <point x="170" y="13" type="line"/>
      <point x="170" y="159" type="line"/>
      <point x="220" y="159" type="line"/>
    </contour>
  </outline>
</glyph>
<glyph name="Lslash.sc" format="1">
  <advance width="240"/>
  <outline>
    <contour>
      <point x="220" y="0" type="line"/>
      <point x="16" y="0" type="line"/>
      <point x="16" y="13" type="line"/>
      <point x="41" y="13" type="line"/>
      <point x="41" y="222" type="line"/>
      <point x="16" y="207" type="line"/>
      <point x="16" y="224" type="line"/>
      <point x="41" y="239" type="line"/>
      <point x="41" y="507" type="line"/>
      <point x="16" y="507" type="line"/>
      <point x="16" y="520" type="line"/>
      <point x="116" y="520" type="line"/>
      <point x="116" y="507" type="line"/>
      <point x="91" y="507" type="line"/>
      <point x="91" y="269" type="line"/>
      <point x="152" y="306" type="line"/>
      <point x="152" y="290" type="line"/>
      <point x="91" y="253" type="line"/>
      <point x="91" y="13" type="line"/>
      <point x="170" y="13" type="line"/>
      <point x="170" y="159" type="line"/>
      <point x="220" y="159" type="line"/>
    </contour>
  </outline>
</glyph>
<glyph name="OE.sc" format="1">
  <advance width="387"/>
  <outline>
    <contour>
      <point x="359" y="0" type="line"/>
      <point x="130" y="0" type="line" smooth="yes"/>
      <point x="68" y="0"/>
      <point x="31" y="40"/>
      <point x="31" y="96" type="curve" smooth="yes"/>
      <point x="31" y="424" type="line" smooth="yes"/>
      <point x="31" y="480"/>
      <point x="68" y="520"/>
      <point x="130" y="520" type="curve" smooth="yes"/>
      <point x="359" y="520" type="line"/>
      <point x="359" y="361" type="line"/>
      <point x="309" y="361" type="line"/>
      <point x="309" y="507" type="line"/>
      <point x="225" y="507" type="line"/>
      <point x="225" y="277" type="line"/>
      <point x="303" y="277" type="line"/>
      <point x="303" y="263" type="line"/>
      <point x="225" y="263" type="line"/>
      <point x="225" y="13" type="line"/>
      <point x="309" y="13" type="line"/>
      <point x="309" y="159" type="line"/>
      <point x="359" y="159" type="line"/>
    </contour>
    <contour>
      <point x="175" y="13" type="line"/>
      <point x="175" y="507" type="line"/>
      <point x="130" y="507" type="line" smooth="yes"/>
      <point x="98" y="507"/>
      <point x="81" y="484"/>
      <point x="81" y="452" type="curve" smooth="yes"/>
      <point x="81" y="68" type="line" smooth="yes"/>
      <point x="81" y="36"/>
      <point x="98" y="13"/>
      <point x="130" y="13" type="curve" smooth="yes"/>
    </contour>
  </outline>
</glyph>
<glyph name="P.sc" format="1">
  <advance width="248"/>
  <outline>
    <contour>
      <point x="229" y="319" type="line" smooth="yes"/>
      <point x="229" y="263"/>
      <point x="193" y="222"/>
      <point x="130" y="222" type="curve" smooth="yes"/>
      <point x="91" y="222" type="line"/>
      <point x="91" y="13" type="line"/>
      <point x="116" y="13" type="line"/>
      <point x="116" y="0" type="line"/>
      <point x="16" y="0" type="line"/>
      <point x="16" y="13" type="line"/>
      <point x="41" y="13" type="line"/>
      <point x="41" y="507" type="line"/>
      <point x="16" y="507" type="line"/>
      <point x="16" y="520" type="line"/>
      <point x="130" y="520" type="line" smooth="yes"/>
      <point x="193" y="520"/>
      <point x="229" y="480"/>
      <point x="229" y="424" type="curve" smooth="yes"/>
    </contour>
    <contour>
      <point x="179" y="291" type="curve" smooth="yes"/>
      <point x="179" y="452" type="line" smooth="yes"/>
      <point x="179" y="484"/>
      <point x="163" y="507"/>
      <point x="130" y="507" type="curve" smooth="yes"/>
      <point x="91" y="507" type="line"/>
      <point x="91" y="236" type="line"/>
      <point x="130" y="236" type="line" smooth="yes"/>
      <point x="163" y="236"/>
      <point x="179" y="257"/>
    </contour>
  </outline>
</glyph>
<glyph name="Q.sc" format="1">
  <advance width="260"/>
  <outline>
    <contour>
      <point x="229" y="91" type="line" smooth="yes"/>
      <point x="229" y="38"/>
      <point x="195" y="-2"/>
      <point x="138" y="-5" type="curve"/>
      <point x="138" y="-90" type="line"/>
      <point x="123" y="-90" type="line"/>
      <point x="123" y="-5" type="line"/>
      <point x="66" y="-2"/>
      <point x="31" y="38"/>
      <point x="31" y="91" type="curve" smooth="yes"/>
      <point x="31" y="429" type="line" smooth="yes"/>
      <point x="31" y="485"/>
      <point x="68" y="525"/>
      <point x="130" y="525" type="curve" smooth="yes"/>
      <point x="192" y="525"/>
      <point x="229" y="485"/>
      <point x="229" y="429" type="curve" smooth="yes"/>
    </contour>
    <contour>
      <point x="179" y="63" type="curve" smooth="yes"/>
      <point x="179" y="457" type="line" smooth="yes"/>
      <point x="179" y="489"/>
      <point x="162" y="512"/>
      <point x="130" y="512" type="curve" smooth="yes"/>
      <point x="98" y="512"/>
      <point x="81" y="489"/>
      <point x="81" y="457" type="curve" smooth="yes"/>
      <point x="81" y="63" type="line" smooth="yes"/>
      <point x="81" y="33"/>
      <point x="95" y="11"/>
      <point x="123" y="8" type="curve"/>
      <point x="123" y="115" type="line"/>
      <point x="138" y="115" type="line"/>
      <point x="138" y="8" type="line"/>
      <point x="165" y="11"/>
      <point x="179" y="33"/>
    </contour>
  </outline>
</glyph>
<glyph name="T.sc" format="1">
  <advance width="268"/>
  <outline>
    <contour>
      <point x="251" y="361" type="line"/>
      <point x="204" y="361" type="line"/>
      <point x="204" y="507" type="line"/>
      <point x="159" y="507" type="line"/>
      <point x="159" y="13" type="line"/>
      <point x="184" y="13" type="line"/>
      <point x="184" y="0" type="line"/>
      <point x="84" y="0" type="line"/>
      <point x="84" y="13" type="line"/>
      <point x="109" y="13" type="line"/>
      <point x="109" y="507" type="line"/>
      <point x="64" y="507" type="line"/>
      <point x="64" y="361" type="line"/>
      <point x="17" y="361" type="line"/>
      <point x="17" y="520" type="line"/>
      <point x="251" y="520" type="line"/>
    </contour>
  </outline>
</glyph>
<glyph name="Thorn.sc" format="1">
  <advance width="248"/>
  <outline>
    <contour>
      <point x="229" y="219" type="line" smooth="yes"/>
      <point x="229" y="163"/>
      <point x="193" y="122"/>
      <point x="130" y="122" type="curve" smooth="yes"/>
      <point x="91" y="122" type="line"/>
      <point x="91" y="13" type="line"/>
      <point x="116" y="13" type="line"/>
      <point x="116" y="0" type="line"/>
      <point x="16" y="0" type="line"/>
      <point x="16" y="13" type="line"/>
      <point x="41" y="13" type="line"/>
      <point x="41" y="507" type="line"/>
      <point x="16" y="507" type="line"/>
      <point x="16" y="520" type="line"/>
      <point x="116" y="520" type="line"/>
      <point x="116" y="507" type="line"/>
      <point x="91" y="507" type="line"/>
      <point x="91" y="420" type="line"/>
      <point x="130" y="420" type="line" smooth="yes"/>
      <point x="193" y="420"/>
      <point x="229" y="380"/>
      <point x="229" y="324" type="curve" smooth="yes"/>
    </contour>
    <contour>
      <point x="179" y="191" type="curve" smooth="yes"/>
      <point x="179" y="352" type="line" smooth="yes"/>
      <point x="179" y="384"/>
      <point x="163" y="407"/>
      <point x="130" y="407" type="curve" smooth="yes"/>
      <point x="91" y="407" type="line"/>
      <point x="91" y="136" type="line"/>
      <point x="130" y="136" type="line" smooth="yes"/>
      <point x="163" y="136"/>
      <point x="179" y="157"/>
    </contour>
  </outline>
</glyph>
<glyph name="U.sc" format="1">
  <advance width="271"/>
  <outline>
    <contour>
      <point x="258" y="507" type="line"/>
      <point x="233" y="507" type="line"/>
      <point x="233" y="91" type="line" smooth="yes"/>
      <point x="233" y="35"/>
      <point x="197" y="-5"/>
      <point x="136" y="-5" type="curve" smooth="yes"/>
      <point x="73" y="-5"/>
      <point x="38" y="35"/>
      <point x="38" y="91" type="curve" smooth="yes"/>
      <point x="38" y="507" type="line"/>
      <point x="13" y="507" type="line"/>
      <point x="13" y="520" type="line"/>
      <point x="112" y="520" type="line"/>
      <point x="112" y="507" type="line"/>
      <point x="88" y="507" type="line"/>
      <point x="88" y="63" type="line" smooth="yes"/>
      <point x="88" y="31"/>
      <point x="103" y="8"/>
      <point x="136" y="8" type="curve" smooth="yes"/>
      <point x="167" y="8"/>
      <point x="183" y="31"/>
      <point x="183" y="63" type="curve" smooth="yes"/>
      <point x="183" y="507" type="line"/>
      <point x="159" y="507" type="line"/>
      <point x="159" y="520" type="line"/>
      <point x="258" y="520" type="line"/>
    </contour>
  </outline>
</glyph>
<glyph name="W.sc" format="1">
  <advance width="368"/>
  <outline>
    <contour>
      <point x="358" y="507" type="line"/>
      <point x="333" y="507" type="line"/>
      <point x="282" y="-1" type="line"/>
      <point x="237" y="-1" type="line"/>
      <point x="183" y="422" type="line"/>
      <point x="131" y="-1" type="line"/>
      <point x="85" y="-1" type="line"/>
      <point x="35" y="507" type="line"/>
      <point x="10" y="507" type="line"/>
      <point x="10" y="520" type="line"/>
      <point x="110" y="520" type="line"/>
      <point x="110" y="507" type="line"/>
      <point x="85" y="507" type="line"/>
      <point x="122" y="80" type="line"/>
      <point x="175" y="520" type="line"/>
      <point x="220" y="520" type="line"/>
      <point x="272" y="80" type="line"/>
      <point x="312" y="507" type="line"/>
      <point x="287" y="507" type="line"/>
      <point x="287" y="520" type="line"/>
      <point x="358" y="520" type="line"/>
    </contour>
  </outline>
</glyph>
<glyph name="X.sc" format="1">
  <advance width="248"/>
  <outline>
    <contour>
      <point x="241" y="0" type="line"/>
      <point x="139" y="0" type="line"/>
      <point x="139" y="13" type="line"/>
      <point x="164" y="13" type="line"/>
      <point x="112" y="213" type="line"/>
      <point x="54" y="13" type="line"/>
      <point x="79" y="13" type="line"/>
      <point x="79" y="0" type="line"/>
      <point x="7" y="0" type="line"/>
      <point x="7" y="13" type="line"/>
      <point x="32" y="13" type="line"/>
      <point x="103" y="246" type="line"/>
      <point x="34" y="507" type="line"/>
      <point x="9" y="507" type="line"/>
      <point x="9" y="520" type="line"/>
      <point x="111" y="520" type="line"/>
      <point x="111" y="507" type="line"/>
      <point x="86" y="507" type="line"/>
      <point x="136" y="314" type="line"/>
      <point x="193" y="507" type="line"/>
      <point x="168" y="507" type="line"/>
      <point x="168" y="520" type="line"/>
      <point x="239" y="520" type="line"/>
      <point x="239" y="507" type="line"/>
      <point x="214" y="507" type="line"/>
      <point x="145" y="281" type="line"/>
      <point x="216" y="13" type="line"/>
      <point x="241" y="13" type="line"/>
    </contour>
  </outline>
</glyph>
<glyph name="Y.sc" format="1">
  <advance width="256"/>
  <outline>
    <contour>
      <point x="249" y="507" type="line"/>
      <point x="224" y="507" type="line"/>
      <point x="153" y="217" type="line"/>
      <point x="153" y="13" type="line"/>
      <point x="178" y="13" type="line"/>
      <point x="178" y="0" type="line"/>
      <point x="78" y="0" type="line"/>
      <point x="78" y="13" type="line"/>
      <point x="103" y="13" type="line"/>
      <point x="103" y="216" type="line"/>
      <point x="32" y="507" type="line"/>
      <point x="7" y="507" type="line"/>
      <point x="7" y="520" type="line"/>
      <point x="112" y="520" type="line"/>
      <point x="112" y="507" type="line"/>
      <point x="87" y="507" type="line"/>
      <point x="145" y="258" type="line"/>
      <point x="203" y="507" type="line"/>
      <point x="178" y="507" type="line"/>
      <point x="178" y="520" type="line"/>
      <point x="249" y="520" type="line"/>
    </contour>
  </outline>
</glyph>
<glyph name="ampersand.sc" format="1">
  <advance width="262"/>
  <outline>
    <contour>
      <point x="251" y="263" type="line"/>
      <point x="225" y="263" type="line"/>
      <point x="225" y="91" type="line" smooth="yes"/>
      <point x="225" y="35"/>
      <point x="188" y="-5"/>
      <point x="127" y="-5" type="curve" smooth="yes"/>
      <point x="66" y="-5"/>
      <point x="29" y="35"/>
      <point x="29" y="91" type="curve" smooth="yes"/>
      <point x="29" y="182" type="line" smooth="yes"/>
      <point x="29" y="225"/>
      <point x="52" y="258"/>
      <point x="94" y="270" type="curve"/>
      <point x="53" y="283"/>
      <point x="29" y="314"/>
      <point x="29" y="358" type="curve" smooth="yes"/>
      <point x="29" y="429" type="line" smooth="yes"/>
      <point x="29" y="485"/>
      <point x="66" y="525"/>
      <point x="127" y="525" type="curve" smooth="yes"/>
      <point x="188" y="525"/>
      <point x="225" y="485"/>
      <point x="225" y="429" type="curve" smooth="yes"/>
      <point x="225" y="361" type="line"/>
      <point x="175" y="361" type="line"/>
      <point x="175" y="457" type="line" smooth="yes"/>
      <point x="175" y="489"/>
      <point x="158" y="512"/>
      <point x="127" y="512" type="curve" smooth="yes"/>
      <point x="95" y="512"/>
      <point x="79" y="489"/>
      <point x="79" y="457" type="curve" smooth="yes"/>
      <point x="79" y="332" type="line" smooth="yes"/>
      <point x="79" y="298"/>
      <point x="98" y="277"/>
      <point x="130" y="277" type="curve" smooth="yes"/>
      <point x="251" y="277" type="line"/>
    </contour>
    <contour>
      <point x="175" y="63" type="curve" smooth="yes"/>
      <point x="175" y="263" type="line"/>
      <point x="130" y="263" type="line" smooth="yes"/>
      <point x="98" y="263"/>
      <point x="79" y="242"/>
      <point x="79" y="208" type="curve" smooth="yes"/>
      <point x="79" y="63" type="line" smooth="yes"/>
      <point x="79" y="31"/>
      <point x="95" y="8"/>
      <point x="127" y="8" type="curve" smooth="yes"/>
      <point x="158" y="8"/>
      <point x="175" y="31"/>
    </contour>
  </outline>
</glyph>
<glyph name="asciitilde.sc" format="1">
  <advance width="300"/>
  <outline>
    <contour>
      <point x="249" y="302" type="line"/>
      <point x="245" y="283" type="line" smooth="yes"/>
      <point x="237" y="246"/>
      <point x="217" y="234"/>
      <point x="180" y="242" type="curve" smooth="yes"/>
      <point x="107" y="257" type="line" smooth="yes"/>
      <point x="80" y="263"/>
      <point x="72" y="254"/>
      <point x="64" y="235" type="curve"/>
      <point x="51" y="239" type="line"/>
      <point x="55" y="258" type="line" smooth="yes"/>
      <point x="63" y="295"/>
      <point x="83" y="307"/>
      <point x="120" y="299" type="curve" smooth="yes"/>
      <point x="193" y="284" type="line" smooth="yes"/>
      <point x="219" y="279"/>
      <point x="228" y="287"/>
      <point x="236" y="306" type="curve"/>
    </contour>
  </outline>
</glyph>
<glyph name="at.sc" format="1">
  <advance width="368"/>
  <outline>
    <contour>
      <point x="336" y="160" type="line" smooth="yes"/>
      <point x="336" y="120"/>
      <point x="316" y="103"/>
      <point x="281" y="103" type="curve" smooth="yes"/>
      <point x="256" y="103"/>
      <point x="241" y="112"/>
      <point x="228" y="128" type="curve"/>
      <point x="214" y="116"/>
      <point x="197" y="103"/>
      <point x="164" y="103" type="curve" smooth="yes"/>
      <point x="122" y="103"/>
      <point x="103" y="125"/>
      <point x="103" y="165" type="curve" smooth="yes"/>
      <point x="103" y="357" type="line" smooth="yes"/>
      <point x="103" y="398"/>
      <point x="122" y="419"/>
      <point x="164" y="419" type="curve" smooth="yes"/>
      <point x="186" y="419"/>
      <point x="205" y="413"/>
      <point x="217" y="404" type="curve"/>
      <point x="217" y="416" type="line"/>
      <point x="254" y="416" type="line"/>
      <point x="254" y="155" type="line" smooth="yes"/>
      <point x="254" y="127"/>
      <point x="267" y="114"/>
      <point x="286" y="114" type="curve" smooth="yes"/>
      <point x="306" y="114"/>
      <point x="319" y="126"/>
      <point x="319" y="155" type="curve" smooth="yes"/>
      <point x="319" y="388" type="line" smooth="yes"/>
      <point x="319" y="456"/>
      <point x="264" y="511"/>
      <point x="184" y="511" type="curve" smooth="yes"/>
      <point x="104" y="511"/>
      <point x="49" y="456"/>
      <point x="49" y="388" type="curve" smooth="yes"/>
      <point x="49" y="137" type="line" smooth="yes"/>
      <point x="49" y="69"/>
      <point x="104" y="14"/>
      <point x="184" y="14" type="curve" smooth="yes"/>
      <point x="268" y="14" type="line"/>
      <point x="268" y="0" type="line"/>
      <point x="184" y="0" type="line" smooth="yes"/>
      <point x="94" y="0"/>
      <point x="32" y="63"/>
      <point x="32" y="139" type="curve" smooth="yes"/>
      <point x="32" y="386" type="line" smooth="yes"/>
      <point x="32" y="462"/>
      <point x="94" y="525"/>
      <point x="184" y="525" type="curve" smooth="yes"/>
      <point x="274" y="525"/>
      <point x="336" y="462"/>
      <point x="336" y="386" type="curve" smooth="yes"/>
    </contour>
    <contour>
      <point x="217" y="133" type="curve"/>
      <point x="217" y="393" type="line"/>
      <point x="206" y="402"/>
      <point x="191" y="408"/>
      <point x="174" y="408" type="curve" smooth="yes"/>
      <point x="153" y="408"/>
      <point x="140" y="394"/>
      <point x="140" y="371" type="curve" smooth="yes"/>
      <point x="140" y="150" type="line" smooth="yes"/>
      <point x="140" y="127"/>
      <point x="153" y="114"/>
      <point x="172" y="114" type="curve" smooth="yes"/>
      <point x="190" y="114"/>
      <point x="206" y="122"/>
    </contour>
  </outline>
</glyph>
<glyph name="braceleft.sc" format="1">
  <advance width="208"/>
  <outline>
    <contour>
      <point x="187" y="0" type="line"/>
      <point x="172" y="0" type="line" smooth="yes"/>
      <point x="111" y="0"/>
      <point x="73" y="40"/>
      <point x="73" y="96" type="curve" smooth="yes"/>
      <point x="73" y="209" type="line" smooth="yes"/>
      <point x="73" y="244"/>
      <point x="53" y="263"/>
      <point x="26" y="263" type="curve" smooth="yes"/>
      <point x="11" y="263" type="line"/>
      <point x="11" y="277" type="line"/>
      <point x="26" y="277" type="line" smooth="yes"/>
      <point x="53" y="277"/>
      <point x="73" y="295"/>
      <point x="73" y="333" type="curve" smooth="yes"/>
      <point x="73" y="424" type="line" smooth="yes"/>
      <point x="73" y="480"/>
      <point x="111" y="520"/>
      <point x="172" y="520" type="curve" smooth="yes"/>
      <point x="187" y="520" type="line"/>
      <point x="187" y="507" type="line"/>
      <point x="173" y="507" type="line" smooth="yes"/>
      <point x="141" y="507"/>
      <point x="124" y="485"/>
      <point x="124" y="451" type="curve" smooth="yes"/>
      <point x="124" y="360" type="line" smooth="yes"/>
      <point x="124" y="312"/>
      <point x="97" y="281"/>
      <point x="61" y="270" type="curve"/>
      <point x="96" y="258"/>
      <point x="124" y="231"/>
      <point x="124" y="180" type="curve" smooth="yes"/>
      <point x="124" y="69" type="line" smooth="yes"/>
      <point x="124" y="35"/>
      <point x="141" y="13"/>
      <point x="173" y="13" type="curve" smooth="yes"/>
      <point x="187" y="13" type="line"/>
    </contour>
  </outline>
</glyph>
<glyph name="braceright.sc" format="1">
  <advance width="208"/>
  <outline>
    <contour>
      <point x="197" y="263" type="line"/>
      <point x="182" y="263" type="line" smooth="yes"/>
      <point x="155" y="263"/>
      <point x="135" y="244"/>
      <point x="135" y="209" type="curve" smooth="yes"/>
      <point x="135" y="96" type="line" smooth="yes"/>
      <point x="135" y="40"/>
      <point x="97" y="0"/>
      <point x="36" y="0" type="curve" smooth="yes"/>
      <point x="21" y="0" type="line"/>
      <point x="21" y="13" type="line"/>
      <point x="35" y="13" type="line" smooth="yes"/>
      <point x="67" y="13"/>
      <point x="84" y="35"/>
      <point x="84" y="69" type="curve" smooth="yes"/>
      <point x="84" y="180" type="line" smooth="yes"/>
      <point x="84" y="231"/>
      <point x="112" y="258"/>
      <point x="147" y="270" type="curve"/>
      <point x="111" y="281"/>
      <point x="84" y="312"/>
      <point x="84" y="360" type="curve" smooth="yes"/>
      <point x="84" y="451" type="line" smooth="yes"/>
      <point x="84" y="485"/>
      <point x="67" y="507"/>
      <point x="35" y="507" type="curve" smooth="yes"/>
      <point x="21" y="507" type="line"/>
      <point x="21" y="520" type="line"/>
      <point x="36" y="520" type="line" smooth="yes"/>
      <point x="97" y="520"/>
      <point x="135" y="480"/>
      <point x="135" y="424" type="curve" smooth="yes"/>
      <point x="135" y="333" type="line" smooth="yes"/>
      <point x="135" y="295"/>
      <point x="155" y="277"/>
      <point x="182" y="277" type="curve" smooth="yes"/>
      <point x="197" y="277" type="line"/>
    </contour>
  </outline>
</glyph>
<glyph name="bracketleft.sc" format="1">
  <advance width="174"/>
  <outline>
    <contour>
      <point x="153" y="0" type="line"/>
      <point x="43" y="0" type="line"/>
      <point x="43" y="520" type="line"/>
      <point x="153" y="520" type="line"/>
      <point x="153" y="507" type="line"/>
      <point x="94" y="507" type="line"/>
      <point x="94" y="13" type="line"/>
      <point x="153" y="13" type="line"/>
    </contour>
  </outline>
</glyph>
<glyph name="bracketright.sc" format="1">
  <advance width="174"/>
  <outline>
    <contour>
      <point x="131" y="0" type="line"/>
      <point x="21" y="0" type="line"/>
      <point x="21" y="13" type="line"/>
      <point x="80" y="13" type="line"/>
      <point x="80" y="507" type="line"/>
      <point x="21" y="507" type="line"/>
      <point x="21" y="520" type="line"/>
      <point x="131" y="520" type="line"/>
    </contour>
  </outline>
</glyph>
<glyph name="bullet" format="1">
  <advance width="221"/>
  <outline>
    <contour>
      <point x="183" y="284" type="line" smooth="yes"/>
      <point x="183" y="240"/>
      <point x="154" y="212"/>
      <point x="110" y="212" type="curve" smooth="yes"/>
      <point x="68" y="212"/>
      <point x="38" y="240"/>
      <point x="38" y="284" type="curve" smooth="yes"/>
      <point x="38" y="416" type="line" smooth="yes"/>
      <point x="38" y="461"/>
      <point x="68" y="489"/>
      <point x="110" y="489" type="curve" smooth="yes"/>
      <point x="153" y="489"/>
      <point x="183" y="461"/>
      <point x="183" y="416" type="curve" smooth="yes"/>
    </contour>
  </outline>
</glyph>
<glyph name="bullet.sc" format="1">
  <advance width="221"/>
  <outline>
    <contour>
      <point x="183" y="198" type="line" smooth="yes"/>
      <point x="183" y="154"/>
      <point x="154" y="126"/>
      <point x="110" y="126" type="curve" smooth="yes"/>
      <point x="68" y="126"/>
      <point x="38" y="154"/>
      <point x="38" y="198" type="curve" smooth="yes"/>
      <point x="38" y="330" type="line" smooth="yes"/>
      <point x="38" y="375"/>
      <point x="68" y="403"/>
      <point x="110" y="403" type="curve" smooth="yes"/>
      <point x="153" y="403"/>
      <point x="183" y="375"/>
      <point x="183" y="330" type="curve" smooth="yes"/>
    </contour>
  </outline>
</glyph>
<glyph name="cent.sc" format="1">
  <advance width="258"/>
  <outline>
    <contour>
      <point x="229" y="91" type="line" smooth="yes"/>
      <point x="229" y="38"/>
      <point x="196" y="-1"/>
      <point x="139" y="-5" type="curve"/>
      <point x="139" y="-60" type="line"/>
      <point x="121" y="-60" type="line"/>
      <point x="121" y="-5" type="line"/>
      <point x="64" y="-1"/>
      <point x="31" y="38"/>
      <point x="31" y="91" type="curve" smooth="yes"/>
      <point x="31" y="429" type="line" smooth="yes"/>
      <point x="31" y="482"/>
      <point x="64" y="521"/>
      <point x="121" y="525" type="curve"/>
      <point x="121" y="580" type="line"/>
      <point x="139" y="580" type="line"/>
      <point x="139" y="525" type="line"/>
      <point x="196" y="521"/>
      <point x="229" y="482"/>
      <point x="229" y="429" type="curve" smooth="yes"/>
      <point x="229" y="361" type="line"/>
      <point x="179" y="361" type="line"/>
      <point x="179" y="457" type="line" smooth="yes"/>
      <point x="179" y="489"/>
      <point x="162" y="512"/>
      <point x="130" y="512" type="curve" smooth="yes"/>
      <point x="98" y="512"/>
      <point x="81" y="489"/>
      <point x="81" y="457" type="curve" smooth="yes"/>
      <point x="81" y="63" type="line" smooth="yes"/>
      <point x="81" y="31"/>
      <point x="98" y="8"/>
      <point x="130" y="8" type="curve" smooth="yes"/>
      <point x="162" y="8"/>
      <point x="179" y="31"/>
      <point x="179" y="63" type="curve" smooth="yes"/>
      <point x="179" y="159" type="line"/>
      <point x="229" y="159" type="line"/>
    </contour>
  </outline>
</glyph>
<glyph name="copyright.sc" format="1">
  <advance width="368"/>
  <outline>
    <contour>
      <point x="336" y="134" type="line" smooth="yes"/>
      <point x="336" y="58"/>
      <point x="274" y="-5"/>
      <point x="184" y="-5" type="curve" smooth="yes"/>
      <point x="94" y="-5"/>
      <point x="32" y="58"/>
      <point x="32" y="134" type="curve" smooth="yes"/>
      <point x="32" y="386" type="line" smooth="yes"/>
      <point x="32" y="462"/>
      <point x="94" y="525"/>
      <point x="184" y="525" type="curve" smooth="yes"/>
      <point x="274" y="525"/>
      <point x="336" y="462"/>
      <point x="336" y="386" type="curve" smooth="yes"/>
    </contour>
    <contour>
      <point x="319" y="132" type="curve" smooth="yes"/>
      <point x="319" y="388" type="line" smooth="yes"/>
      <point x="319" y="456"/>
      <point x="264" y="511"/>
      <point x="184" y="511" type="curve" smooth="yes"/>
      <point x="104" y="511"/>
      <point x="49" y="456"/>
      <point x="49" y="388" type="curve" smooth="yes"/>
      <point x="49" y="132" type="line" smooth="yes"/>
      <point x="49" y="64"/>
      <point x="104" y="9"/>
      <point x="184" y="9" type="curve" smooth="yes"/>
      <point x="264" y="9"/>
      <point x="319" y="64"/>
    </contour>
    <contour>
      <point x="258" y="176" type="line" smooth="yes"/>
      <point x="258" y="130"/>
      <point x="224" y="104"/>
      <point x="183" y="104" type="curve" smooth="yes"/>
      <point x="141" y="104"/>
      <point x="106" y="130"/>
      <point x="106" y="176" type="curve" smooth="yes"/>
      <point x="106" y="348" type="line" smooth="yes"/>
      <point x="106" y="394"/>
      <point x="141" y="420"/>
      <point x="183" y="420" type="curve" smooth="yes"/>
      <point x="224" y="420"/>
      <point x="258" y="394"/>
      <point x="258" y="348" type="curve" smooth="yes"/>
      <point x="258" y="315" type="line"/>
      <point x="220" y="315" type="line"/>
      <point x="220" y="367" type="line" smooth="yes"/>
      <point x="220" y="394"/>
      <point x="207" y="410"/>
      <point x="183" y="410" type="curve" smooth="yes"/>
      <point x="159" y="410"/>
      <point x="144" y="394"/>
      <point x="144" y="367" type="curve" smooth="yes"/>
      <point x="144" y="157" type="line" smooth="yes"/>
      <point x="144" y="130"/>
      <point x="159" y="114"/>
      <point x="183" y="114" type="curve" smooth="yes"/>
      <point x="207" y="114"/>
      <point x="220" y="130"/>
      <point x="220" y="157" type="curve" smooth="yes"/>
      <point x="220" y="209" type="line"/>
      <point x="258" y="209" type="line"/>
    </contour>
  </outline>
</glyph>
<glyph name="dagger.sc" format="1">
  <advance width="212"/>
  <outline>
    <contour>
      <point x="197" y="361" type="line"/>
      <point x="131" y="361" type="line"/>
      <point x="131" y="272" type="line"/>
      <point x="115" y="0" type="line"/>
      <point x="97" y="0" type="line"/>
      <point x="81" y="272" type="line"/>
      <point x="81" y="361" type="line"/>
      <point x="15" y="361" type="line"/>
      <point x="15" y="374" type="line"/>
      <point x="81" y="374" type="line"/>
      <point x="81" y="507" type="line"/>
      <point x="56" y="507" type="line"/>
      <point x="56" y="520" type="line"/>
      <point x="156" y="520" type="line"/>
      <point x="156" y="507" type="line"/>
      <point x="131" y="507" type="line"/>
      <point x="131" y="374" type="line"/>
      <point x="197" y="374" type="line"/>
    </contour>
  </outline>
</glyph>
<glyph name="daggerdbl.sc" format="1">
  <advance width="212"/>
  <outline>
    <contour>
      <point x="197" y="191" type="line"/>
      <point x="131" y="191" type="line"/>
      <point x="115" y="0" type="line"/>
      <point x="97" y="0" type="line"/>
      <point x="81" y="191" type="line"/>
      <point x="15" y="191" type="line"/>
      <point x="15" y="204" type="line"/>
      <point x="81" y="204" type="line"/>
      <point x="81" y="361" type="line"/>
      <point x="15" y="361" type="line"/>
      <point x="15" y="374" type="line"/>
      <point x="81" y="374" type="line"/>
      <point x="81" y="507" type="line"/>
      <point x="56" y="507" type="line"/>
      <point x="56" y="520" type="line"/>
      <point x="156" y="520" type="line"/>
      <point x="156" y="507" type="line"/>
      <point x="131" y="507" type="line"/>
      <point x="131" y="374" type="line"/>
      <point x="197" y="374" type="line"/>
      <point x="197" y="361" type="line"/>
      <point x="131" y="361" type="line"/>
      <point x="131" y="204" type="line"/>
      <point x="197" y="204" type="line"/>
    </contour>
  </outline>
</glyph>
<glyph name="degree.sc" format="1">
  <advance width="223"/>
  <outline>
    <contour>
      <point x="194" y="296" type="line" smooth="yes"/>
      <point x="194" y="248"/>
      <point x="158" y="215"/>
      <point x="112" y="215" type="curve" smooth="yes"/>
      <point x="64" y="215"/>
      <point x="29" y="248"/>
      <point x="29" y="296" type="curve" smooth="yes"/>
      <point x="29" y="444" type="line" smooth="yes"/>
      <point x="29" y="492"/>
      <point x="64" y="525"/>
      <point x="112" y="525" type="curve" smooth="yes"/>
      <point x="158" y="525"/>
      <point x="194" y="492"/>
      <point x="194" y="444" type="curve" smooth="yes"/>
    </contour>
    <contour>
      <point x="149" y="272" type="curve" smooth="yes"/>
      <point x="149" y="468" type="line" smooth="yes"/>
      <point x="149" y="495"/>
      <point x="135" y="512"/>
      <point x="112" y="512" type="curve" smooth="yes"/>
      <point x="87" y="512"/>
      <point x="74" y="495"/>
      <point x="74" y="468" type="curve" smooth="yes"/>
      <point x="74" y="272" type="line" smooth="yes"/>
      <point x="74" y="245"/>
      <point x="87" y="228"/>
      <point x="112" y="228" type="curve" smooth="yes"/>
      <point x="135" y="228"/>
      <point x="149" y="245"/>
    </contour>
  </outline>
</glyph>
<glyph name="dollar.sc" format="1">
  <advance width="246"/>
  <outline>
    <contour>
      <point x="219" y="91" type="line" smooth="yes"/>
      <point x="219" y="38"/>
      <point x="189" y="-1"/>
      <point x="132" y="-5" type="curve"/>
      <point x="132" y="-60" type="line"/>
      <point x="115" y="-60" type="line"/>
      <point x="115" y="-5" type="line"/>
      <point x="59" y="-1"/>
      <point x="27" y="38"/>
      <point x="27" y="91" type="curve" smooth="yes"/>
      <point x="27" y="159" type="line"/>
      <point x="77" y="159" type="line"/>
      <point x="77" y="63" type="line" smooth="yes"/>
      <point x="77" y="31"/>
      <point x="91" y="8"/>
      <point x="124" y="8" type="curve" smooth="yes"/>
      <point x="155" y="8"/>
      <point x="169" y="30"/>
      <point x="169" y="63" type="curve" smooth="yes"/>
      <point x="169" y="118" type="line" smooth="yes"/>
      <point x="169" y="169"/>
      <point x="162" y="183"/>
      <point x="137" y="210" type="curve" smooth="yes"/>
      <point x="62" y="291" type="line" smooth="yes"/>
      <point x="33" y="322"/>
      <point x="27" y="349"/>
      <point x="27" y="394" type="curve" smooth="yes"/>
      <point x="27" y="429" type="line" smooth="yes"/>
      <point x="27" y="482"/>
      <point x="58" y="521"/>
      <point x="115" y="525" type="curve"/>
      <point x="115" y="580" type="line"/>
      <point x="132" y="580" type="line"/>
      <point x="132" y="525" type="line"/>
      <point x="188" y="521"/>
      <point x="218" y="482"/>
      <point x="218" y="429" type="curve" smooth="yes"/>
      <point x="218" y="361" type="line"/>
      <point x="168" y="361" type="line"/>
      <point x="168" y="457" type="line" smooth="yes"/>
      <point x="168" y="489"/>
      <point x="154" y="512"/>
      <point x="123" y="512" type="curve" smooth="yes"/>
      <point x="91" y="512"/>
      <point x="77" y="490"/>
      <point x="77" y="457" type="curve" smooth="yes"/>
      <point x="77" y="409" type="line" smooth="yes"/>
      <point x="77" y="357"/>
      <point x="85" y="343"/>
      <point x="109" y="317" type="curve" smooth="yes"/>
      <point x="184" y="236" type="line" smooth="yes"/>
      <point x="213" y="204"/>
      <point x="219" y="178"/>
      <point x="219" y="133" type="curve" smooth="yes"/>
    </contour>
  </outline>
</glyph>
<glyph name="eight.sc" format="1">
  <advance width="260"/>
  <outline>
    <contour>
      <point x="229" y="91" type="line" smooth="yes"/>
      <point x="229" y="35"/>
      <point x="192" y="-5"/>
      <point x="130" y="-5" type="curve" smooth="yes"/>
      <point x="68" y="-5"/>
      <point x="31" y="35"/>
      <point x="31" y="91" type="curve" smooth="yes"/>
      <point x="31" y="182" type="line" smooth="yes"/>
      <point x="31" y="225"/>
      <point x="54" y="258"/>
      <point x="96" y="270" type="curve"/>
      <point x="55" y="283"/>
      <point x="31" y="314"/>
      <point x="31" y="358" type="curve" smooth="yes"/>
      <point x="31" y="429" type="line" smooth="yes"/>
      <point x="31" y="485"/>
      <point x="68" y="525"/>
      <point x="130" y="525" type="curve" smooth="yes"/>
      <point x="192" y="525"/>
      <point x="229" y="485"/>
      <point x="229" y="429" type="curve" smooth="yes"/>
      <point x="229" y="358" type="line" smooth="yes"/>
      <point x="229" y="314"/>
      <point x="204" y="283"/>
      <point x="164" y="270" type="curve"/>
      <point x="206" y="258"/>
      <point x="229" y="225"/>
      <point x="229" y="182" type="curve" smooth="yes"/>
    </contour>
    <contour>
      <point x="179" y="332" type="curve" smooth="yes"/>
      <point x="179" y="457" type="line" smooth="yes"/>
      <point x="179" y="489"/>
      <point x="162" y="512"/>
      <point x="130" y="512" type="curve" smooth="yes"/>
      <point x="98" y="512"/>
      <point x="81" y="489"/>
      <point x="81" y="457" type="curve" smooth="yes"/>
      <point x="81" y="332" type="line" smooth="yes"/>
      <point x="81" y="298"/>
      <point x="98" y="277"/>
      <point x="130" y="277" type="curve" smooth="yes"/>
      <point x="162" y="277"/>
      <point x="179" y="298"/>
    </contour>
    <contour>
      <point x="179" y="63" type="curve" smooth="yes"/>
      <point x="179" y="208" type="line" smooth="yes"/>
      <point x="179" y="242"/>
      <point x="162" y="263"/>
      <point x="130" y="263" type="curve" smooth="yes"/>
      <point x="98" y="263"/>
      <point x="81" y="242"/>
      <point x="81" y="208" type="curve" smooth="yes"/>
      <point x="81" y="63" type="line" smooth="yes"/>
      <point x="81" y="31"/>
      <point x="98" y="8"/>
      <point x="130" y="8" type="curve" smooth="yes"/>
      <point x="162" y="8"/>
      <point x="179" y="31"/>
    </contour>
  </outline>
</glyph>
<glyph name="endash.sc" format="1">
  <advance width="200"/>
  <outline>
    <contour>
      <point x="182" y="262" type="line"/>
      <point x="18" y="262" type="line"/>
      <point x="18" y="278" type="line"/>
      <point x="182" y="278" type="line"/>
    </contour>
  </outline>
</glyph>
<glyph name="exclamdown.sc" format="1">
  <advance width="131"/>
  <outline>
    <contour>
      <point x="91" y="420" type="line"/>
      <point x="40" y="420" type="line"/>
      <point x="40" y="520" type="line"/>
      <point x="91" y="520" type="line"/>
    </contour>
    <contour>
      <point x="91" y="0" type="line"/>
      <point x="40" y="0" type="line"/>
      <point x="40" y="184" type="line"/>
      <point x="56" y="382" type="line"/>
      <point x="75" y="382" type="line"/>
      <point x="91" y="184" type="line"/>
    </contour>
  </outline>
</glyph>
<glyph name="f_i" format="1">
  <advance width="277"/>
  <outline>
    <contour>
      <point x="263" y="0" type="line"/>
      <point x="163" y="0" type="line"/>
      <point x="163" y="13" type="line"/>
      <point x="188" y="13" type="line"/>
      <point x="188" y="507" type="line"/>
      <point x="91" y="507" type="line"/>
      <point x="91" y="13" type="line"/>
      <point x="116" y="13" type="line"/>
      <point x="116" y="0" type="line"/>
      <point x="16" y="0" type="line"/>
      <point x="16" y="13" type="line"/>
      <point x="41" y="13" type="line"/>
      <point x="41" y="507" type="line"/>
      <point x="16" y="507" type="line"/>
      <point x="16" y="520" type="line"/>
      <point x="41" y="520" type="line"/>
      <point x="41" y="617" type="line" smooth="yes"/>
      <point x="41" y="665"/>
      <point x="74" y="700"/>
      <point x="127" y="700" type="curve" smooth="yes"/>
      <point x="238" y="700" type="line"/>
      <point x="238" y="600" type="line"/>
      <point x="187" y="600" type="line"/>
      <point x="187" y="687" type="line"/>
      <point x="132" y="687" type="line" smooth="yes"/>
      <point x="105" y="687"/>
      <point x="91" y="667"/>
      <point x="91" y="641" type="curve" smooth="yes"/>
      <point x="91" y="520" type="line"/>
      <point x="238" y="520" type="line"/>
      <point x="238" y="13" type="line"/>
      <point x="263" y="13" type="line"/>
    </contour>
  </outline>
</glyph>
<glyph name="five.sc" format="1">
  <advance width="257"/>
  <outline>
    <contour>
      <point x="225" y="91" type="line" smooth="yes"/>
      <point x="225" y="34"/>
      <point x="189" y="-5"/>
      <point x="128" y="-5" type="curve" smooth="yes"/>
      <point x="68" y="-5"/>
      <point x="31" y="34"/>
      <point x="31" y="91" type="curve" smooth="yes"/>
      <point x="31" y="159" type="line"/>
      <point x="81" y="159" type="line"/>
      <point x="81" y="63" type="line" smooth="yes"/>
      <point x="81" y="30"/>
      <point x="97" y="8"/>
      <point x="128" y="8" type="curve" smooth="yes"/>
      <point x="160" y="8"/>
      <point x="175" y="30"/>
      <point x="175" y="63" type="curve" smooth="yes"/>
      <point x="175" y="208" type="line" smooth="yes"/>
      <point x="175" y="242"/>
      <point x="159" y="263"/>
      <point x="127" y="263" type="curve" smooth="yes"/>
      <point x="33" y="263" type="line"/>
      <point x="33" y="520" type="line"/>
      <point x="219" y="520" type="line"/>
      <point x="219" y="361" type="line"/>
      <point x="169" y="361" type="line"/>
      <point x="169" y="507" type="line"/>
      <point x="83" y="507" type="line"/>
      <point x="83" y="277" type="line"/>
      <point x="127" y="277" type="line" smooth="yes"/>
      <point x="189" y="277"/>
      <point x="225" y="236"/>
      <point x="225" y="180" type="curve" smooth="yes"/>
    </contour>
  </outline>
</glyph>
<glyph name="florin.sc" format="1">
  <advance width="161"/>
  <outline>
    <contour>
      <point x="152" y="507" type="line"/>
      <point x="137" y="507" type="line" smooth="yes"/>
      <point x="111" y="507"/>
      <point x="97" y="487"/>
      <point x="97" y="461" type="curve" smooth="yes"/>
      <point x="97" y="277" type="line"/>
      <point x="137" y="277" type="line"/>
      <point x="137" y="264" type="line"/>
      <point x="97" y="264" type="line"/>
      <point x="97" y="-57" type="line" smooth="yes"/>
      <point x="97" y="-105"/>
      <point x="63" y="-140"/>
      <point x="9" y="-140" type="curve" smooth="yes"/>
      <point x="-11" y="-140" type="line"/>
      <point x="-11" y="-127" type="line"/>
      <point x="2" y="-127" type="line" smooth="yes"/>
      <point x="31" y="-127"/>
      <point x="45" y="-107"/>
      <point x="45" y="-81" type="curve" smooth="yes"/>
      <point x="45" y="264" type="line"/>
      <point x="20" y="264" type="line"/>
      <point x="20" y="277" type="line"/>
      <point x="45" y="277" type="line"/>
      <point x="45" y="437" type="line" smooth="yes"/>
      <point x="45" y="485"/>
      <point x="79" y="520"/>
      <point x="133" y="520" type="curve" smooth="yes"/>
      <point x="152" y="520" type="line"/>
    </contour>
  </outline>
</glyph>
<glyph name="four.sc" format="1">
  <advance width="236"/>
  <outline>
    <contour>
      <point x="215" y="0" type="line"/>
      <point x="115" y="0" type="line"/>
      <point x="115" y="13" type="line"/>
      <point x="140" y="13" type="line"/>
      <point x="140" y="110" type="line"/>
      <point x="11" y="110" type="line"/>
      <point x="11" y="127" type="line"/>
      <point x="139" y="520" type="line"/>
      <point x="190" y="520" type="line"/>
      <point x="190" y="127" type="line"/>
      <point x="215" y="127" type="line"/>
      <point x="215" y="110" type="line"/>
      <point x="190" y="110" type="line"/>
      <point x="190" y="13" type="line"/>
      <point x="215" y="13" type="line"/>
    </contour>
    <contour>
      <point x="140" y="127" type="line"/>
      <point x="140" y="468" type="line"/>
      <point x="30" y="127" type="line"/>
    </contour>
  </outline>
</glyph>
<glyph name="guillemotright.sc" format="1">
  <advance width="265"/>
  <outline>
    <contour>
      <point x="251" y="262" type="line"/>
      <point x="155" y="81" type="line"/>
      <point x="137" y="81" type="line"/>
      <point x="196" y="270" type="line"/>
      <point x="137" y="460" type="line"/>
      <point x="155" y="460" type="line"/>
      <point x="251" y="278" type="line"/>
    </contour>
    <contour>
      <point x="150" y="262" type="line"/>
      <point x="54" y="81" type="line"/>
      <point x="36" y="81" type="line"/>
      <point x="95" y="270" type="line"/>
      <point x="36" y="460" type="line"/>
      <point x="54" y="460" type="line"/>
      <point x="150" y="278" type="line"/>
    </contour>
  </outline>
</glyph>
<glyph name="guilsinglleft.sc" format="1">
  <advance width="174"/>
  <outline>
    <contour>
      <point x="138" y="81" type="line"/>
      <point x="120" y="81" type="line"/>
      <point x="24" y="262" type="line"/>
      <point x="24" y="278" type="line"/>
      <point x="120" y="460" type="line"/>
      <point x="138" y="460" type="line"/>
      <point x="79" y="270" type="line"/>
    </contour>
  </outline>
</glyph>
<glyph name="less.sc" format="1">
  <advance width="258"/>
  <outline>
    <contour>
      <point x="214" y="175" type="line"/>
      <point x="30" y="263" type="line"/>
      <point x="30" y="277" type="line"/>
      <point x="214" y="365" type="line"/>
      <point x="214" y="345" type="line"/>
      <point x="54" y="270" type="line"/>
      <point x="214" y="195" type="line"/>
    </contour>
  </outline>
</glyph>
<glyph name="macron" format="1">
  <advance width="300"/>
  <outline>
    <contour>
      <point x="236" y="573" type="line"/>
      <point x="64" y="573" type="line"/>
      <point x="64" y="604" type="line"/>
      <point x="236" y="604" type="line"/>
    </contour>
  </outline>
</glyph>
<glyph name="nine.sc" format="1">
  <advance width="261"/>
  <outline>
    <contour>
      <point x="230" y="91" type="line" smooth="yes"/>
      <point x="230" y="34"/>
      <point x="193" y="-5"/>
      <point x="130" y="-5" type="curve" smooth="yes"/>
      <point x="69" y="-5"/>
      <point x="31" y="34"/>
      <point x="31" y="91" type="curve" smooth="yes"/>
      <point x="31" y="159" type="line"/>
      <point x="81" y="159" type="line"/>
      <point x="81" y="63" type="line" smooth="yes"/>
      <point x="81" y="30"/>
      <point x="99" y="8"/>
      <point x="130" y="8" type="curve" smooth="yes"/>
      <point x="163" y="8"/>
      <point x="180" y="30"/>
      <point x="180" y="63" type="curve" smooth="yes"/>
      <point x="180" y="246" type="line"/>
      <point x="164" y="233"/>
      <point x="140" y="223"/>
      <point x="110" y="223" type="curve" smooth="yes"/>
      <point x="60" y="223"/>
      <point x="31" y="248"/>
      <point x="31" y="306" type="curve" smooth="yes"/>
      <point x="31" y="429" type="line" smooth="yes"/>
      <point x="31" y="486"/>
      <point x="69" y="525"/>
      <point x="130" y="525" type="curve" smooth="yes"/>
      <point x="193" y="525"/>
      <point x="230" y="486"/>
      <point x="230" y="429" type="curve" smooth="yes"/>
    </contour>
    <contour>
      <point x="180" y="260" type="curve"/>
      <point x="180" y="457" type="line" smooth="yes"/>
      <point x="180" y="490"/>
      <point x="163" y="512"/>
      <point x="130" y="512" type="curve" smooth="yes"/>
      <point x="99" y="512"/>
      <point x="81" y="490"/>
      <point x="81" y="457" type="curve" smooth="yes"/>
      <point x="81" y="288" type="line" smooth="yes"/>
      <point x="81" y="253"/>
      <point x="97" y="238"/>
      <point x="125" y="238" type="curve" smooth="yes"/>
      <point x="143" y="238"/>
      <point x="163" y="246"/>
    </contour>
  </outline>
</glyph>
<glyph name="one.sc" format="1">
  <advance width="140"/>
  <outline>
    <contour>
      <point x="122" y="0" type="line"/>
      <point x="22" y="0" type="line"/>
      <point x="22" y="13" type="line"/>
      <point x="47" y="13" type="line"/>
      <point x="47" y="507" type="line"/>
      <point x="22" y="507" type="line"/>
      <point x="22" y="520" type="line"/>
      <point x="97" y="520" type="line"/>
      <point x="97" y="13" type="line"/>
      <point x="122" y="13" type="line"/>
    </contour>
  </outline>
</glyph>
